<svg width="375" height="114" viewBox="0 0 375 114" fill="none" xmlns="http://www.w3.org/2000/svg">
<path fill-rule="evenodd" clip-rule="evenodd" d="M57 114C88.4802 114 114 88.4802 114 57C114 25.5198 88.4802 0 57 0C25.5198 0 0 25.5198 0 57C0 88.4802 25.5198 114 57 114ZM54.7334 25.2667C54.7334 24.0149 55.7482 23 57 23C58.2519 23 59.2667 24.0149 59.2667 25.2667V29.8C59.2667 31.0519 58.2519 32.0667 57 32.0667C55.7482 32.0667 54.7334 31.0519 54.7334 29.8V25.2667ZM36.6024 37.9238C37.4887 38.8101 37.4887 40.247 36.6024 41.1334C35.7161 42.0197 34.2791 42.0197 33.3928 41.1334L29.8024 37.543C28.9161 36.6566 28.9161 35.2197 29.8024 34.3334C30.6887 33.447 32.1257 33.447 33.012 34.3334L36.6024 37.9238ZM77.4027 41.1334C78.2891 42.0197 79.726 42.0197 80.6124 41.1334L84.2027 37.543C85.0891 36.6566 85.0891 35.2197 84.2027 34.3334C83.3164 33.447 81.8794 33.447 80.9931 34.3334L77.4027 37.9238C76.5164 38.8101 76.5164 40.247 77.4027 41.1334ZM45.239 40.9893C48.5035 38.1578 52.6801 36.5993 57.0016 36.6C61.3223 36.5991 65.4984 38.157 68.7629 40.9876C72.0273 43.8182 74.1611 47.7315 74.7722 52.0088L74.8176 52.3261C75.5338 57.3808 74.0922 62.1907 71.2362 65.8808C69.5 68.1248 68.3349 70.2691 68.3349 72.4179V79.6667C68.3349 80.2678 68.0961 80.8444 67.671 81.2694C67.2459 81.6945 66.6694 81.9333 66.0682 81.9333H47.9349C47.3337 81.9333 46.7572 81.6945 46.3321 81.2694C45.907 80.8444 45.6682 80.2678 45.6682 79.6667V72.4179C45.6682 70.2691 44.5032 68.1248 42.7669 65.8808C41.2897 63.979 40.2112 61.7988 39.5959 59.4706C38.9805 57.1424 38.841 54.714 39.1856 52.3307L39.2309 52.0133C39.8411 47.7352 41.9744 43.8209 45.239 40.9893ZM23.0009 56.9999C23.0009 58.2518 24.0158 59.2666 25.2676 59.2666H29.8009C31.0528 59.2666 32.0676 58.2518 32.0676 56.9999C32.0676 55.7481 31.0528 54.7333 29.8009 54.7333H25.2676C24.0158 54.7333 23.0009 55.7481 23.0009 56.9999ZM84.2007 59.2666C82.9489 59.2666 81.934 58.2518 81.934 56.9999C81.934 55.7481 82.9488 54.7333 84.2007 54.7333H88.734C89.9859 54.7333 91.0007 55.7481 91.0007 56.9999C91.0007 58.2518 89.9859 59.2666 88.734 59.2666H84.2007ZM48.2582 88.5714C48.2582 89.9127 49.3455 91 50.6868 91H63.3154C64.6566 91 65.7439 89.9127 65.7439 88.5714C65.7439 87.2301 64.6566 86.1428 63.3154 86.1428H50.6868C49.3455 86.1428 48.2582 87.2301 48.2582 88.5714Z" fill="white"/>
<path d="M134.865 29.93H178.16V38.4302H145.033V52.094H161.477C168.15 52.094 173.208 53.4975 176.65 56.3044C180.146 59.0583 181.894 63.0568 181.894 68.2999C181.894 73.8078 179.987 78.0711 176.174 81.0899C172.361 84.0557 166.932 85.5386 159.888 85.5386H134.865V29.93ZM159.332 77.5945C163.304 77.5945 166.323 76.8266 168.389 75.2907C170.454 73.7549 171.487 71.5305 171.487 68.6177C171.487 62.8979 167.435 60.0381 159.332 60.0381H145.033V77.5945H159.332ZM207.899 42.6405C214.148 42.6405 218.914 44.1499 222.198 47.1687C225.535 50.1345 227.203 54.6361 227.203 60.6736V85.5386H217.829V80.3749C216.611 82.2285 214.863 83.6585 212.586 84.6647C210.361 85.618 207.66 86.0947 204.483 86.0947C201.305 86.0947 198.525 85.5651 196.141 84.5058C193.758 83.3937 191.905 81.8843 190.581 79.9777C189.31 78.0182 188.674 75.8203 188.674 73.3841C188.674 69.571 190.077 66.5257 192.884 64.2484C195.744 61.9182 200.219 60.753 206.31 60.753H217.273V60.1175C217.273 57.1517 216.372 54.8744 214.572 53.2856C212.824 51.6968 210.202 50.9024 206.707 50.9024C204.324 50.9024 201.967 51.2731 199.637 52.0146C197.36 52.756 195.426 53.7887 193.838 55.1128L189.945 47.8836C192.169 46.1889 194.844 44.8914 197.969 43.991C201.093 43.0907 204.403 42.6405 207.899 42.6405ZM206.548 78.8655C209.037 78.8655 211.235 78.3095 213.142 77.1973C215.101 76.0322 216.478 74.3904 217.273 72.272V67.3466H207.025C201.305 67.3466 198.445 69.2267 198.445 72.9869C198.445 74.7876 199.16 76.2175 200.59 77.2767C202.02 78.3359 204.006 78.8655 206.548 78.8655ZM263.005 42.6405C267.136 42.6405 270.817 43.5409 274.047 45.3415C277.331 47.1422 279.9 49.6843 281.753 52.9678C283.607 56.2514 284.534 60.0381 284.534 64.3279C284.534 68.6177 283.607 72.4308 281.753 75.7674C279.9 79.0509 277.331 81.593 274.047 83.3937C270.817 85.1943 267.136 86.0947 263.005 86.0947C257.285 86.0947 252.757 84.1881 249.421 80.3749V100.95H239.491V43.1172H248.944V48.678C250.586 46.6655 252.598 45.1562 254.982 44.1499C257.418 43.1437 260.092 42.6405 263.005 42.6405ZM261.893 77.5945C265.547 77.5945 268.539 76.3764 270.87 73.9402C273.253 71.504 274.445 68.2999 274.445 64.3279C274.445 60.3558 273.253 57.1517 270.87 54.7155C268.539 52.2794 265.547 51.0613 261.893 51.0613C259.51 51.0613 257.365 51.6174 255.458 52.7295C253.552 53.7887 252.042 55.3246 250.93 57.3371C249.818 59.3496 249.262 61.6799 249.262 64.3279C249.262 66.9759 249.818 69.3062 250.93 71.3187C252.042 73.3312 253.552 74.8935 255.458 76.0057C257.365 77.0649 259.51 77.5945 261.893 77.5945ZM312.052 68.5382H304.347V85.5386H294.416V43.1172H304.347V60.2764H312.291L324.842 43.1172H335.487L320.076 63.5335L336.52 85.5386H324.842L312.052 68.5382ZM339.142 77.2767V94.3565H330.165V85.5386H324.842V77.2767H339.142Z" fill="white"/>
</svg>
