<svg width="375" height="114" viewBox="0 0 375 114" fill="none" xmlns="http://www.w3.org/2000/svg">
<circle cx="57" cy="57" r="57" fill="url(#paint0_linear_576_1979)"/>
<g clip-path="url(#clip0_576_1979)">
<path d="M56.9991 23C55.7472 23 54.7324 24.0148 54.7324 25.2667V29.8C54.7324 31.0518 55.7472 32.0667 56.9991 32.0667C58.2509 32.0667 59.2658 31.0518 59.2658 29.8V25.2667C59.2658 24.0148 58.2509 23 56.9991 23Z" fill="white"/>
<path d="M36.6021 41.1333C37.4884 40.247 37.4884 38.81 36.6021 37.9237L33.0117 34.3333C32.1254 33.447 30.6884 33.447 29.8021 34.3333C28.9158 35.2196 28.9158 36.6566 29.8021 37.5429L33.3925 41.1333C34.2788 42.0196 35.7158 42.0196 36.6021 41.1333Z" fill="white"/>
<path d="M77.4017 41.1333C78.288 42.0196 79.725 42.0196 80.6113 41.1333L84.2017 37.5429C85.088 36.6566 85.088 35.2196 84.2017 34.3333C83.3154 33.447 81.8784 33.447 80.9921 34.3333L77.4017 37.9237C76.5154 38.81 76.5154 40.247 77.4017 41.1333Z" fill="white"/>
<path d="M57.0003 36.5999C52.6789 36.5991 48.5023 38.1577 45.2377 40.9892C41.9732 43.8207 39.8398 47.735 39.2297 52.0132L39.1843 52.3305C38.8397 54.7139 38.9793 57.1422 39.5946 59.4704C40.21 61.7986 41.2885 63.9788 42.7657 65.8806C44.5019 68.1246 45.667 70.2689 45.667 72.4177V79.6665C45.667 80.2677 45.9058 80.8442 46.3309 81.2693C46.756 81.6944 47.3325 81.9332 47.9337 81.9332H66.067C66.6682 81.9332 67.2447 81.6944 67.6698 81.2693C68.0949 80.8442 68.3337 80.2677 68.3337 79.6665V72.4177C68.3337 70.2689 69.4987 68.1246 71.235 65.8806C74.091 62.1905 75.5326 57.3807 74.8163 52.326L74.771 52.0087C74.1598 47.7313 72.0261 43.8181 68.7616 40.9875C65.4972 38.1569 61.3211 36.599 57.0003 36.5999Z" fill="white"/>
<path d="M23 56.9998C23 58.2517 24.0148 59.2665 25.2667 59.2665H29.8C31.0518 59.2665 32.0667 58.2517 32.0667 56.9998C32.0667 55.748 31.0518 54.7332 29.8 54.7332H25.2667C24.0148 54.7332 23 55.748 23 56.9998Z" fill="white"/>
<path d="M81.9336 56.9998C81.9336 58.2517 82.9484 59.2665 84.2003 59.2665H88.7336C89.9854 59.2665 91.0003 58.2517 91.0003 56.9998C91.0003 55.748 89.9854 54.7332 88.7336 54.7332H84.2003C82.9484 54.7332 81.9336 55.748 81.9336 56.9998Z" fill="white"/>
<path d="M48.2578 88.5714C48.2578 89.9127 49.3451 91 50.6864 91H63.315C64.6562 91 65.7435 89.9127 65.7435 88.5714C65.7435 87.2301 64.6562 86.1428 63.315 86.1428H50.6864C49.3451 86.1428 48.2578 87.2301 48.2578 88.5714Z" fill="white"/>
</g>
<path d="M134.865 29.93H178.16V38.4302H145.033V52.094H161.477C168.15 52.094 173.208 53.4975 176.65 56.3044C180.146 59.0583 181.894 63.0568 181.894 68.2999C181.894 73.8078 179.987 78.0711 176.174 81.0899C172.361 84.0557 166.932 85.5386 159.888 85.5386H134.865V29.93ZM159.332 77.5945C163.304 77.5945 166.323 76.8266 168.389 75.2907C170.454 73.7549 171.487 71.5305 171.487 68.6177C171.487 62.8979 167.435 60.0381 159.332 60.0381H145.033V77.5945H159.332ZM207.899 42.6405C214.148 42.6405 218.914 44.1499 222.198 47.1687C225.535 50.1345 227.203 54.6361 227.203 60.6736V85.5386H217.829V80.3749C216.611 82.2285 214.863 83.6585 212.586 84.6647C210.361 85.618 207.66 86.0947 204.483 86.0947C201.305 86.0947 198.525 85.5651 196.141 84.5058C193.758 83.3937 191.905 81.8843 190.581 79.9777C189.31 78.0182 188.674 75.8203 188.674 73.3841C188.674 69.571 190.077 66.5257 192.884 64.2484C195.744 61.9182 200.219 60.753 206.31 60.753H217.273V60.1175C217.273 57.1517 216.372 54.8744 214.572 53.2856C212.824 51.6968 210.202 50.9024 206.707 50.9024C204.324 50.9024 201.967 51.2731 199.637 52.0146C197.36 52.756 195.426 53.7887 193.838 55.1128L189.945 47.8836C192.169 46.1889 194.844 44.8914 197.969 43.991C201.093 43.0907 204.403 42.6405 207.899 42.6405ZM206.548 78.8655C209.037 78.8655 211.235 78.3095 213.142 77.1973C215.101 76.0322 216.478 74.3904 217.273 72.272V67.3466H207.025C201.305 67.3466 198.445 69.2267 198.445 72.9869C198.445 74.7876 199.16 76.2175 200.59 77.2767C202.02 78.3359 204.006 78.8655 206.548 78.8655ZM263.005 42.6405C267.136 42.6405 270.817 43.5409 274.047 45.3415C277.331 47.1422 279.9 49.6843 281.753 52.9678C283.607 56.2514 284.534 60.0381 284.534 64.3279C284.534 68.6177 283.607 72.4308 281.753 75.7674C279.9 79.0509 277.331 81.593 274.047 83.3937C270.817 85.1943 267.136 86.0947 263.005 86.0947C257.285 86.0947 252.757 84.1881 249.421 80.3749V100.95H239.491V43.1172H248.944V48.678C250.586 46.6655 252.598 45.1562 254.982 44.1499C257.418 43.1437 260.092 42.6405 263.005 42.6405ZM261.893 77.5945C265.547 77.5945 268.539 76.3764 270.87 73.9402C273.253 71.504 274.445 68.2999 274.445 64.3279C274.445 60.3558 273.253 57.1517 270.87 54.7155C268.539 52.2794 265.547 51.0613 261.893 51.0613C259.51 51.0613 257.365 51.6174 255.458 52.7295C253.552 53.7887 252.042 55.3246 250.93 57.3371C249.818 59.3496 249.262 61.6799 249.262 64.3279C249.262 66.9759 249.818 69.3062 250.93 71.3187C252.042 73.3312 253.552 74.8935 255.458 76.0057C257.365 77.0649 259.51 77.5945 261.893 77.5945ZM312.052 68.5382H304.347V85.5386H294.416V43.1172H304.347V60.2764H312.291L324.842 43.1172H335.487L320.076 63.5335L336.52 85.5386H324.842L312.052 68.5382Z" fill="#3C8FDE"/>
<defs>
<linearGradient id="paint0_linear_576_1979" x1="0" y1="0" x2="114" y2="114" gradientUnits="userSpaceOnUse">
<stop stop-color="#1976D2"/>
<stop offset="0.0001" stop-color="#1976D2"/>
<stop offset="1" stop-color="#90CAF9"/>
</linearGradient>
<clipPath id="clip0_576_1979">
<rect width="68" height="68" fill="white" transform="translate(23 23)"/>
</clipPath>
</defs>
</svg>
