<svg id="Слой_1" data-name="Слой 1" xmlns="http://www.w3.org/2000/svg" viewBox="0 0 39.9 56.91"><title>cardmilli</title><path d="M945.83,245.49h29.76a4.86,4.86,0,0,1,5,4.73v47.24a4.86,4.86,0,0,1-5,4.73H945.83a4.86,4.86,0,0,1-5-4.73V250.22A4.86,4.86,0,0,1,945.83,245.49Z" transform="translate(-940.76 -245.39)" style="fill:#fff;stroke:#ac8734;stroke-miterlimit:22.925600000000003;stroke-width:0.2126px;fill-rule:evenodd"/><path d="M949.24,287.05v.11l0,.16a.23.23,0,0,0,.11.11l.08,0,.13.09a.17.17,0,0,1,0,.13.19.19,0,0,1-.1.17.49.49,0,0,1-.25.06H947.9a.63.63,0,0,1-.26-.05.18.18,0,0,1-.09-.18.19.19,0,0,1,.07-.16l.1-.06.08,0a.27.27,0,0,0,.1-.11l0-.16v-3.51a.7.7,0,0,0,0-.16.18.18,0,0,0-.11-.1l-.08,0-.12-.09a.16.16,0,0,1-.05-.13.17.17,0,0,1,.1-.18.54.54,0,0,1,.25-.06h1.37a.62.62,0,0,1,.25.05c.07,0,.1.09.1.19a.18.18,0,0,1-.07.15l-.1.07-.08,0a.22.22,0,0,0-.09.08.3.3,0,0,0,0,.18v1.69l1.18-.9.34-.32.26-.28a.87.87,0,0,0,.23-.34q0-.09-.15-.18a.25.25,0,0,1-.16-.22.18.18,0,0,1,.1-.16.56.56,0,0,1,.23-.05h1.05l.13,0a.23.23,0,0,1,.17.23.19.19,0,0,1-.08.14.34.34,0,0,1-.16.1,1.38,1.38,0,0,0-.43.32l-.24.26-.93.93a10,10,0,0,1,.9,1.05c.25.34.5.73.76,1.16l.13.2a.56.56,0,0,0,.2.16l.15.09a.22.22,0,0,1,.05.16c0,.08-.06.14-.17.18l-.18,0h-1.37a1,1,0,0,1-.29,0,.19.19,0,0,1-.16-.2.29.29,0,0,1,.12-.2c.09-.06.13-.11.13-.14a2.16,2.16,0,0,0-.51-.91,7.8,7.8,0,0,0-.74-.88l-.56.42Z" transform="translate(-940.76 -245.39)" style="fill:#ac8734;fill-rule:evenodd"/><path d="M957.17,285.42a2.82,2.82,0,0,0-.3-1.38,1.25,1.25,0,0,0-1.17-.73,1.23,1.23,0,0,0-.7.21,1.74,1.74,0,0,0-.47.55,2.94,2.94,0,0,0-.22.61c0,.11,0,.22,0,.32s0,.23,0,.37a2.87,2.87,0,0,0,.3,1.38,1.28,1.28,0,0,0,2.31,0,2.75,2.75,0,0,0,.31-1.37Zm-3.51,1.86a2.59,2.59,0,0,1-.81-1.89,2.38,2.38,0,0,1,.82-1.86,2.9,2.9,0,0,1,2-.74,3,3,0,0,1,2,.71,2.4,2.4,0,0,1,.85,1.89,2.37,2.37,0,0,1-.85,1.88,3,3,0,0,1-2.05.75,3.07,3.07,0,0,1-1.08-.19,2.73,2.73,0,0,1-.93-.55Z" transform="translate(-940.76 -245.39)" style="fill:#ac8734;fill-rule:evenodd"/><path d="M960.55,285.5a2.76,2.76,0,0,0,1.06-.33,1,1,0,0,0,.54-.87.84.84,0,0,0-.28-.68,1.12,1.12,0,0,0-.76-.25l-.28,0a.54.54,0,0,0-.18.1.3.3,0,0,0-.1.21v1.8Zm0,1.56v.14l0,.11.06.08.18.08c.09,0,.15.06.17.1a.18.18,0,0,1,0,.14.19.19,0,0,1-.15.19,1.31,1.31,0,0,1-.27,0h-1.42a.63.63,0,0,1-.26-.05.18.18,0,0,1-.09-.18.19.19,0,0,1,.07-.16l.1-.06.08-.05s.07-.05.1-.1l0-.16v-3.52a.63.63,0,0,0,0-.16.2.2,0,0,0-.11-.11l-.08,0-.12-.08a.16.16,0,0,1,0-.13.17.17,0,0,1,.1-.17.54.54,0,0,1,.25-.06h2.23a5.17,5.17,0,0,1,.74.05,2.08,2.08,0,0,1,.66.2,1.42,1.42,0,0,1,.52.45,1.18,1.18,0,0,1,.2.67,1.25,1.25,0,0,1-.32.83,2.2,2.2,0,0,1-.75.54,4.08,4.08,0,0,1-.93.29,5.16,5.16,0,0,1-1,.1Z" transform="translate(-940.76 -245.39)" style="fill:#ac8734;fill-rule:evenodd"/><path d="M965.5,283.77v-.09a.54.54,0,0,0,0-.22s-.12-.06-.25-.06a1.12,1.12,0,0,0-.77.29,1,1,0,0,1-.4.27c-.18,0-.27-.08-.27-.26v-.12l0-.1c0-.1,0-.17,0-.2a.24.24,0,0,1,0-.09.55.55,0,0,1,.1-.25.22.22,0,0,1,.12-.05h4.12a.28.28,0,0,1,.16.05.66.66,0,0,1,.11.25l.06.29,0,.15v.07c0,.18-.09.26-.27.26s-.2-.09-.4-.28a1.07,1.07,0,0,0-.77-.28.35.35,0,0,0-.24.06.45.45,0,0,0-.05.22v3.48l0,.16a.23.23,0,0,0,.11.11l.08,0,.13.09a.17.17,0,0,1,0,.13.19.19,0,0,1-.1.17.49.49,0,0,1-.25.06h-1.37a.63.63,0,0,1-.26-.05.18.18,0,0,1-.09-.18.19.19,0,0,1,.07-.16l.1-.06.08,0a.22.22,0,0,0,.1-.11l0-.16Z" transform="translate(-940.76 -245.39)" style="fill:#ac8734;fill-rule:evenodd"/><path d="M970.51,287.05v.11l0,.16a.23.23,0,0,0,.11.11l.08,0,.13.09a.17.17,0,0,1,0,.13.19.19,0,0,1-.1.17.49.49,0,0,1-.25.06h-1.37a.63.63,0,0,1-.26-.05.18.18,0,0,1-.09-.18.19.19,0,0,1,.07-.16l.1-.06.08,0a.22.22,0,0,0,.1-.11l0-.16v-3.51a.7.7,0,0,0,0-.16.18.18,0,0,0-.11-.1l-.08,0-.12-.09a.16.16,0,0,1,0-.13.17.17,0,0,1,.1-.18.54.54,0,0,1,.25-.06h1.37a.58.58,0,0,1,.25.05c.07,0,.1.09.1.19a.18.18,0,0,1-.07.15l-.1.07-.08,0a.22.22,0,0,0-.09.08.3.3,0,0,0,0,.18V286l2.15-2.06v-.32a.7.7,0,0,0,0-.16.18.18,0,0,0-.11-.1l-.08,0-.12-.09a.16.16,0,0,1-.05-.13.17.17,0,0,1,.11-.18.48.48,0,0,1,.24-.06H974a.67.67,0,0,1,.26.05.19.19,0,0,1,.1.19.19.19,0,0,1-.08.15l-.1.07-.08,0a.22.22,0,0,0-.09.08.4.4,0,0,0,0,.18v3.51l0,.16a.21.21,0,0,0,.1.11l.08,0a.4.4,0,0,1,.13.09.17.17,0,0,1,.05.13.2.2,0,0,1-.11.17.49.49,0,0,1-.25.06h-1.37a.58.58,0,0,1-.25-.05.17.17,0,0,1-.1-.18.19.19,0,0,1,.07-.16l.1-.06.08,0a.22.22,0,0,0,.1-.11l0-.16v-2.47l-2.15,2.06Z" transform="translate(-940.76 -245.39)" style="fill:#ac8734;fill-rule:evenodd"/><path d="M950.65,291.33a.79.79,0,0,1,.18-.28.44.44,0,0,1,.3-.07h1.34a.24.24,0,0,1,.25.24.23.23,0,0,1-.09.18l-.19.08a.22.22,0,0,0-.17.11.47.47,0,0,0,0,.23v3.42l0,.17s0,.07.11.1l.08,0a.53.53,0,0,1,.13.1.17.17,0,0,1,0,.12.2.2,0,0,1-.11.18.48.48,0,0,1-.24.06h-1.38a.58.58,0,0,1-.25-.05.19.19,0,0,1-.1-.19.26.26,0,0,1,.07-.16l.1-.06.08,0a.17.17,0,0,0,.1-.1l0-.17v-3.09l-1.16,2.76-.13.26a.43.43,0,0,1-.4.18,1.19,1.19,0,0,1-.34,0,.55.55,0,0,1-.2-.25l-1.27-2.83v3l0,.11,0,.09.18.08c.1,0,.16.06.18.1a.16.16,0,0,1,0,.13c0,.1-.06.16-.18.2l-.31,0h-.78l-.16,0c-.12,0-.18-.09-.18-.2a.23.23,0,0,1,.16-.22l.22-.09a.32.32,0,0,0,.08-.13.36.36,0,0,0,0-.1s0-.07,0-.1v-3.3l0-.16a.31.31,0,0,0-.08-.13.64.64,0,0,0-.22-.12l-.17-.06a.17.17,0,0,1-.08-.17.2.2,0,0,1,.14-.2l.27,0H948a.4.4,0,0,1,.34.13s.07.15.16.35l1,2.47Z" transform="translate(-940.76 -245.39)" style="fill:#ac8734;fill-rule:evenodd"/><path d="M954.71,295.13v.11l0,.17s0,.07.1.1l.08,0a.58.58,0,0,1,.13.1.14.14,0,0,1,.05.12.2.2,0,0,1-.11.18.49.49,0,0,1-.25.06h-1.37a.58.58,0,0,1-.25-.05.19.19,0,0,1-.1-.19.21.21,0,0,1,.07-.16l.1-.06.08,0a.17.17,0,0,0,.1-.1l0-.17v-3.5a.44.44,0,0,0,0-.17s0-.07-.11-.1l-.08,0-.12-.08a.21.21,0,0,1,.06-.32.6.6,0,0,1,.24,0h1.37a.68.68,0,0,1,.26,0,.19.19,0,0,1,.1.19.24.24,0,0,1-.07.16l-.11.06-.08,0a.32.32,0,0,0-.09.08.49.49,0,0,0,0,.19v2.38l2.15-2.06v-.32a.44.44,0,0,0,0-.17s-.05-.07-.11-.1l-.07,0-.13-.08a.26.26,0,0,1,0-.14.2.2,0,0,1,.11-.18.62.62,0,0,1,.25,0h1.37a.62.62,0,0,1,.25,0c.07,0,.1.09.1.19a.2.2,0,0,1-.07.16l-.1.06-.08,0a.18.18,0,0,0-.09.08.36.36,0,0,0,0,.19v3.5l0,.17s0,.07.11.1l.08,0a.53.53,0,0,1,.13.1s0,.06,0,.12a.2.2,0,0,1-.11.18.45.45,0,0,1-.24.06h-1.37a.6.6,0,0,1-.26-.05.19.19,0,0,1-.1-.19.26.26,0,0,1,.07-.16l.11-.06.07,0a.21.21,0,0,0,.11-.1l0-.17v-2.46l-2.15,2.06Z" transform="translate(-940.76 -245.39)" style="fill:#ac8734;fill-rule:evenodd"/><path d="M960.42,291.7c0-.07,0-.13-.17-.2a.34.34,0,0,1-.16-.29c0-.15.13-.23.4-.23h3a.68.68,0,0,1,.26,0,.19.19,0,0,1,.1.19.21.21,0,0,1-.08.16l-.1.06-.08,0a.32.32,0,0,0-.09.08.49.49,0,0,0,0,.19v3.5l0,.17s.05.07.1.1l.08,0a.38.38,0,0,1,.13.1.14.14,0,0,1,0,.12.2.2,0,0,1-.11.18.49.49,0,0,1-.25.06h-1.37a.58.58,0,0,1-.25-.05.19.19,0,0,1-.1-.19.21.21,0,0,1,.07-.16l.1-.06.08,0a.17.17,0,0,0,.1-.1l0-.17V291.9a.48.48,0,0,0-.09-.34l-.1-.05a1.32,1.32,0,0,0-.32,0h-.14a.61.61,0,0,0-.45.27,3.64,3.64,0,0,0-.34.57,13.83,13.83,0,0,0-.66,1.59,4.12,4.12,0,0,0-.31,1.29.37.37,0,0,0,.26.33c.17.09.26.18.26.27a.19.19,0,0,1-.15.19l-.27,0h-.82a.72.72,0,0,1-.25,0,.2.2,0,0,1-.15-.19.17.17,0,0,1,0-.12.32.32,0,0,1,.12-.12.65.65,0,0,0,.17-.17l.1-.26c.14-.49.3-1,.48-1.43.07-.19.16-.4.25-.62l.36-.78.15-.33A1.08,1.08,0,0,0,960.42,291.7Z" transform="translate(-940.76 -245.39)" style="fill:#ac8734;fill-rule:evenodd"/><path d="M965.76,291.7c0-.07-.06-.13-.17-.2a.34.34,0,0,1-.16-.29c0-.15.13-.23.4-.23h3a.6.6,0,0,1,.25,0c.07,0,.1.09.1.19a.2.2,0,0,1-.07.16l-.1.06-.08,0a.32.32,0,0,0-.09.08.49.49,0,0,0,0,.19v3.5l0,.17a.22.22,0,0,0,.11.1l.08,0a.38.38,0,0,1,.13.1s0,.06,0,.12a.19.19,0,0,1-.1.18.49.49,0,0,1-.25.06h-1.37a.67.67,0,0,1-.26-.05.2.2,0,0,1-.09-.19.21.21,0,0,1,.07-.16l.1-.06.08,0a.19.19,0,0,0,.1-.1l0-.17V291.9a.48.48,0,0,0-.09-.34l-.1-.05a1.32,1.32,0,0,0-.32,0h-.15a.62.62,0,0,0-.44.27,3.64,3.64,0,0,0-.34.57,15.85,15.85,0,0,0-.67,1.59,4.33,4.33,0,0,0-.3,1.29.37.37,0,0,0,.26.33c.17.09.25.18.25.27a.19.19,0,0,1-.14.19l-.27,0h-.82a.67.67,0,0,1-.25,0,.2.2,0,0,1-.15-.19.17.17,0,0,1,0-.12.32.32,0,0,1,.12-.12.65.65,0,0,0,.17-.17l.09-.26a13.37,13.37,0,0,1,.49-1.43c.07-.19.15-.4.25-.62l.36-.78.15-.33A1.08,1.08,0,0,0,965.76,291.7Z" transform="translate(-940.76 -245.39)" style="fill:#ac8734;fill-rule:evenodd"/><path d="M971,290.39a1,1,0,0,1-.29,0c-.06,0-.09-.11-.09-.22s0-.19.07-.22.13-.05.28-.05h2.77a1.05,1.05,0,0,1,.3,0c.06,0,.09.09.09.2s0,.21-.08.24a.46.46,0,0,1-.28.06Zm.33,4.74v.11l0,.17s0,.07.1.1l.08,0a.58.58,0,0,1,.13.1.14.14,0,0,1,.05.12.2.2,0,0,1-.11.18.49.49,0,0,1-.25.06H970a.58.58,0,0,1-.25-.05.19.19,0,0,1-.1-.19.21.21,0,0,1,.07-.16l.1-.06.08,0a.17.17,0,0,0,.1-.1l0-.17v-3.5a.79.79,0,0,0,0-.17s-.05-.07-.11-.1l-.08,0-.12-.08a.21.21,0,0,1,.06-.32.6.6,0,0,1,.24,0h1.37a.68.68,0,0,1,.26,0,.19.19,0,0,1,.1.19.24.24,0,0,1-.07.16l-.11.06-.08,0a.32.32,0,0,0-.09.08.49.49,0,0,0,0,.19v2.38l2.15-2.06v-.32a.44.44,0,0,0,0-.17s0-.07-.11-.1l-.07,0-.13-.08a.26.26,0,0,1,0-.14.2.2,0,0,1,.11-.18.62.62,0,0,1,.25,0h1.37a.62.62,0,0,1,.25,0c.07,0,.1.09.1.19a.2.2,0,0,1-.07.16l-.1.06-.08,0a.18.18,0,0,0-.09.08.36.36,0,0,0,0,.19v3.5l0,.17s.05.07.11.1l.08,0a.53.53,0,0,1,.13.1s0,.06,0,.12a.2.2,0,0,1-.11.18.45.45,0,0,1-.24.06h-1.37a.6.6,0,0,1-.26-.05.19.19,0,0,1-.1-.19.26.26,0,0,1,.07-.16l.11-.06.07,0a.21.21,0,0,0,.11-.1l0-.17v-2.46l-2.15,2.06Z" transform="translate(-940.76 -245.39)" style="fill:#ac8734;fill-rule:evenodd"/><path d="M971.2,267.54a4.17,4.17,0,0,0,0-7.77l-.3-.13a4.13,4.13,0,0,0,.32-2.7,4.5,4.5,0,0,0-6-3.09l-.31.11a4.44,4.44,0,0,0-1.78-2.13,4.58,4.58,0,0,0-6.52,1.85l-.13.28a4.76,4.76,0,0,0-2.84-.3,4.23,4.23,0,0,0-3.24,5.69l.11.29a4.54,4.54,0,0,0-2.23,1.7,4.16,4.16,0,0,0,1.93,6.2l.3.13a4.21,4.21,0,0,0-.32,2.71,4.51,4.51,0,0,0,6,3.08l.31-.11a4.39,4.39,0,0,0,1.78,2.13,4.58,4.58,0,0,0,6.52-1.84l.13-.29a4.76,4.76,0,0,0,2.84.3A4.23,4.23,0,0,0,971,268l-.12-.29.3-.13Zm-17.4-15.75.78-2.26,2.23,1.07a6.63,6.63,0,0,1,7.82,0l2.24-1.07.78,2.26a6.24,6.24,0,0,1,5.53,5.27l2.37.74-1.12,2.13a5.86,5.86,0,0,1,0,7.45l1.12,2.13-2.37.74a6.24,6.24,0,0,1-5.53,5.27l-.78,2.26-2.24-1.07a6.63,6.63,0,0,1-7.82,0l-2.23,1.07-.78-2.26a6.24,6.24,0,0,1-5.53-5.27l-2.38-.74,1.13-2.13a5.84,5.84,0,0,1,0-7.45l-1.13-2.13,2.38-.74a6.24,6.24,0,0,1,5.53-5.27Z" transform="translate(-940.76 -245.39)" style="fill:#ac8734;fill-rule:evenodd"/><path d="M972.84,257.32l2.2.69-1,2a6.32,6.32,0,0,0-1.24-1.06,5.67,5.67,0,0,0,.08-1.59Zm1.16,10,1,2-2.2.69h0a5.67,5.67,0,0,0-.08-1.59,6,6,0,0,0,1.24-1.06Zm-6.62,7.86-.73,2.09-2.06-1a6,6,0,0,0,1.12-1.18,6.61,6.61,0,0,0,1.66.08Zm-10.52,1.1-2.07,1-.72-2.09h0a6.23,6.23,0,0,0,1.67-.08,5.69,5.69,0,0,0,1.12,1.18ZM948.6,270l-2.2-.69,1.05-2a6,6,0,0,0,1.24,1.06,5.32,5.32,0,0,0-.09,1.59Zm-1.15-10-1.05-2,2.2-.69h0a5.32,5.32,0,0,0,.09,1.59,6.32,6.32,0,0,0-1.24,1.06Zm6.62-7.87.72-2.09,2.07,1a5.69,5.69,0,0,0-1.12,1.18,6.67,6.67,0,0,0-1.67-.08Zm10.52-1.1,2.06-1,.73,2.09h0a6.67,6.67,0,0,0-1.67.08,6.25,6.25,0,0,0-1.12-1.18Z" transform="translate(-940.76 -245.39)" style="fill:#ac8734;stroke:#fff;stroke-miterlimit:22.925600000000003;stroke-width:0.2126px;fill-rule:evenodd"/><path d="M948.69,258.91a5.52,5.52,0,0,1,1.65-5.14,6.23,6.23,0,0,1,5.4-1.58,6.19,6.19,0,0,1,10,0,6.24,6.24,0,0,1,5.4,1.58,5.57,5.57,0,0,1,1.65,5.14,5.57,5.57,0,0,1,0,9.49,5.57,5.57,0,0,1-1.65,5.14,6.24,6.24,0,0,1-5.4,1.58,6.19,6.19,0,0,1-10,0,6.2,6.2,0,0,1-5.4-1.58,5.52,5.52,0,0,1-1.65-5.14,5.57,5.57,0,0,1,0-9.49Z" transform="translate(-940.76 -245.39)" style="fill:none;stroke:#fff;stroke-miterlimit:22.925600000000003;stroke-width:0.2126px;fill-rule:evenodd"/><path d="M956.32,273.77a4.92,4.92,0,0,0,8.8,0,5,5,0,0,0,5.14-1,4.42,4.42,0,0,0,1.08-4.89,4.49,4.49,0,0,0,0-8.37,4.44,4.44,0,0,0-1.08-4.89,5,5,0,0,0-5.14-1,4.92,4.92,0,0,0-8.8,0,5,5,0,0,0-5.13,1,4.43,4.43,0,0,0-1.09,4.89,4.49,4.49,0,0,0,0,8.37,4.43,4.43,0,0,0,1.09,4.89A5,5,0,0,0,956.32,273.77Z" transform="translate(-940.76 -245.39)" style="fill:none;stroke:#fff;stroke-miterlimit:22.925600000000003;stroke-width:0.2126px;fill-rule:evenodd"/><line x1="19.13" y1="5.5" x2="18.92" y2="4.37" style="fill:none;stroke:#fff;stroke-miterlimit:22.925600000000003;stroke-width:0.2126px"/><line x1="19.96" y1="5.43" x2="19.96" y2="4.29" style="fill:none;stroke:#fff;stroke-miterlimit:22.925600000000003;stroke-width:0.2126px"/><line x1="20.8" y1="5.5" x2="21" y2="4.37" style="fill:none;stroke:#fff;stroke-miterlimit:22.925600000000003;stroke-width:0.2126px"/><line x1="21.61" y1="5.71" x2="22.02" y2="4.63" style="fill:none;stroke:#fff;stroke-miterlimit:22.925600000000003;stroke-width:0.2126px"/><line x1="22.37" y1="6.04" x2="22.97" y2="5.05" style="fill:none;stroke:#fff;stroke-miterlimit:22.925600000000003;stroke-width:0.2126px"/><line x1="23.05" y1="6.5" x2="23.83" y2="5.62" style="fill:none;stroke:#fff;stroke-miterlimit:22.925600000000003;stroke-width:0.2126px"/><line x1="23.65" y1="7.07" x2="24.57" y2="6.33" style="fill:none;stroke:#fff;stroke-miterlimit:22.925600000000003;stroke-width:0.2126px"/><line x1="18.32" y1="5.71" x2="17.9" y2="4.63" style="fill:none;stroke:#fff;stroke-miterlimit:22.925600000000003;stroke-width:0.2126px"/><line x1="17.56" y1="6.04" x2="16.95" y2="5.05" style="fill:none;stroke:#fff;stroke-miterlimit:22.925600000000003;stroke-width:0.2126px"/><line x1="16.87" y1="6.5" x2="16.1" y2="5.63" style="fill:none;stroke:#fff;stroke-miterlimit:22.925600000000003;stroke-width:0.2126px"/><line x1="16.28" y1="7.07" x2="15.35" y2="6.33" style="fill:none;stroke:#fff;stroke-miterlimit:22.925600000000003;stroke-width:0.2126px"/><line x1="9.89" y1="9.8" x2="8.91" y2="9.15" style="fill:none;stroke:#fff;stroke-miterlimit:22.925600000000003;stroke-width:0.2126px"/><line x1="10.43" y1="9.19" x2="9.58" y2="8.38" style="fill:none;stroke:#fff;stroke-miterlimit:22.925600000000003;stroke-width:0.2126px"/><line x1="11.07" y1="8.68" x2="10.38" y2="7.74" style="fill:none;stroke:#fff;stroke-miterlimit:22.925600000000003;stroke-width:0.2126px"/><line x1="11.8" y1="8.28" x2="11.29" y2="7.24" style="fill:none;stroke:#fff;stroke-miterlimit:22.925600000000003;stroke-width:0.2126px"/><line x1="12.59" y1="8.01" x2="12.27" y2="6.9" style="fill:none;stroke:#fff;stroke-miterlimit:22.925600000000003;stroke-width:0.2126px"/><line x1="13.41" y1="7.87" x2="13.31" y2="6.73" style="fill:none;stroke:#fff;stroke-miterlimit:22.925600000000003;stroke-width:0.2126px"/><line x1="14.25" y1="7.87" x2="14.35" y2="6.73" style="fill:none;stroke:#fff;stroke-miterlimit:22.925600000000003;stroke-width:0.2126px"/><line x1="9.47" y1="10.49" x2="8.38" y2="10.01" style="fill:none;stroke:#fff;stroke-miterlimit:22.925600000000003;stroke-width:0.2126px"/><line x1="9.18" y1="11.24" x2="8.02" y2="10.95" style="fill:none;stroke:#fff;stroke-miterlimit:22.925600000000003;stroke-width:0.2126px"/><line x1="9.04" y1="12.03" x2="7.84" y2="11.93" style="fill:none;stroke:#fff;stroke-miterlimit:22.925600000000003;stroke-width:0.2126px"/><line x1="9.04" y1="12.83" x2="7.84" y2="12.93" style="fill:none;stroke:#fff;stroke-miterlimit:22.925600000000003;stroke-width:0.2126px"/><line x1="6.55" y1="19.07" x2="5.37" y2="19.26" style="fill:none;stroke:#fff;stroke-miterlimit:22.925600000000003;stroke-width:0.2126px"/><line x1="6.48" y1="18.27" x2="5.28" y2="18.27" style="fill:none;stroke:#fff;stroke-miterlimit:22.925600000000003;stroke-width:0.2126px"/><line x1="6.55" y1="17.47" x2="5.37" y2="17.28" style="fill:none;stroke:#fff;stroke-miterlimit:22.925600000000003;stroke-width:0.2126px"/><line x1="6.77" y1="16.7" x2="5.64" y2="16.31" style="fill:none;stroke:#fff;stroke-miterlimit:22.925600000000003;stroke-width:0.2126px"/><line x1="7.12" y1="15.98" x2="6.08" y2="15.41" style="fill:none;stroke:#fff;stroke-miterlimit:22.925600000000003;stroke-width:0.2126px"/><line x1="7.61" y1="15.33" x2="6.68" y2="14.59" style="fill:none;stroke:#fff;stroke-miterlimit:22.925600000000003;stroke-width:0.2126px"/><line x1="8.2" y1="14.76" x2="7.43" y2="13.88" style="fill:none;stroke:#fff;stroke-miterlimit:22.925600000000003;stroke-width:0.2126px"/><line x1="6.77" y1="19.84" x2="5.64" y2="20.23" style="fill:none;stroke:#fff;stroke-miterlimit:22.925600000000003;stroke-width:0.2126px"/><line x1="7.12" y1="20.56" x2="6.08" y2="21.13" style="fill:none;stroke:#fff;stroke-miterlimit:22.925600000000003;stroke-width:0.2126px"/><line x1="7.61" y1="21.21" x2="6.68" y2="21.95" style="fill:none;stroke:#fff;stroke-miterlimit:22.925600000000003;stroke-width:0.2126px"/><line x1="8.2" y1="21.78" x2="7.43" y2="22.66" style="fill:none;stroke:#fff;stroke-miterlimit:22.925600000000003;stroke-width:0.2126px"/><line x1="11.07" y1="27.86" x2="10.38" y2="28.8" style="fill:none;stroke:#fff;stroke-miterlimit:22.925600000000003;stroke-width:0.2126px"/><line x1="10.43" y1="27.35" x2="9.58" y2="28.16" style="fill:none;stroke:#fff;stroke-miterlimit:22.925600000000003;stroke-width:0.2126px"/><line x1="9.89" y1="26.74" x2="8.91" y2="27.39" style="fill:none;stroke:#fff;stroke-miterlimit:22.925600000000003;stroke-width:0.2126px"/><line x1="9.47" y1="26.04" x2="8.38" y2="26.53" style="fill:none;stroke:#fff;stroke-miterlimit:22.925600000000003;stroke-width:0.2126px"/><line x1="9.18" y1="25.29" x2="8.02" y2="25.59" style="fill:none;stroke:#fff;stroke-miterlimit:22.925600000000003;stroke-width:0.2126px"/><line x1="9.04" y1="24.51" x2="7.84" y2="24.61" style="fill:none;stroke:#fff;stroke-miterlimit:22.925600000000003;stroke-width:0.2126px"/><line x1="9.04" y1="23.71" x2="7.84" y2="23.61" style="fill:none;stroke:#fff;stroke-miterlimit:22.925600000000003;stroke-width:0.2126px"/><line x1="11.8" y1="28.26" x2="11.29" y2="29.3" style="fill:none;stroke:#fff;stroke-miterlimit:22.925600000000003;stroke-width:0.2126px"/><line x1="12.59" y1="28.53" x2="12.27" y2="29.64" style="fill:none;stroke:#fff;stroke-miterlimit:22.925600000000003;stroke-width:0.2126px"/><line x1="13.41" y1="28.67" x2="13.31" y2="29.81" style="fill:none;stroke:#fff;stroke-miterlimit:22.925600000000003;stroke-width:0.2126px"/><line x1="14.25" y1="28.67" x2="14.35" y2="29.81" style="fill:none;stroke:#fff;stroke-miterlimit:22.925600000000003;stroke-width:0.2126px"/><line x1="20.8" y1="31.04" x2="21.01" y2="32.17" style="fill:none;stroke:#fff;stroke-miterlimit:22.925600000000003;stroke-width:0.2126px"/><line x1="19.96" y1="31.11" x2="19.96" y2="32.25" style="fill:none;stroke:#fff;stroke-miterlimit:22.925600000000003;stroke-width:0.2126px"/><line x1="19.13" y1="31.04" x2="18.92" y2="32.17" style="fill:none;stroke:#fff;stroke-miterlimit:22.925600000000003;stroke-width:0.2126px"/><line x1="18.32" y1="30.83" x2="17.9" y2="31.91" style="fill:none;stroke:#fff;stroke-miterlimit:22.925600000000003;stroke-width:0.2126px"/><line x1="17.56" y1="30.49" x2="16.96" y2="31.49" style="fill:none;stroke:#fff;stroke-miterlimit:22.925600000000003;stroke-width:0.2126px"/><line x1="16.87" y1="30.04" x2="16.1" y2="30.91" style="fill:none;stroke:#fff;stroke-miterlimit:22.925600000000003;stroke-width:0.2126px"/><line x1="16.28" y1="29.47" x2="15.36" y2="30.21" style="fill:none;stroke:#fff;stroke-miterlimit:22.925600000000003;stroke-width:0.2126px"/><line x1="21.61" y1="30.83" x2="22.02" y2="31.91" style="fill:none;stroke:#fff;stroke-miterlimit:22.925600000000003;stroke-width:0.2126px"/><line x1="22.37" y1="30.49" x2="22.97" y2="31.49" style="fill:none;stroke:#fff;stroke-miterlimit:22.925600000000003;stroke-width:0.2126px"/><line x1="23.05" y1="30.04" x2="23.83" y2="30.91" style="fill:none;stroke:#fff;stroke-miterlimit:22.925600000000003;stroke-width:0.2126px"/><line x1="23.65" y1="29.47" x2="24.57" y2="30.21" style="fill:none;stroke:#fff;stroke-miterlimit:22.925600000000003;stroke-width:0.2126px"/><line x1="30.03" y1="26.74" x2="31.02" y2="27.39" style="fill:none;stroke:#fff;stroke-miterlimit:22.925600000000003;stroke-width:0.2126px"/><line x1="29.49" y1="27.35" x2="30.34" y2="28.16" style="fill:none;stroke:#fff;stroke-miterlimit:22.925600000000003;stroke-width:0.2126px"/><line x1="28.85" y1="27.86" x2="29.54" y2="28.8" style="fill:none;stroke:#fff;stroke-miterlimit:22.925600000000003;stroke-width:0.2126px"/><line x1="28.13" y1="28.26" x2="28.63" y2="29.3" style="fill:none;stroke:#fff;stroke-miterlimit:22.925600000000003;stroke-width:0.2126px"/><line x1="27.34" y1="28.53" x2="27.65" y2="29.64" style="fill:none;stroke:#fff;stroke-miterlimit:22.925600000000003;stroke-width:0.2126px"/><line x1="26.51" y1="28.67" x2="26.62" y2="29.81" style="fill:none;stroke:#fff;stroke-miterlimit:22.925600000000003;stroke-width:0.2126px"/><line x1="25.67" y1="28.67" x2="25.57" y2="29.81" style="fill:none;stroke:#fff;stroke-miterlimit:22.925600000000003;stroke-width:0.2126px"/><line x1="30.45" y1="26.04" x2="31.54" y2="26.53" style="fill:none;stroke:#fff;stroke-miterlimit:22.925600000000003;stroke-width:0.2126px"/><line x1="30.74" y1="25.29" x2="31.9" y2="25.59" style="fill:none;stroke:#fff;stroke-miterlimit:22.925600000000003;stroke-width:0.2126px"/><line x1="30.88" y1="24.51" x2="32.08" y2="24.61" style="fill:none;stroke:#fff;stroke-miterlimit:22.925600000000003;stroke-width:0.2126px"/><line x1="30.88" y1="23.71" x2="32.08" y2="23.61" style="fill:none;stroke:#fff;stroke-miterlimit:22.925600000000003;stroke-width:0.2126px"/><line x1="33.37" y1="17.47" x2="34.55" y2="17.27" style="fill:none;stroke:#fff;stroke-miterlimit:22.925600000000003;stroke-width:0.2126px"/><line x1="33.44" y1="18.27" x2="34.64" y2="18.27" style="fill:none;stroke:#fff;stroke-miterlimit:22.925600000000003;stroke-width:0.2126px"/><line x1="33.37" y1="19.06" x2="34.55" y2="19.26" style="fill:none;stroke:#fff;stroke-miterlimit:22.925600000000003;stroke-width:0.2126px"/><line x1="33.15" y1="19.84" x2="34.28" y2="20.23" style="fill:none;stroke:#fff;stroke-miterlimit:22.925600000000003;stroke-width:0.2126px"/><line x1="32.8" y1="20.56" x2="33.84" y2="21.13" style="fill:none;stroke:#fff;stroke-miterlimit:22.925600000000003;stroke-width:0.2126px"/><line x1="32.32" y1="21.21" x2="33.24" y2="21.95" style="fill:none;stroke:#fff;stroke-miterlimit:22.925600000000003;stroke-width:0.2126px"/><line x1="31.72" y1="21.78" x2="32.5" y2="22.66" style="fill:none;stroke:#fff;stroke-miterlimit:22.925600000000003;stroke-width:0.2126px"/><line x1="33.15" y1="16.7" x2="34.28" y2="16.31" style="fill:none;stroke:#fff;stroke-miterlimit:22.925600000000003;stroke-width:0.2126px"/><line x1="32.8" y1="15.98" x2="33.84" y2="15.41" style="fill:none;stroke:#fff;stroke-miterlimit:22.925600000000003;stroke-width:0.2126px"/><line x1="32.32" y1="15.33" x2="33.24" y2="14.59" style="fill:none;stroke:#fff;stroke-miterlimit:22.925600000000003;stroke-width:0.2126px"/><line x1="31.72" y1="14.76" x2="32.5" y2="13.88" style="fill:none;stroke:#fff;stroke-miterlimit:22.925600000000003;stroke-width:0.2126px"/><line x1="28.85" y1="8.68" x2="29.54" y2="7.74" style="fill:none;stroke:#fff;stroke-miterlimit:22.925600000000003;stroke-width:0.2126px"/><line x1="29.49" y1="9.19" x2="30.34" y2="8.38" style="fill:none;stroke:#fff;stroke-miterlimit:22.925600000000003;stroke-width:0.2126px"/><line x1="30.03" y1="9.8" x2="31.02" y2="9.15" style="fill:none;stroke:#fff;stroke-miterlimit:22.925600000000003;stroke-width:0.2126px"/><line x1="30.45" y1="10.49" x2="31.54" y2="10.01" style="fill:none;stroke:#fff;stroke-miterlimit:22.925600000000003;stroke-width:0.2126px"/><line x1="30.74" y1="11.24" x2="31.9" y2="10.95" style="fill:none;stroke:#fff;stroke-miterlimit:22.925600000000003;stroke-width:0.2126px"/><line x1="30.88" y1="12.03" x2="32.08" y2="11.93" style="fill:none;stroke:#fff;stroke-miterlimit:22.925600000000003;stroke-width:0.2126px"/><line x1="30.88" y1="12.83" x2="32.08" y2="12.93" style="fill:none;stroke:#fff;stroke-miterlimit:22.925600000000003;stroke-width:0.2126px"/><line x1="28.13" y1="8.28" x2="28.63" y2="7.24" style="fill:none;stroke:#fff;stroke-miterlimit:22.925600000000003;stroke-width:0.2126px"/><line x1="27.34" y1="8.01" x2="27.65" y2="6.9" style="fill:none;stroke:#fff;stroke-miterlimit:22.925600000000003;stroke-width:0.2126px"/><line x1="26.51" y1="7.87" x2="26.62" y2="6.73" style="fill:none;stroke:#fff;stroke-miterlimit:22.925600000000003;stroke-width:0.2126px"/><line x1="25.67" y1="7.87" x2="25.57" y2="6.73" style="fill:none;stroke:#fff;stroke-miterlimit:22.925600000000003;stroke-width:0.2126px"/><line x1="14.98" y1="6.81" x2="15.56" y2="8.16" style="fill:none;stroke:#fff;stroke-miterlimit:22.925600000000003;stroke-width:0.2126px"/><line x1="24.95" y1="6.81" x2="24.36" y2="8.16" style="fill:none;stroke:#fff;stroke-miterlimit:22.925600000000003;stroke-width:0.2126px"/><line x1="32" y1="13.52" x2="30.58" y2="14.08" style="fill:none;stroke:#fff;stroke-miterlimit:22.925600000000003;stroke-width:0.2126px"/><line x1="7.93" y1="13.52" x2="9.34" y2="14.08" style="fill:none;stroke:#fff;stroke-miterlimit:22.925600000000003;stroke-width:0.2126px"/><line x1="7.93" y1="23.02" x2="9.34" y2="22.46" style="fill:none;stroke:#fff;stroke-miterlimit:22.925600000000003;stroke-width:0.2126px"/><line x1="15.56" y1="28.38" x2="14.98" y2="29.73" style="fill:none;stroke:#fff;stroke-miterlimit:22.925600000000003;stroke-width:0.2126px"/><line x1="24.36" y1="28.38" x2="24.95" y2="29.73" style="fill:none;stroke:#fff;stroke-miterlimit:22.925600000000003;stroke-width:0.2126px"/><line x1="30.58" y1="22.46" x2="32" y2="23.02" style="fill:none;stroke:#fff;stroke-miterlimit:22.925600000000003;stroke-width:0.2126px"/><path d="M953.72,268.16l.78,1.62a19.87,19.87,0,0,1,12,0l.84-1.4c-1.66.06-2.13-.47-2.59-1.6a2.56,2.56,0,0,1-4.06-.69c-1.39,1.72-2.77,1.79-4.14.32a2.35,2.35,0,0,1-2.8,1.8Zm5.53-7.09c-.15-1.51,2.71-1.64,2.76,0-.44,0-1.32-.15-1.24.53h-.29c0-.66-.52-.52-1.23-.51Zm3.33.82h0A1.06,1.06,0,0,0,961,262v2.85c.76,1.63,2.65,2,4.06,0,.23,2.64,1.9,3.19,4.32,1.79l-2.53,4.1c-5.1-1.28-7.65-1.36-12.8,0l-2.38-4.2c2.43,1.06,3.65.85,4.57-1.84,1,1.74,3,2.25,3.87,0V262c-.33-.45-.8-.52-1.44-.1-.6-3.76,4.57-3.52,3.88,0Zm-5.87,5.51a.73.73,0,0,1,.38,1c.21-.42.42-.48.94-.46-.15,1.27-2,1.32-2.33.43a.79.79,0,0,1,1,.1c-.43-.31-.15-.86,0-1Zm3.89-.31a.72.72,0,0,1,.2,1c.28-.37.5-.4,1-.29-.38,1.23-2.26.94-2.37,0a.76.76,0,0,1,1,.26c-.36-.38,0-.87.2-1Zm3.87.38a.71.71,0,0,1,0,1c.35-.3.57-.29,1-.08-.63,1.13-2.41.47-2.32-.45a.76.76,0,0,1,.88.46c-.27-.45.2-.86.4-.95Zm4-1.46h0l1-.77,1.05.74-.38-1.22,1-.79h-1.33l-.39-1.13-.39,1.13h-1.3l1,.79-.4,1.25Zm-1.21-4.54h0l1-.77,1.06.75-.38-1.22,1-.8H968.7l-.39-1.13-.38,1.13h-1.3l1,.8-.41,1.24ZM964,258.28h0l1-.77,1.05.74L965.7,257l1-.8h-1.33l-.39-1.12-.39,1.12h-1.3l1,.8-.41,1.25Zm-4.29-1.37.41-1.25-1.05-.8h1.3l.39-1.12.39,1.12h1.33l-1,.8.37,1.22-1-.74-1,.77Zm-4.22,1.17.41-1.25-1-.79h1.3l.39-1.13.39,1.13h1.33l-1,.79.38,1.22-1.05-.74-1,.77Zm-3.29,3.33h0l1.05-.77,1.06.74-.38-1.22,1-.79h-1.33l-.39-1.13-.38,1.13h-1.3l1,.79-.41,1.25Zm-1.34,4.37h0l1-.77,1.06.74-.38-1.22,1-.79h-1.33l-.39-1.13-.38,1.13h-1.3l1,.79Z" transform="translate(-940.76 -245.39)" style="fill:#ac8734;fill-rule:evenodd"/></svg>