<svg id="Слой_1" data-name="Слой 1" xmlns="http://www.w3.org/2000/svg" xmlns:xlink="http://www.w3.org/1999/xlink" viewBox="0 0 241 156"><defs><style>.cls-1,.cls-13,.cls-5{fill:none;}.cls-2{clip-path:url(#clip-path);}.cls-3{clip-path:url(#clip-path-2);}.cls-4{clip-path:url(#clip-path-3);}.cls-13,.cls-5{stroke:#5b83c4;stroke-miterlimit:10;}.cls-5{stroke-width:0.25px;}.cls-6{clip-path:url(#clip-path-4);}.cls-7{fill:#1c2e47;}.cls-8{fill:#fff;}.cls-9{fill:#ff5a1e;}.cls-10{fill:#ff891f;}.cls-11{fill:#ffa300;}.cls-12{clip-path:url(#clip-path-5);}.cls-13{stroke-width:0.75px;}.cls-14{clip-path:url(#clip-path-6);}.cls-15{clip-path:url(#clip-path-7);}</style><clipPath id="clip-path"><rect class="cls-1" x="-271.5" y="0.5" width="240" height="155" rx="5.5" ry="5.5"/></clipPath><clipPath id="clip-path-2"><rect class="cls-1" x="-272" width="240.94" height="155.91"/></clipPath><clipPath id="clip-path-3"><path class="cls-1" d="M-278-21s-48.64,74,21.41,78S-170,3-104.82,26-28,28-22.12-5-278-21-278-21Z"/></clipPath><clipPath id="clip-path-4"><rect class="cls-1" x="0.5" y="0.5" width="240" height="155" rx="5.5" ry="5.5"/></clipPath><clipPath id="clip-path-5"><rect class="cls-1" x="0.03" y="0.05" width="240.94" height="155.91"/></clipPath><clipPath id="clip-path-6"><path class="cls-1" d="M77.53,119,98,107.57a14.09,14.09,0,0,1,13.13-.29h0a14.08,14.08,0,0,0,16.54-2.93l66.15-70.19c4.93-5.23,14-5.9,19.74-1.56L242,54.13l22,42.33-14.81,9.33A19.88,19.88,0,0,1,230.46,107L203.54,94.52a19.92,19.92,0,0,0-17.36.37l-65.94,34.05a20,20,0,0,1-16.35.8Z"/></clipPath><clipPath id="clip-path-7"><path class="cls-1" d="M28,156.5l70.09-7.34a44.37,44.37,0,0,1,11.23.26l3.45.53a42.7,42.7,0,0,0,18.34-1.15l21.13-6.46c14.1-4.31,31-5.71,47.12-3.88h0a124.3,124.3,0,0,0,37.91-1.56L259,132.48a116.6,116.6,0,0,1,12-1.77l34-3.25,2.5,47.5-219,17Z"/></clipPath></defs><title>Монтажная область 1 копия</title><g class="cls-2"><g class="cls-3"><g class="cls-4"><line class="cls-5" x1="-25.98" y1="-74.17" x2="1.63" y2="25.4"/><line class="cls-5" x1="-24.14" y1="-74.69" x2="3.47" y2="24.88"/><line class="cls-5" x1="-22.29" y1="-75.21" x2="5.32" y2="24.36"/><line class="cls-5" x1="-20.45" y1="-75.73" x2="7.16" y2="23.84"/><line class="cls-5" x1="-18.6" y1="-76.25" x2="9.01" y2="23.32"/><line class="cls-5" x1="-16.76" y1="-76.77" x2="10.85" y2="22.8"/><line class="cls-5" x1="-14.91" y1="-77.29" x2="12.7" y2="22.28"/><line class="cls-5" x1="-13.07" y1="-77.81" x2="14.54" y2="21.76"/><line class="cls-5" x1="-11.22" y1="-78.33" x2="16.39" y2="21.24"/><line class="cls-5" x1="-9.38" y1="-78.85" x2="18.23" y2="20.72"/><line class="cls-5" x1="-7.53" y1="-79.37" x2="20.08" y2="20.2"/><line class="cls-5" x1="-5.69" y1="-79.89" x2="21.92" y2="19.68"/><line class="cls-5" x1="-3.84" y1="-80.4" x2="23.77" y2="19.16"/></g></g></g><g class="cls-6"><rect class="cls-7" x="0.03" y="0.05" width="240.94" height="155.91"/><path class="cls-8" d="M66.67,22.15a3.5,3.5,0,1,1,3.5,3.36A3.35,3.35,0,0,1,66.67,22.15Zm6,0a2.56,2.56,0,1,0-2.55,2.53A2.47,2.47,0,0,0,72.72,22.15Z"/><path class="cls-8" d="M79.54,23a2.37,2.37,0,0,1-2.44,2.53,2.12,2.12,0,0,1-1.76-.79v2.56h-.91V23A2.43,2.43,0,0,1,77,20.42,2.4,2.4,0,0,1,79.54,23Zm-.89,0a1.67,1.67,0,1,0-3.33,0,1.67,1.67,0,1,0,3.33,0Z"/><path class="cls-8" d="M84.16,24c0,.9-1,1.51-2.32,1.51a3.81,3.81,0,0,1-2-.56l.27-.69a3.35,3.35,0,0,0,1.75.48c.84,0,1.4-.31,1.4-.81s-.43-.73-1.17-.73h-.91v-.64H82c.67,0,1.09-.25,1.09-.67s-.51-.71-1.27-.71a3.76,3.76,0,0,0-1.57.38L80,20.86a4.08,4.08,0,0,1,1.9-.46c1.21,0,2.11.54,2.11,1.35a1.22,1.22,0,0,1-.9,1.1A1.19,1.19,0,0,1,84.16,24Z"/><path class="cls-8" d="M89.77,20.46v4.3c0,1.76-.84,2.55-2.44,2.55a3.42,3.42,0,0,1-2.27-.74l.45-.69a2.66,2.66,0,0,0,1.77.64c1.1,0,1.58-.54,1.58-1.67v-.36a2,2,0,0,1-1.64.74,2,2,0,0,1-2.14-2.16V20.46H86V23c0,1,.49,1.45,1.35,1.45a1.46,1.46,0,0,0,1.53-1.65V20.46Z"/><circle class="cls-9" cx="55.5" cy="78" r="21.53"/><circle class="cls-10" cx="55.5" cy="78" r="17.84"/><circle class="cls-11" cx="55.5" cy="78" r="14.15"/><path class="cls-8" d="M22.08,15.86a6.49,6.49,0,1,0,6.49,6.49,6.5,6.5,0,0,0-6.49-6.49m.75,9a4,4,0,0,1-2.62,1.5,3.49,3.49,0,0,0,1.47-1.47c.68-1.26.74-2.2,1.39-3a2.61,2.61,0,0,1,2.5-1,1.22,1.22,0,0,0-1.32-.8,1.32,1.32,0,0,0-1.85-.63,3.48,3.48,0,0,1-1.66.63h-.2a1.74,1.74,0,0,1-1-.5,1.36,1.36,0,0,0,.78,1.32,1.41,1.41,0,0,0,1.31-.06,6.56,6.56,0,0,1-2.49,3.12,4.1,4.1,0,0,1-2.3-3.37,5.51,5.51,0,0,1,10.72,1.81v.19a5.47,5.47,0,0,1-4.74,2.33"/><path class="cls-8" d="M41.37,22.89A1.54,1.54,0,0,1,41,24a1.32,1.32,0,0,1-1,.4,1.17,1.17,0,0,1-.89-.34,1.48,1.48,0,0,1-.31-1V20.58H37.56v2.64a2,2,0,0,0,2.22,2.27,2.35,2.35,0,0,0,.89-.17,1.85,1.85,0,0,0,.7-.49v.36A1.63,1.63,0,0,1,41,26.36a1.56,1.56,0,0,1-1.16.38,2.08,2.08,0,0,1-.82-.17,2.21,2.21,0,0,1-.8-.44l-.54.91a2.82,2.82,0,0,0,1,.54,3.56,3.56,0,0,0,1.18.19,2.38,2.38,0,0,0,2.67-2.72V20.58H41.37Z"/><polygon class="cls-8" points="49.2 20.58 47.28 23.79 45.45 20.58 44.19 20.58 44.19 25.72 45.29 25.72 45.29 22.3 46.99 25.18 47.51 25.18 49.24 22.31 49.24 25.72 50.33 25.72 50.32 20.58 49.2 20.58"/><path class="cls-8" d="M56.68,21.79a2.44,2.44,0,0,0-1-.93,2.9,2.9,0,0,0-1.42-.34,2.84,2.84,0,0,0-1.4.34,2.44,2.44,0,0,0-1,.93,2.82,2.82,0,0,0,0,2.72,2.53,2.53,0,0,0,1,.94,3,3,0,0,0,1.4.34,3,3,0,0,0,1.42-.34,2.53,2.53,0,0,0,1-.94,2.82,2.82,0,0,0,0-2.72m-1.3,2.52a1.56,1.56,0,0,1-2.19,0,1.61,1.61,0,0,1-.43-1.16A1.65,1.65,0,0,1,53.19,22a1.58,1.58,0,0,1,2.19,0,1.61,1.61,0,0,1,.43,1.17,1.57,1.57,0,0,1-.43,1.16"/><polygon class="cls-8" points="34.19 22.21 36.27 19.24 34.81 19.24 33.4 21.23 32 19.24 30.55 19.24 32.65 22.26 30.37 25.5 31.81 25.5 33.4 23.26 35 25.5 35.76 25.5 35.76 25.72 35.76 25.72 35.76 27.05 36.83 27.05 36.83 24.66 35.9 24.66 34.19 22.21"/><path class="cls-8" d="M18.81,136.9h.9v4.9H19l-2.7-3.32v3.32h-.91v-4.9h.75l2.71,3.32ZM20.28,138a1.17,1.17,0,0,1,1.29-1.14,1.15,1.15,0,1,1,0,2.28A1.18,1.18,0,0,1,20.28,138Zm.14,1.65h2.29v.56H20.42Zm.47-1.65a.68.68,0,1,0,.68-.65A.63.63,0,0,0,20.89,138Z"/><path class="cls-8" d="M29.18,139.26a2.33,2.33,0,0,1-2.4,2.61,2.47,2.47,0,0,1-1.29-.32l.33-.68a1.73,1.73,0,0,0,.94.23c.92,0,1.5-.57,1.5-1.68h0a1.67,1.67,0,0,1-1.31.51,1.54,1.54,0,0,1-1.69-1.5,1.64,1.64,0,0,1,1.8-1.59C28.39,136.83,29.18,137.69,29.18,139.26Zm-1.06-.89c0-.47-.36-.83-1-.83a.85.85,0,0,0-1,.83c0,.51.38.84,1,.84A.89.89,0,0,0,28.12,138.37Z"/><path class="cls-8" d="M33.57,139.26a2.33,2.33,0,0,1-2.4,2.61,2.47,2.47,0,0,1-1.29-.32l.33-.68a1.73,1.73,0,0,0,.94.23c.92,0,1.5-.57,1.5-1.68h0a1.67,1.67,0,0,1-1.31.51,1.54,1.54,0,0,1-1.69-1.5,1.64,1.64,0,0,1,1.8-1.59C32.78,136.83,33.57,137.69,33.57,139.26Zm-1.06-.89c0-.47-.36-.83-1-.83a.85.85,0,0,0-1,.83c0,.51.38.84,1,.84A.89.89,0,0,0,32.51,138.37Z"/><path class="cls-8" d="M38,139.26a2.33,2.33,0,0,1-2.41,2.61,2.43,2.43,0,0,1-1.28-.32l.33-.68a1.72,1.72,0,0,0,.93.23c.93,0,1.51-.57,1.51-1.68h0a1.67,1.67,0,0,1-1.31.51,1.53,1.53,0,0,1-1.69-1.5,1.63,1.63,0,0,1,1.8-1.59C37.17,136.83,38,137.69,38,139.26Zm-1.06-.89c0-.47-.36-.83-1-.83a.84.84,0,0,0-1,.83c0,.51.38.84,1,.84A.89.89,0,0,0,36.9,138.37Z"/><path class="cls-8" d="M42.14,140.29c0,.86-.63,1.58-1.94,1.58a3.06,3.06,0,0,1-1.85-.57l.39-.71a2.3,2.3,0,0,0,1.44.49c.65,0,1-.29,1-.75s-.3-.77-1.32-.77H38.72L39,136.9h2.88v.76H39.74l-.1,1.13h.46C41.55,138.79,42.14,139.42,42.14,140.29Z"/><rect class="cls-8" x="61.28" y="17.46" width="0.5" height="11"/><g class="cls-12"><path class="cls-13" d="M77.53,119,98,107.57a14.09,14.09,0,0,1,13.13-.29h0a14.08,14.08,0,0,0,16.54-2.93l66.15-70.19c4.93-5.23,14-5.9,19.74-1.56L242,54.13"/><path class="cls-13" d="M-12,125.46l14.84,5.36a20,20,0,0,0,14.51-.4l35-14.87a20,20,0,0,1,15.05-.19l36.44,14.38a20,20,0,0,0,16.35-.8l65.94-34a19.92,19.92,0,0,1,17.36-.37L230.46,107a19.88,19.88,0,0,0,18.76-1.17L264,96.46"/><g class="cls-14"><line class="cls-5" x1="60.98" y1="82.32" x2="78.59" y2="144.89"/><line class="cls-5" x1="62.83" y1="81.8" x2="80.44" y2="144.37"/><line class="cls-5" x1="64.67" y1="81.28" x2="82.28" y2="143.85"/><line class="cls-5" x1="66.52" y1="80.76" x2="84.13" y2="143.33"/><line class="cls-5" x1="68.36" y1="80.24" x2="85.97" y2="142.81"/><line class="cls-5" x1="70.21" y1="79.72" x2="87.82" y2="142.29"/><line class="cls-5" x1="72.05" y1="79.21" x2="89.66" y2="141.77"/><line class="cls-5" x1="73.9" y1="78.69" x2="91.51" y2="141.26"/><line class="cls-5" x1="75.74" y1="78.17" x2="93.35" y2="140.74"/><line class="cls-5" x1="77.59" y1="77.65" x2="95.2" y2="140.22"/><line class="cls-5" x1="79.43" y1="77.13" x2="97.04" y2="139.7"/><line class="cls-5" x1="81.28" y1="76.61" x2="98.89" y2="139.18"/><line class="cls-5" x1="83.12" y1="76.09" x2="100.73" y2="138.66"/><line class="cls-5" x1="84.96" y1="75.57" x2="102.58" y2="138.14"/><line class="cls-5" x1="86.81" y1="75.05" x2="104.42" y2="137.62"/><line class="cls-5" x1="88.65" y1="74.53" x2="106.27" y2="137.1"/><line class="cls-5" x1="90.5" y1="74.01" x2="108.11" y2="136.58"/><line class="cls-5" x1="92.34" y1="73.49" x2="109.96" y2="136.06"/><line class="cls-5" x1="94.19" y1="72.97" x2="111.8" y2="135.54"/><line class="cls-5" x1="96.03" y1="72.45" x2="113.64" y2="135.02"/><line class="cls-5" x1="97.88" y1="71.94" x2="115.49" y2="134.5"/><line class="cls-5" x1="99.72" y1="71.42" x2="117.33" y2="133.99"/><line class="cls-5" x1="101.57" y1="70.9" x2="119.18" y2="133.47"/><line class="cls-5" x1="103.41" y1="70.38" x2="121.02" y2="132.95"/><line class="cls-5" x1="105.26" y1="69.86" x2="122.87" y2="132.43"/><line class="cls-5" x1="107.1" y1="69.34" x2="124.71" y2="131.91"/><line class="cls-5" x1="108.95" y1="68.82" x2="126.56" y2="131.39"/><line class="cls-5" x1="110.79" y1="68.3" x2="128.4" y2="130.87"/><line class="cls-5" x1="112.64" y1="67.78" x2="130.25" y2="130.35"/><line class="cls-5" x1="114.48" y1="67.26" x2="132.09" y2="129.83"/><line class="cls-5" x1="116.33" y1="66.74" x2="133.94" y2="129.31"/><line class="cls-5" x1="118.17" y1="66.22" x2="135.78" y2="128.79"/><line class="cls-5" x1="120.02" y1="65.7" x2="137.63" y2="128.27"/><line class="cls-5" x1="121.86" y1="65.19" x2="139.47" y2="127.75"/><line class="cls-5" x1="123.71" y1="64.67" x2="141.32" y2="127.23"/><line class="cls-5" x1="125.55" y1="64.15" x2="143.16" y2="126.72"/><line class="cls-5" x1="127.4" y1="63.63" x2="145.01" y2="126.2"/><line class="cls-5" x1="129.24" y1="63.11" x2="146.85" y2="125.68"/><line class="cls-5" x1="131.09" y1="62.59" x2="148.7" y2="125.16"/><line class="cls-5" x1="132.93" y1="62.07" x2="150.54" y2="124.64"/><line class="cls-5" x1="134.78" y1="61.55" x2="152.39" y2="124.12"/><line class="cls-5" x1="136.62" y1="61.03" x2="154.23" y2="123.6"/><line class="cls-5" x1="138.47" y1="60.51" x2="156.08" y2="123.08"/><line class="cls-5" x1="140.31" y1="59.99" x2="157.92" y2="122.56"/><line class="cls-5" x1="142.16" y1="59.47" x2="159.77" y2="122.04"/><line class="cls-5" x1="144" y1="58.95" x2="161.61" y2="121.52"/><line class="cls-5" x1="145.85" y1="58.43" x2="163.46" y2="121"/><line class="cls-5" x1="147.69" y1="57.92" x2="165.3" y2="120.48"/><line class="cls-5" x1="149.54" y1="57.4" x2="167.15" y2="119.97"/><line class="cls-5" x1="151.38" y1="56.88" x2="168.99" y2="119.45"/><line class="cls-5" x1="153.23" y1="56.36" x2="170.84" y2="118.93"/><line class="cls-5" x1="155.07" y1="55.84" x2="172.68" y2="118.41"/><line class="cls-5" x1="156.92" y1="55.32" x2="174.53" y2="117.89"/><line class="cls-5" x1="158.76" y1="54.8" x2="176.37" y2="117.37"/><line class="cls-5" x1="160.61" y1="54.28" x2="178.22" y2="116.85"/><line class="cls-5" x1="162.45" y1="53.76" x2="180.06" y2="116.33"/><line class="cls-5" x1="164.3" y1="53.24" x2="181.91" y2="115.81"/><line class="cls-5" x1="166.14" y1="52.72" x2="183.75" y2="115.29"/><line class="cls-5" x1="167.99" y1="52.2" x2="185.6" y2="114.77"/><line class="cls-5" x1="169.83" y1="51.68" x2="187.44" y2="114.25"/><line class="cls-5" x1="171.68" y1="51.17" x2="189.29" y2="113.73"/><line class="cls-5" x1="173.52" y1="50.65" x2="191.13" y2="113.21"/><line class="cls-5" x1="175.37" y1="50.13" x2="192.98" y2="112.7"/><line class="cls-5" x1="177.21" y1="49.61" x2="194.82" y2="112.18"/><line class="cls-5" x1="173.98" y1="30.32" x2="201.59" y2="129.89"/><line class="cls-5" x1="175.83" y1="29.8" x2="203.44" y2="129.37"/><line class="cls-5" x1="177.67" y1="29.28" x2="205.28" y2="128.85"/><line class="cls-5" x1="179.52" y1="28.76" x2="207.13" y2="128.33"/><line class="cls-5" x1="181.36" y1="28.24" x2="208.97" y2="127.81"/><line class="cls-5" x1="183.21" y1="27.72" x2="210.82" y2="127.29"/><line class="cls-5" x1="185.05" y1="27.21" x2="212.66" y2="126.77"/><line class="cls-5" x1="186.9" y1="26.69" x2="214.51" y2="126.26"/><line class="cls-5" x1="188.74" y1="26.17" x2="216.35" y2="125.74"/><line class="cls-5" x1="190.59" y1="25.65" x2="218.2" y2="125.22"/><line class="cls-5" x1="192.43" y1="25.13" x2="220.04" y2="124.7"/><line class="cls-5" x1="194.28" y1="24.61" x2="221.89" y2="124.18"/><line class="cls-5" x1="196.12" y1="24.09" x2="223.73" y2="123.66"/><line class="cls-5" x1="197.96" y1="23.57" x2="225.58" y2="123.14"/><line class="cls-5" x1="199.81" y1="23.05" x2="227.42" y2="122.62"/><line class="cls-5" x1="201.65" y1="22.53" x2="229.27" y2="122.1"/><line class="cls-5" x1="203.5" y1="22.01" x2="231.11" y2="121.58"/><line class="cls-5" x1="205.34" y1="21.49" x2="232.96" y2="121.06"/><line class="cls-5" x1="207.19" y1="20.97" x2="234.8" y2="120.54"/><line class="cls-5" x1="209.03" y1="20.45" x2="236.64" y2="120.02"/><line class="cls-5" x1="210.88" y1="19.94" x2="238.49" y2="119.5"/><line class="cls-5" x1="212.72" y1="19.42" x2="240.33" y2="118.99"/><line class="cls-5" x1="214.57" y1="18.9" x2="242.18" y2="118.47"/><line class="cls-5" x1="216.41" y1="18.38" x2="244.02" y2="117.95"/><line class="cls-5" x1="218.26" y1="17.86" x2="245.87" y2="117.43"/><line class="cls-5" x1="220.1" y1="17.34" x2="247.71" y2="116.91"/><line class="cls-5" x1="221.95" y1="16.82" x2="249.56" y2="116.39"/><line class="cls-5" x1="223.79" y1="16.3" x2="251.4" y2="115.87"/><line class="cls-5" x1="225.64" y1="15.78" x2="253.25" y2="115.35"/><line class="cls-5" x1="227.48" y1="15.26" x2="255.09" y2="114.83"/><line class="cls-5" x1="229.33" y1="14.74" x2="256.94" y2="114.31"/><line class="cls-5" x1="231.17" y1="14.22" x2="258.78" y2="113.79"/><line class="cls-5" x1="233.02" y1="13.7" x2="260.63" y2="113.27"/><line class="cls-5" x1="234.86" y1="13.19" x2="262.47" y2="112.75"/><line class="cls-5" x1="236.71" y1="12.67" x2="264.32" y2="112.23"/><line class="cls-5" x1="238.55" y1="12.15" x2="266.16" y2="111.72"/><line class="cls-5" x1="240.4" y1="11.63" x2="268.01" y2="111.2"/></g><path class="cls-13" d="M28,156.5l70.09-7.34a44.37,44.37,0,0,1,11.23.26l3.45.53a42.7,42.7,0,0,0,18.34-1.15l21.13-6.46c14.1-4.31,31-5.71,47.12-3.88h0a124.3,124.3,0,0,0,37.91-1.56L259,132.48a116.6,116.6,0,0,1,12-1.77l34-3.25"/><g class="cls-15"><line class="cls-5" x1="31.98" y1="147.32" x2="49.59" y2="209.89"/><line class="cls-5" x1="33.83" y1="146.8" x2="51.44" y2="209.37"/><line class="cls-5" x1="35.67" y1="146.28" x2="53.28" y2="208.85"/><line class="cls-5" x1="37.52" y1="145.76" x2="55.13" y2="208.33"/><line class="cls-5" x1="39.36" y1="145.24" x2="56.97" y2="207.81"/><line class="cls-5" x1="41.21" y1="144.72" x2="58.82" y2="207.29"/><line class="cls-5" x1="43.05" y1="144.21" x2="60.66" y2="206.77"/><line class="cls-5" x1="44.9" y1="143.69" x2="62.51" y2="206.26"/><line class="cls-5" x1="46.74" y1="143.17" x2="64.35" y2="205.74"/><line class="cls-5" x1="48.59" y1="142.65" x2="66.2" y2="205.22"/><line class="cls-5" x1="50.43" y1="142.13" x2="68.04" y2="204.7"/><line class="cls-5" x1="52.28" y1="141.61" x2="69.89" y2="204.18"/><line class="cls-5" x1="54.12" y1="141.09" x2="71.73" y2="203.66"/><line class="cls-5" x1="55.96" y1="140.57" x2="73.58" y2="203.14"/><line class="cls-5" x1="57.81" y1="140.05" x2="75.42" y2="202.62"/><line class="cls-5" x1="59.65" y1="139.53" x2="77.27" y2="202.1"/><line class="cls-5" x1="61.5" y1="139.01" x2="79.11" y2="201.58"/><line class="cls-5" x1="63.34" y1="138.49" x2="80.96" y2="201.06"/><line class="cls-5" x1="65.19" y1="137.97" x2="82.8" y2="200.54"/><line class="cls-5" x1="67.03" y1="137.45" x2="84.64" y2="200.02"/><line class="cls-5" x1="68.88" y1="136.94" x2="86.49" y2="199.5"/><line class="cls-5" x1="70.72" y1="136.42" x2="88.33" y2="198.99"/><line class="cls-5" x1="72.57" y1="135.9" x2="90.18" y2="198.47"/><line class="cls-5" x1="74.41" y1="135.38" x2="92.02" y2="197.95"/><line class="cls-5" x1="76.26" y1="134.86" x2="93.87" y2="197.43"/><line class="cls-5" x1="78.1" y1="134.34" x2="95.71" y2="196.91"/><line class="cls-5" x1="79.95" y1="133.82" x2="97.56" y2="196.39"/><line class="cls-5" x1="81.79" y1="133.3" x2="99.4" y2="195.87"/><line class="cls-5" x1="83.64" y1="132.78" x2="101.25" y2="195.35"/><line class="cls-5" x1="85.48" y1="132.26" x2="103.09" y2="194.83"/><line class="cls-5" x1="87.33" y1="131.74" x2="104.94" y2="194.31"/><line class="cls-5" x1="89.17" y1="131.22" x2="106.78" y2="193.79"/><line class="cls-5" x1="91.02" y1="130.7" x2="108.63" y2="193.27"/><line class="cls-5" x1="92.86" y1="130.19" x2="110.47" y2="192.75"/><line class="cls-5" x1="94.71" y1="129.67" x2="112.32" y2="192.23"/><line class="cls-5" x1="96.55" y1="129.15" x2="114.16" y2="191.72"/><line class="cls-5" x1="98.4" y1="128.63" x2="116.01" y2="191.2"/><line class="cls-5" x1="100.24" y1="128.11" x2="117.85" y2="190.68"/><line class="cls-5" x1="102.09" y1="127.59" x2="119.7" y2="190.16"/><line class="cls-5" x1="103.93" y1="127.07" x2="121.54" y2="189.64"/><line class="cls-5" x1="105.78" y1="126.55" x2="123.39" y2="189.12"/><line class="cls-5" x1="107.62" y1="126.03" x2="125.23" y2="188.6"/><line class="cls-5" x1="109.47" y1="125.51" x2="127.08" y2="188.08"/><line class="cls-5" x1="111.31" y1="124.99" x2="128.92" y2="187.56"/><line class="cls-5" x1="113.16" y1="124.47" x2="130.77" y2="187.04"/><line class="cls-5" x1="115" y1="123.95" x2="132.61" y2="186.52"/><line class="cls-5" x1="116.85" y1="123.43" x2="134.46" y2="186"/><line class="cls-5" x1="118.69" y1="122.92" x2="136.3" y2="185.48"/><line class="cls-5" x1="120.54" y1="122.4" x2="138.15" y2="184.97"/><line class="cls-5" x1="122.38" y1="121.88" x2="139.99" y2="184.45"/><line class="cls-5" x1="124.23" y1="121.36" x2="141.84" y2="183.93"/><line class="cls-5" x1="126.07" y1="120.84" x2="143.68" y2="183.41"/><line class="cls-5" x1="127.92" y1="120.32" x2="145.53" y2="182.89"/><line class="cls-5" x1="129.76" y1="119.8" x2="147.37" y2="182.37"/><line class="cls-5" x1="131.61" y1="119.28" x2="149.22" y2="181.85"/><line class="cls-5" x1="133.45" y1="118.76" x2="151.06" y2="181.33"/><line class="cls-5" x1="135.3" y1="118.24" x2="152.91" y2="180.81"/><line class="cls-5" x1="137.14" y1="117.72" x2="154.75" y2="180.29"/><line class="cls-5" x1="138.99" y1="117.2" x2="156.6" y2="179.77"/><line class="cls-5" x1="140.83" y1="116.68" x2="158.44" y2="179.25"/><line class="cls-5" x1="142.68" y1="116.17" x2="160.29" y2="178.73"/><line class="cls-5" x1="144.52" y1="115.65" x2="162.13" y2="178.21"/><line class="cls-5" x1="146.37" y1="115.13" x2="163.98" y2="177.7"/><line class="cls-5" x1="148.21" y1="114.61" x2="165.82" y2="177.18"/><line class="cls-5" x1="154.98" y1="132.32" x2="172.59" y2="194.89"/><line class="cls-5" x1="156.83" y1="131.8" x2="174.44" y2="194.37"/><line class="cls-5" x1="158.67" y1="131.28" x2="176.28" y2="193.85"/><line class="cls-5" x1="160.52" y1="130.76" x2="178.13" y2="193.33"/><line class="cls-5" x1="162.36" y1="130.24" x2="179.97" y2="192.81"/><line class="cls-5" x1="164.21" y1="129.72" x2="181.82" y2="192.29"/><line class="cls-5" x1="166.05" y1="129.21" x2="183.66" y2="191.77"/><line class="cls-5" x1="167.9" y1="128.69" x2="185.51" y2="191.26"/><line class="cls-5" x1="169.74" y1="128.17" x2="187.35" y2="190.74"/><line class="cls-5" x1="171.59" y1="127.65" x2="189.2" y2="190.22"/><line class="cls-5" x1="173.43" y1="127.13" x2="191.04" y2="189.7"/><line class="cls-5" x1="175.28" y1="126.61" x2="192.89" y2="189.18"/><line class="cls-5" x1="177.12" y1="126.09" x2="194.73" y2="188.66"/><line class="cls-5" x1="178.96" y1="125.57" x2="196.58" y2="188.14"/><line class="cls-5" x1="180.81" y1="125.05" x2="198.42" y2="187.62"/><line class="cls-5" x1="182.65" y1="124.53" x2="200.27" y2="187.1"/><line class="cls-5" x1="184.5" y1="124.01" x2="202.11" y2="186.58"/><line class="cls-5" x1="186.34" y1="123.49" x2="203.96" y2="186.06"/><line class="cls-5" x1="188.19" y1="122.97" x2="205.8" y2="185.54"/><line class="cls-5" x1="190.03" y1="122.45" x2="207.64" y2="185.02"/><line class="cls-5" x1="191.88" y1="121.94" x2="209.49" y2="184.5"/><line class="cls-5" x1="193.72" y1="121.42" x2="211.33" y2="183.99"/><line class="cls-5" x1="195.57" y1="120.9" x2="213.18" y2="183.47"/><line class="cls-5" x1="197.41" y1="120.38" x2="215.02" y2="182.95"/><line class="cls-5" x1="199.26" y1="119.86" x2="216.87" y2="182.43"/><line class="cls-5" x1="201.1" y1="119.34" x2="218.71" y2="181.91"/><line class="cls-5" x1="202.95" y1="118.82" x2="220.56" y2="181.39"/><line class="cls-5" x1="204.79" y1="118.3" x2="222.4" y2="180.87"/><line class="cls-5" x1="206.64" y1="117.78" x2="224.25" y2="180.35"/><line class="cls-5" x1="208.48" y1="117.26" x2="226.09" y2="179.83"/><line class="cls-5" x1="210.33" y1="116.74" x2="227.94" y2="179.31"/><line class="cls-5" x1="212.17" y1="116.22" x2="229.78" y2="178.79"/><line class="cls-5" x1="214.02" y1="115.7" x2="231.63" y2="178.27"/><line class="cls-5" x1="215.86" y1="115.19" x2="233.47" y2="177.75"/><line class="cls-5" x1="217.71" y1="114.67" x2="235.32" y2="177.23"/><line class="cls-5" x1="219.55" y1="114.15" x2="237.16" y2="176.72"/><line class="cls-5" x1="221.4" y1="113.63" x2="239.01" y2="176.2"/><line class="cls-5" x1="223.24" y1="113.11" x2="240.85" y2="175.68"/><line class="cls-5" x1="225.09" y1="112.59" x2="242.7" y2="175.16"/><line class="cls-5" x1="226.93" y1="112.07" x2="244.54" y2="174.64"/><line class="cls-5" x1="228.78" y1="111.55" x2="246.39" y2="174.12"/><line class="cls-5" x1="230.62" y1="111.03" x2="248.23" y2="173.6"/><line class="cls-5" x1="232.47" y1="110.51" x2="250.08" y2="173.08"/><line class="cls-5" x1="234.31" y1="109.99" x2="251.92" y2="172.56"/><line class="cls-5" x1="236.16" y1="109.47" x2="253.77" y2="172.04"/><line class="cls-5" x1="238" y1="108.95" x2="255.61" y2="171.52"/><line class="cls-5" x1="239.85" y1="108.43" x2="257.46" y2="171"/></g></g></g></svg>