<svg width="340" height="209" viewBox="0 0 340 209" fill="none" xmlns="http://www.w3.org/2000/svg">
<g clip-path="url(#clip0)">
<rect width="340" height="209" rx="12" fill="#FFFBF5"/>
<rect x="16" y="47" width="100" height="104" rx="4" fill="#F0E6D6"/>
<mask id="mask0" style="mask-type:alpha" maskUnits="userSpaceOnUse" x="16" y="47" width="100" height="104">
<rect x="16" y="47" width="100" height="104" rx="4" fill="#C4C4C4"/>
</mask>
<g mask="url(#mask0)">
<path d="M35.854 144.901C38.2133 141.119 43.1926 139.964 46.9757 142.323C50.721 144.659 51.8898 149.562 49.6236 153.33L49.4902 153.548C48.9535 154.442 47.9258 156.532 46.8709 158.997L46.8275 159.098C45.3782 162.497 44.0187 166.236 42.9233 169.975C40.2142 179.222 39.4645 187.272 41.0625 192.521C42.3608 196.786 39.9556 201.295 35.6904 202.593C31.4252 203.892 26.915 201.487 25.6167 197.222C24.134 192.352 23.7778 186.876 24.3354 180.889C24.7938 175.966 25.867 170.768 27.4289 165.437C29.8145 157.295 33.469 148.725 35.854 144.901Z" fill="#F5D0C3"/>
<path d="M87.8371 141.816C91.6202 139.457 96.5996 140.611 98.9589 144.393C102.1 149.43 105.034 154.773 107.441 160.596C109.193 164.835 110.414 168.816 110.977 172.534C111.742 177.579 111.309 182.127 109.161 186.052C107.02 189.963 102.115 191.398 98.2035 189.258C94.3315 187.139 92.8858 182.311 94.934 178.42L94.9972 178.302C95.0032 178.291 95.0204 178.248 95.0439 178.165C95.087 178.012 95.1239 177.809 95.1481 177.555C95.2121 176.884 95.1734 176.005 95.014 174.952C94.671 172.689 93.8136 169.894 92.5191 166.762C90.5231 161.933 87.9682 157.279 85.2592 152.936C82.8999 149.153 84.054 144.175 87.8371 141.816Z" fill="#F5D0C3"/>
<path d="M34.3071 145.618C39.0119 136.694 46.7011 137.367 49.9683 137.705L43.8697 168.637L25.9922 162.798C26.9609 161.359 27.7056 161.535 28.0104 160.513C29.0364 157.073 30.6802 152.498 34.3071 145.618Z" fill="#F88B61"/>
<path d="M101.31 145.743C96.6048 136.819 88.9156 137.492 85.6484 137.83L91.7471 168.762L109.625 162.923C108.656 161.484 107.911 161.66 107.606 160.638C106.58 157.198 104.937 152.623 101.31 145.743Z" fill="#F88B61"/>
<path d="M43.7524 143.263C44.5419 138.415 48.6987 134.876 53.6123 134.83L68.8219 134.688L83.0501 135.954C87.6403 136.362 91.3946 139.805 92.1087 144.361C93.7281 154.692 96.3148 173.213 96.3148 186.108C96.3148 204.879 99.8484 206.674 94.3773 209.134C88.9064 211.593 45.1357 211.247 39.1596 207.434C33.1837 203.621 36.8994 199.648 36.8994 191.863C36.8994 186.098 41.4106 157.644 43.7524 143.263Z" fill="#F88B61"/>
<path d="M67.0011 152.05C72.3067 152.05 76.6077 147.238 76.6077 141.302C76.6077 135.367 72.3067 130.555 67.0011 130.555C61.6956 130.555 57.3945 135.367 57.3945 141.302C57.3945 147.238 61.6956 152.05 67.0011 152.05Z" fill="#535D66"/>
<path d="M61.268 151.712C56.1014 150.629 44.961 138.849 50.7734 132.755C54.4869 127.678 60.4607 134.448 61.268 137.833C61.9138 140.541 63.6898 147.199 64.82 149.004C66.1117 150.302 66.4346 152.795 61.268 151.712Z" fill="#F88B61"/>
<path d="M73.5391 151.675C78.7057 150.592 89.8461 138.812 84.0337 132.718C80.3203 127.641 74.3464 134.411 73.5391 137.796C72.8933 140.504 71.1173 147.162 69.9871 148.967C68.6955 150.265 68.3726 152.758 73.5391 151.675Z" fill="#F88B61"/>
<path d="M59.3333 147.027C59.9445 147.027 60.4424 147.512 60.4628 148.119L60.4635 148.157V171.094C60.4635 171.718 59.9575 172.224 59.3333 172.224C58.7221 172.224 58.2243 171.739 58.2038 171.133L58.2031 171.094V148.157C58.2031 147.533 58.7091 147.027 59.3333 147.027Z" fill="#007BA1"/>
<path d="M75.1536 147.027C75.7648 147.027 76.2627 147.512 76.2832 148.119L76.2838 148.157V174.561C76.2838 175.185 75.7778 175.691 75.1536 175.691C74.5424 175.691 74.0446 175.206 74.0241 174.6L74.0234 174.561V148.157C74.0234 147.533 74.5294 147.027 75.1536 147.027Z" fill="#007BA1"/>
<rect x="60.9023" y="129.203" width="12.9164" height="19.5127" rx="6.45822" fill="#EBBAAA"/>
<path d="M43.2155 115.472C48.3935 115.472 52.5911 111.298 52.5911 106.149C52.5911 101 48.3935 96.8262 43.2155 96.8262C38.0375 96.8262 33.8398 101 33.8398 106.149C33.8398 111.298 38.0375 115.472 43.2155 115.472Z" fill="#EBBAAA"/>
<path d="M91.9733 116.194C97.1513 116.194 101.349 112.02 101.349 106.872C101.349 101.723 97.1513 97.5488 91.9733 97.5488C86.7953 97.5488 82.5977 101.723 82.5977 106.872C82.5977 112.02 86.7953 116.194 91.9733 116.194Z" fill="#EBBAAA"/>
<path d="M39.8164 86.5659C40.2431 79.0218 45.7654 72.7434 53.1943 71.3569L63.2647 69.4772C67.0773 68.7656 70.993 68.813 74.7872 69.6169L94.1461 73.7184L96.568 98.3497V109.282C96.568 124.952 83.8637 137.655 68.1922 137.655C52.5207 137.655 39.8164 124.952 39.8164 109.282V86.5659Z" fill="#F4D4CA"/>
<path d="M56.9346 100.07C58.0146 100.07 58.8931 100.933 58.919 102.006L58.9196 102.055L58.9195 106.815C58.9194 107.911 58.0306 108.8 56.9343 108.8C55.8543 108.8 54.9758 107.937 54.9498 106.864L54.9492 106.815L54.9494 102.055C54.9494 100.959 55.8382 100.07 56.9346 100.07Z" fill="black"/>
<path d="M77.2393 100.07C78.3192 100.07 79.1978 100.933 79.2237 102.006L79.2243 102.055L79.2241 106.815C79.2241 107.911 78.3353 108.8 77.239 108.8C76.159 108.8 75.2804 107.937 75.2545 106.864L75.2539 106.815L75.2541 102.055C75.2541 100.959 76.1429 100.07 77.2393 100.07Z" fill="black"/>
<path d="M62.3982 119.897C62.6656 119.284 63.3794 119.004 63.9923 119.271L64.1233 119.327C66.2565 120.228 68.083 120.24 72.2584 119.206C72.9076 119.045 73.5642 119.441 73.725 120.09C73.8858 120.739 73.4899 121.395 72.8408 121.556C68.104 122.729 65.7624 122.685 63.0239 121.491C62.4109 121.223 62.1308 120.51 62.3982 119.897Z" fill="#C99584"/>
<path d="M49.1688 94.0204C49.2414 92.9695 50.1395 92.1725 51.1861 92.2187L51.2353 92.2215L60.5359 92.8646C61.6034 92.9385 62.4089 93.8636 62.3351 94.9309C62.2624 95.9818 61.3643 96.7788 60.3177 96.7326L60.2686 96.7298L50.9679 96.0867C49.9004 96.0129 49.0949 95.0878 49.1688 94.0204Z" fill="#272727"/>
<path d="M83.5642 91.8946C84.631 91.8116 85.5631 92.609 85.6461 93.6757C85.7278 94.726 84.9559 95.6457 83.9138 95.7529L83.8648 95.7574L74.7089 96.4696C73.6421 96.5526 72.71 95.7552 72.627 94.6885C72.5453 93.6382 73.3172 92.7186 74.3593 92.6113L74.4084 92.6069L83.5642 91.8946Z" fill="#272727"/>
<path d="M79.0477 75.7159C90.0267 79.2702 91.7473 79.8626 92.61 84.3479C94.0108 91.6326 97.6327 89.5921 98.0188 81.5551C94.7265 58.1105 76.303 56.0821 72.2666 58.4517C67.423 61.2952 65.951 71.4759 79.0477 75.7159Z" fill="#484A4B"/>
<path d="M98.0192 81.9142C98.0192 80.0776 95.3404 82.6609 94.1183 84.0319L93.6761 84.5282C93.2082 85.0533 93.0125 85.7669 93.1471 86.4573L95.8053 100.083C95.8633 100.38 96.1236 100.595 96.4261 100.595C96.7662 100.595 97.0455 100.326 97.0582 99.986L98.0192 81.9142Z" fill="#484A4B"/>
<path d="M85.9744 77.5767C71.4434 72.1606 44.2533 80.2002 41.5086 83.5853C40.1076 90.8701 38.0221 88.2398 37.6992 80.7107C41.0898 59.9741 60.4836 49.4699 82.4224 57.9431C94.693 62.6823 97.9221 73.5146 85.9744 77.5767Z" fill="#272727"/>
<path d="M37.8594 68.8592C42.3801 69.3669 43.2681 68.1539 45.8514 66.5742V70.6364L44.0754 74.3599C41.1692 74.3599 39.151 73.5983 37.8594 68.8592Z" fill="#272727"/>
<path d="M34.3086 73.4295C38.8293 73.9372 39.7173 72.7242 42.3006 71.1445V75.2067L40.5246 78.9302C37.6184 78.9302 35.6002 78.1685 34.3086 73.4295Z" fill="#272727"/>
<path d="M50.4581 69.2832C50.017 75.2322 49.9844 82.0179 49.9844 82.0179L58.8686 75.697C58.8686 75.697 54.2497 74.4886 50.4581 69.2832Z" fill="#272727"/>
<path d="M45.4542 71.1914C45.0131 77.1406 44.9805 83.9262 44.9805 83.9262L51.1158 78.4695C51.1158 78.4695 49.2458 76.3969 45.4542 71.1914Z" fill="#272727"/>
<path d="M56.095 67.4219C55.6537 73.371 55.6211 80.1565 55.6211 80.1565L64.5053 73.8357C64.5053 73.8357 59.8866 72.6272 56.095 67.4219Z" fill="#272727"/>
<path d="M37.3931 77.0431C37.5608 75.039 40.09 74.2675 41.3481 75.8365C41.7009 76.2767 41.8735 76.8343 41.8309 77.3969L40.0766 100.547C40.0527 100.861 39.7909 101.104 39.4759 101.104C39.1907 101.104 38.9448 100.904 38.8862 100.625L36.6045 89.7507C36.4741 89.1287 36.4347 88.491 36.4876 87.8577L37.3931 77.0431Z" fill="#272727"/>
<path d="M65.4318 105.781L67.9291 106.92L67.6058 107.619C67.4643 107.928 67.3446 108.199 67.2312 108.472C66.909 109.248 66.6759 109.949 66.544 110.588C66.3475 111.54 66.4026 112.239 66.6742 112.649C66.9868 113.12 67.7233 113.43 69.1199 113.441L69.1982 113.441V116.186C66.9107 116.186 65.2806 115.514 64.386 114.164C63.6363 113.033 63.5258 111.633 63.8559 110.034C64.0279 109.2 64.3129 108.343 64.6964 107.419C64.7921 107.189 64.8905 106.963 64.9988 106.722L65.1871 106.31L65.4318 105.781Z" fill="#EBBAAA"/>
</g>
<rect x="16" y="47" width="100" height="104" rx="4" fill="#F0E6D6"/>
<mask id="mask1" style="mask-type:alpha" maskUnits="userSpaceOnUse" x="16" y="47" width="100" height="104">
<rect x="16" y="47" width="100" height="104" rx="4" fill="#C4C4C4"/>
</mask>
<g mask="url(#mask1)">
<path d="M35.854 144.901C38.2133 141.119 43.1926 139.964 46.9757 142.323C50.721 144.659 51.8898 149.562 49.6236 153.33L49.4902 153.548C48.9535 154.442 47.9258 156.532 46.8709 158.997L46.8275 159.098C45.3782 162.497 44.0187 166.236 42.9233 169.975C40.2142 179.222 39.4645 187.272 41.0625 192.521C42.3608 196.786 39.9556 201.295 35.6904 202.593C31.4252 203.892 26.915 201.487 25.6167 197.222C24.134 192.352 23.7778 186.876 24.3354 180.889C24.7938 175.966 25.867 170.768 27.4289 165.437C29.8145 157.295 33.469 148.725 35.854 144.901Z" fill="#F5D0C3"/>
<path d="M87.8371 141.816C91.6202 139.457 96.5996 140.611 98.9589 144.393C102.1 149.43 105.034 154.773 107.441 160.596C109.193 164.835 110.414 168.816 110.977 172.534C111.742 177.579 111.309 182.127 109.161 186.052C107.02 189.963 102.115 191.398 98.2035 189.258C94.3315 187.139 92.8858 182.311 94.934 178.42L94.9972 178.302C95.0032 178.291 95.0204 178.248 95.0439 178.165C95.087 178.012 95.1239 177.809 95.1481 177.555C95.2121 176.884 95.1734 176.005 95.014 174.952C94.671 172.689 93.8136 169.894 92.5191 166.762C90.5231 161.933 87.9682 157.279 85.2592 152.936C82.8999 149.153 84.054 144.175 87.8371 141.816Z" fill="#F5D0C3"/>
<path d="M34.3071 145.618C39.0119 136.694 46.7011 137.367 49.9683 137.705L43.8697 168.637L25.9922 162.798C26.9609 161.359 27.7056 161.535 28.0104 160.513C29.0364 157.073 30.6802 152.498 34.3071 145.618Z" fill="#F88B61"/>
<path d="M101.31 145.743C96.6048 136.819 88.9156 137.492 85.6484 137.83L91.7471 168.762L109.625 162.923C108.656 161.484 107.911 161.66 107.606 160.638C106.58 157.198 104.937 152.623 101.31 145.743Z" fill="#F88B61"/>
<path d="M43.7524 143.263C44.5419 138.415 48.6987 134.876 53.6123 134.83L68.8219 134.688L83.0501 135.954C87.6403 136.362 91.3946 139.805 92.1087 144.361C93.7281 154.692 96.3148 173.213 96.3148 186.108C96.3148 204.879 99.8484 206.674 94.3773 209.134C88.9064 211.593 45.1357 211.247 39.1596 207.434C33.1837 203.621 36.8994 199.648 36.8994 191.863C36.8994 186.098 41.4106 157.644 43.7524 143.263Z" fill="#F88B61"/>
<path d="M67.0011 152.05C72.3067 152.05 76.6077 147.238 76.6077 141.302C76.6077 135.367 72.3067 130.555 67.0011 130.555C61.6956 130.555 57.3945 135.367 57.3945 141.302C57.3945 147.238 61.6956 152.05 67.0011 152.05Z" fill="#535D66"/>
<path d="M61.268 151.712C56.1014 150.629 44.961 138.849 50.7734 132.755C54.4869 127.678 60.4607 134.448 61.268 137.833C61.9138 140.541 63.6898 147.199 64.82 149.004C66.1117 150.302 66.4346 152.795 61.268 151.712Z" fill="#F88B61"/>
<path d="M73.5391 151.675C78.7057 150.592 89.8461 138.812 84.0337 132.718C80.3203 127.641 74.3464 134.411 73.5391 137.796C72.8933 140.504 71.1173 147.162 69.9871 148.967C68.6955 150.265 68.3726 152.758 73.5391 151.675Z" fill="#F88B61"/>
<path d="M59.3333 147.027C59.9445 147.027 60.4424 147.512 60.4628 148.119L60.4635 148.157V171.094C60.4635 171.718 59.9575 172.224 59.3333 172.224C58.7221 172.224 58.2243 171.739 58.2038 171.133L58.2031 171.094V148.157C58.2031 147.533 58.7091 147.027 59.3333 147.027Z" fill="#007BA1"/>
<path d="M75.1536 147.027C75.7648 147.027 76.2627 147.512 76.2832 148.119L76.2838 148.157V174.561C76.2838 175.185 75.7778 175.691 75.1536 175.691C74.5424 175.691 74.0446 175.206 74.0241 174.6L74.0234 174.561V148.157C74.0234 147.533 74.5294 147.027 75.1536 147.027Z" fill="#007BA1"/>
<rect x="60.9023" y="129.203" width="12.9164" height="19.5127" rx="6.45822" fill="#EBBAAA"/>
<path d="M43.2155 115.472C48.3935 115.472 52.5911 111.298 52.5911 106.149C52.5911 101 48.3935 96.8262 43.2155 96.8262C38.0375 96.8262 33.8398 101 33.8398 106.149C33.8398 111.298 38.0375 115.472 43.2155 115.472Z" fill="#EBBAAA"/>
<path d="M91.9733 116.194C97.1513 116.194 101.349 112.02 101.349 106.872C101.349 101.723 97.1513 97.5488 91.9733 97.5488C86.7953 97.5488 82.5977 101.723 82.5977 106.872C82.5977 112.02 86.7953 116.194 91.9733 116.194Z" fill="#EBBAAA"/>
<path d="M39.8164 86.5659C40.2431 79.0218 45.7654 72.7434 53.1943 71.3569L63.2647 69.4772C67.0773 68.7656 70.993 68.813 74.7872 69.6169L94.1461 73.7184L96.568 98.3497V109.282C96.568 124.952 83.8637 137.655 68.1922 137.655C52.5207 137.655 39.8164 124.952 39.8164 109.282V86.5659Z" fill="#F4D4CA"/>
<path d="M56.9346 100.07C58.0146 100.07 58.8931 100.933 58.919 102.006L58.9196 102.055L58.9195 106.815C58.9194 107.911 58.0306 108.8 56.9343 108.8C55.8543 108.8 54.9758 107.937 54.9498 106.864L54.9492 106.815L54.9494 102.055C54.9494 100.959 55.8382 100.07 56.9346 100.07Z" fill="black"/>
<path d="M77.2393 100.07C78.3192 100.07 79.1978 100.933 79.2237 102.006L79.2243 102.055L79.2241 106.815C79.2241 107.911 78.3353 108.8 77.239 108.8C76.159 108.8 75.2804 107.937 75.2545 106.864L75.2539 106.815L75.2541 102.055C75.2541 100.959 76.1429 100.07 77.2393 100.07Z" fill="black"/>
<path d="M62.3982 122.727C62.6656 122.114 63.3794 121.834 63.9923 122.101L64.1233 122.158C66.2565 123.058 68.083 123.07 72.2584 122.036C72.9076 121.875 73.5642 122.271 73.725 122.92C73.8858 123.569 73.4899 124.226 72.8408 124.386C68.104 125.56 65.7624 125.515 63.0239 124.321C62.4109 124.053 62.1308 123.34 62.3982 122.727Z" fill="#C99584"/>
<path d="M49.1597 94.4302C49.2848 93.3695 51.5888 92.4273 54.3344 92.3023L54.4634 92.2971L78.8772 91.4191C81.6792 91.3183 83.8478 92.11 83.7208 93.1874C83.5957 94.2481 81.2917 95.1903 78.5461 95.3152L78.4171 95.3205L54.0033 96.1985C51.2012 96.2992 49.0327 95.5076 49.1597 94.4302Z" fill="#272727"/>
<path d="M79.0477 75.7159C90.0267 79.2702 91.7473 79.8626 92.61 84.3479C94.0108 91.6326 97.6327 89.5921 98.0188 81.5551C94.7265 58.1105 76.303 56.0821 72.2666 58.4517C67.423 61.2952 65.951 71.4759 79.0477 75.7159Z" fill="#484A4B"/>
<path d="M98.0192 81.9142C98.0192 80.0776 95.3404 82.6609 94.1183 84.0319L93.6761 84.5282C93.2082 85.0533 93.0125 85.7669 93.1471 86.4573L95.8053 100.083C95.8633 100.38 96.1236 100.595 96.4261 100.595C96.7662 100.595 97.0455 100.326 97.0582 99.986L98.0192 81.9142Z" fill="#484A4B"/>
<path d="M85.9744 77.5767C71.4434 72.1606 44.2533 80.2002 41.5086 83.5853C40.1076 90.8701 38.0221 88.2398 37.6992 80.7107C41.0898 59.9741 60.4836 49.4699 82.4224 57.9431C94.693 62.6823 97.9221 73.5146 85.9744 77.5767Z" fill="#272727"/>
<path d="M37.8594 68.8592C42.3801 69.3669 43.2681 68.1539 45.8514 66.5742V70.6364L44.0754 74.3599C41.1692 74.3599 39.151 73.5983 37.8594 68.8592Z" fill="#272727"/>
<path d="M34.3086 73.4295C38.8293 73.9372 39.7173 72.7242 42.3006 71.1445V75.2067L40.5246 78.9302C37.6184 78.9302 35.6002 78.1685 34.3086 73.4295Z" fill="#272727"/>
<path d="M50.4581 69.2832C50.017 75.2322 49.9844 82.0179 49.9844 82.0179L58.8686 75.697C58.8686 75.697 54.2497 74.4886 50.4581 69.2832Z" fill="#272727"/>
<path d="M45.4542 71.1914C45.0131 77.1406 44.9805 83.9262 44.9805 83.9262L51.1158 78.4695C51.1158 78.4695 49.2458 76.3969 45.4542 71.1914Z" fill="#272727"/>
<path d="M56.095 67.4219C55.6537 73.371 55.6211 80.1565 55.6211 80.1565L64.5053 73.8357C64.5053 73.8357 59.8866 72.6272 56.095 67.4219Z" fill="#272727"/>
<path d="M37.3931 77.0431C37.5608 75.039 40.09 74.2675 41.3481 75.8365C41.7009 76.2767 41.8735 76.8343 41.8309 77.3969L40.0766 100.547C40.0527 100.861 39.7909 101.104 39.4759 101.104C39.1907 101.104 38.9448 100.904 38.8862 100.625L36.6045 89.7507C36.4741 89.1287 36.4347 88.491 36.4876 87.8577L37.3931 77.0431Z" fill="#272727"/>
<path d="M65.4318 105.781L67.9291 106.92L67.6058 107.619C67.4643 107.928 67.3446 108.199 67.2312 108.472C66.909 109.248 66.6759 109.949 66.544 110.588C66.3475 111.54 66.4026 112.239 66.6742 112.649C66.9868 113.12 67.7233 113.43 69.1199 113.441L69.1982 113.441V116.186C66.9107 116.186 65.2806 115.514 64.386 114.164C63.6363 113.033 63.5258 111.633 63.8559 110.034C64.0279 109.2 64.3129 108.343 64.6964 107.419C64.7921 107.189 64.8905 106.963 64.9988 106.722L65.1871 106.31L65.4318 105.781Z" fill="#EBBAAA"/>
</g>
<path d="M327.001 204.946V197.552L319.937 197.316C319.937 197.316 321.376 188.79 319.678 185.842C317.956 182.917 317.484 181.833 317.484 179.344C317.484 176.856 315.763 173.743 312.119 173.259C308.475 172.847 305.291 172.151 305.043 176.42C304.796 180.677 306.517 183.837 305.291 185.63C304.076 187.422 302.378 191.231 302.378 191.231V186.762H288.463V181.585H285.539V54.5212C285.539 54.5212 285.904 17.7642 245.786 10.5354L247.496 -2.56604L246.671 -3.7217L241.27 0.653301L233.369 -11.8349L232.508 -11.9175V-12L232.001 -11.941L231.494 -12V-11.9057L230.668 -11.8349L222.744 0.64151L217.355 -3.73349L216.494 -2.58962L218.204 10.5236C178.086 17.7406 178.463 54.5212 178.463 54.5212V181.597H175.539V186.774H161.635V191.243C161.635 191.243 159.914 187.446 158.699 185.642C157.484 183.837 159.206 180.689 158.947 176.432C158.699 172.175 155.515 172.858 151.871 173.271C148.204 173.755 146.506 176.868 146.506 179.356C146.506 181.844 146.01 182.929 144.289 185.854C142.591 188.802 144.065 197.328 144.065 197.328L136.989 197.564V204.981H121.859V218H342.142V204.981H327.001V204.946ZM267.72 189.698H253.239V180.182H244.949V177.693H240.433C240.598 169.061 240.798 147.363 239.949 144.415C238.817 140.736 238.664 139.05 238.664 137.717C238.664 136.408 239.442 135.205 239.442 135.205C239.442 135.205 241.659 141.903 244.017 141.078C246.376 140.229 245.916 138.035 243.404 133.366C240.869 128.696 240.574 127.517 238.664 126.844C236.812 126.172 235.208 124.84 235.987 122.976C236.789 121.137 236.942 117.8 235.668 116.455C234.418 115.123 232.708 115.123 231.128 116.278C229.548 117.458 229.241 118.955 229.713 121.137C230.173 123.307 230.35 125.512 229.241 125.512C228.121 125.512 224.524 122.634 224.524 119.474C224.524 116.278 225.763 108.908 225.008 108.248C224.206 107.575 223.404 106.726 223.404 106.726L223.109 103.719L225.468 103.578C225.468 103.578 225.928 102.033 225.468 100.877C224.996 99.6745 223.109 99.5212 222.001 99.5212C220.881 99.5212 219.454 100.547 219.631 101.703C219.784 102.906 220.739 103.92 220.739 103.92H221.848L222.484 107.257C222.484 107.257 221.541 109.285 221.388 111.101C221.199 112.941 220.256 120.983 220.421 122.823C220.598 124.663 225.774 132.033 226.435 133.212C227.072 134.392 227.98 137.245 227.355 138.047C226.73 138.896 222.319 145.583 221.541 148.13C220.763 150.594 220.421 155.642 221.694 156.656C222.944 157.646 227.213 160.017 227.213 160.017V177.705H222.26V180.193H212.649V189.71H196.27V181.597L214.324 112.222C214.324 112.222 214.324 77.1745 214.324 61.2429C214.324 47.3278 223.416 44.2736 232.001 44.2736C239.253 44.2736 249.678 47.3396 249.678 61.2429C249.678 77.1863 249.678 112.222 249.678 112.222L267.72 181.597V189.698ZM279.701 180.854H271.506V55.3821C271.506 55.0873 270.468 23.4363 233.628 23.4363H229.713C192.921 23.4363 191.883 55.0873 191.883 55.3821V180.877H183.675V55.3821C183.675 44.9929 192.154 15.217 229.701 15.217H233.605C271.223 15.217 279.678 44.9929 279.678 55.3821L279.701 180.854Z" fill="#E5DCCD" fill-opacity="0.4"/>
<rect x="144" y="55" width="56" height="8" rx="4" fill="#E6DCCD"/>
<rect x="144" y="16" width="176" height="8" rx="4" fill="#EBE1D2"/>
<rect x="144" y="92" width="56" height="8" rx="4" fill="#EBE1D2"/>
<rect x="144" y="127" width="56" height="8" rx="4" fill="#EBE1D2"/>
<rect x="204" y="127" width="56" height="8" rx="4" fill="#EBE1D2"/>
<rect x="264" y="127" width="56" height="8" rx="4" fill="#EBE1D2"/>
<rect x="144" y="169" width="56" height="8" rx="4" fill="#EBE1D2"/>
<rect x="16" y="167" width="101" height="8" rx="4" fill="#EBE1D2"/>
<rect x="204" y="169" width="56" height="8" rx="4" fill="#EBE1D2"/>
<rect x="264" y="169" width="56" height="8" rx="4" fill="#EBE1D2"/>
<rect x="144" y="67" width="56" height="12" rx="4" fill="#E0D7C8"/>
<rect x="144" y="28" width="176" height="12" rx="4" fill="#E0D7C8"/>
<rect x="68" y="16" width="48" height="24" rx="4" fill="#EBE1D2"/>
<rect x="144" y="103" width="56" height="12" rx="4" fill="#E0D7C8"/>
<rect x="144" y="139" width="56" height="12" rx="4" fill="#E0D7C8"/>
<rect x="236" y="157" width="56" height="12" rx="4" fill="#E0D7C8"/>
<rect x="264" y="139" width="56" height="12" rx="4" fill="#E0D7C8"/>
<rect x="144" y="181" width="56" height="12" rx="4" fill="#E0D7C8"/>
<rect x="16" y="179" width="101" height="12" rx="4" fill="#E0D7C8"/>
<rect x="204" y="181" width="56" height="12" rx="4" fill="#E0D7C8"/>
<rect x="264" y="181" width="56" height="12" rx="4" fill="#E0D7C8"/>
</g>
<defs>
<clipPath id="clip0">
<rect width="340" height="209" rx="12" fill="white"/>
</clipPath>
</defs>
</svg>
