<svg width="523" height="658" viewBox="0 0 523 658" fill="none" xmlns="http://www.w3.org/2000/svg">
<g clip-path="url(#clip0_2013_740)">
<rect width="523" height="658" rx="20" fill="#FCF8F2"/>
<rect x="308" y="40" width="70" height="14" rx="7" fill="#C4C4C4"/>
<rect x="123" y="103" width="70" height="14" rx="7" fill="#C4C4C4"/>
<rect x="243" y="103" width="151" height="14" rx="7" fill="#C4C4C4"/>
<rect x="243" y="194" width="151" height="14" rx="7" fill="#C4C4C4"/>
<rect x="70" y="595" width="251" height="14" rx="7" fill="#C4C4C4"/>
<path d="M248 155.75V142C248 140.895 248.895 140 250 140H289.5M248 155.75V169.5C248 170.605 248.895 171.5 250 171.5H289.5M248 155.75H289.5M437.5 155.75V169.5C437.5 170.605 436.605 171.5 435.5 171.5H400M437.5 155.75V142C437.5 140.895 436.605 140 435.5 140H400M437.5 155.75H400M360 155.75H400M360 155.75H327.75M360 155.75V140M360 155.75V171.5M400 155.75V171.5M400 155.75V140M327.75 155.75H289.5M327.75 155.75V140M327.75 155.75V171.5M289.5 155.75V140M289.5 155.75V171.5M400 171.5H360M400 140H360M360 140H327.75M360 171.5H327.75M327.75 140H289.5M327.75 171.5H289.5" stroke="#C4C4C4" stroke-width="4"/>
<path d="M449 378.5V489M449 378.5V328.5M449 378.5H378.25M367.75 378.5V489M367.75 378.5H307.5M367.75 378.5H378.25M449 328.5H168.25M449 328.5V296M70 328.5V261C70 255.477 74.4772 251 80 251H219H252.75M70 328.5H117.5M70 328.5V378.5M117.5 328.5V378.5M117.5 328.5H168.25M117.5 378.5H70M117.5 378.5H168.25M70 378.5V489M168.25 378.5H219H252.75M168.25 378.5V328.5M70 489V558C70 563.523 74.4772 568 80 568H439C444.523 568 449 563.523 449 558V489M70 489H367.75M449 489H367.75M252.75 251H286.5H367.75H439C444.523 251 449 255.477 449 261V296M252.75 251V296M252.75 378.5H286.5H307.5M252.75 378.5V296M252.75 296H307.5M449 296H378.25M307.5 296V378.5M307.5 296H378.25M378.25 296V378.5" stroke="#C4C4C4" stroke-width="6"/>
<path d="M301.273 273.891H299.891V279H298.391V267.625H299.891V272.641H301.062L305.039 267.625H306.906L302.562 273.141L307.227 279H305.391L301.273 273.891ZM307.531 281.82H306.078V277.82H307.531V281.82ZM313.43 274.227L316.047 267.625H317.789L313.766 277.102C313.495 277.706 313.242 278.135 313.008 278.391C312.773 278.641 312.497 278.833 312.18 278.969C311.867 279.099 311.474 279.164 311 279.164C310.589 279.164 310.326 279.141 310.211 279.094L310.258 277.906L310.969 277.938C311.516 277.938 311.922 277.674 312.188 277.148L312.383 276.742L312.68 276.047L308.805 267.625H310.484L313.43 274.227ZM319.586 279V267.625H323.305C324.539 267.625 325.466 267.88 326.086 268.391C326.711 268.901 327.023 269.656 327.023 270.656C327.023 271.188 326.872 271.659 326.57 272.07C326.268 272.477 325.857 272.792 325.336 273.016C325.951 273.188 326.435 273.516 326.789 274C327.148 274.479 327.328 275.052 327.328 275.719C327.328 276.74 326.997 277.542 326.336 278.125C325.674 278.708 324.74 279 323.531 279H319.586ZM321.086 273.68V277.773H323.562C324.26 277.773 324.81 277.594 325.211 277.234C325.617 276.87 325.82 276.37 325.82 275.734C325.82 274.365 325.076 273.68 323.586 273.68H321.086ZM321.086 272.477H323.352C324.008 272.477 324.531 272.312 324.922 271.984C325.318 271.656 325.516 271.211 325.516 270.648C325.516 270.023 325.333 269.57 324.969 269.289C324.604 269.003 324.049 268.859 323.305 268.859H321.086V272.477ZM329.555 279V267.625H333.273C334.508 267.625 335.435 267.88 336.055 268.391C336.68 268.901 336.992 269.656 336.992 270.656C336.992 271.188 336.841 271.659 336.539 272.07C336.237 272.477 335.826 272.792 335.305 273.016C335.919 273.188 336.404 273.516 336.758 274C337.117 274.479 337.297 275.052 337.297 275.719C337.297 276.74 336.966 277.542 336.305 278.125C335.643 278.708 334.708 279 333.5 279H329.555ZM331.055 273.68V277.773H333.531C334.229 277.773 334.779 277.594 335.18 277.234C335.586 276.87 335.789 276.37 335.789 275.734C335.789 274.365 335.044 273.68 333.555 273.68H331.055ZM331.055 272.477H333.32C333.977 272.477 334.5 272.312 334.891 271.984C335.286 271.656 335.484 271.211 335.484 270.648C335.484 270.023 335.302 269.57 334.938 269.289C334.573 269.003 334.018 268.859 333.273 268.859H331.055V272.477ZM345.805 276.031H341.039L339.969 279H338.422L342.766 267.625H344.078L348.43 279H346.891L345.805 276.031ZM341.492 274.797H345.359L343.422 269.477L341.492 274.797ZM357.133 267.625H358.633V279H357.133V270.234L351.531 279H350.023V267.625H351.531V276.391L357.133 267.625ZM372.273 268.859H366.789V272.266H369.617C370.805 272.281 371.732 272.586 372.398 273.18C373.065 273.773 373.398 274.581 373.398 275.602C373.398 276.628 373.062 277.445 372.391 278.055C371.719 278.664 370.802 278.979 369.641 279H365.281V267.625H372.273V268.859ZM366.789 273.5V277.773H369.531C370.276 277.773 370.854 277.576 371.266 277.18C371.682 276.784 371.891 276.253 371.891 275.586C371.891 274.945 371.69 274.44 371.289 274.07C370.893 273.701 370.328 273.51 369.594 273.5H366.789ZM381.711 276.031H376.945L375.875 279H374.328L378.672 267.625H379.984L384.336 279H382.797L381.711 276.031ZM377.398 274.797H381.266L379.328 269.477L377.398 274.797ZM387.367 274.547V279H385.867V267.625H390.062C391.307 267.625 392.281 267.943 392.984 268.578C393.693 269.214 394.047 270.055 394.047 271.102C394.047 272.206 393.701 273.057 393.008 273.656C392.32 274.25 391.333 274.547 390.047 274.547H387.367ZM387.367 273.32H390.062C390.865 273.32 391.479 273.133 391.906 272.758C392.333 272.378 392.547 271.831 392.547 271.117C392.547 270.44 392.333 269.898 391.906 269.492C391.479 269.086 390.893 268.875 390.148 268.859H387.367V273.32ZM398.914 273.891H397.531V279H396.031V267.625H397.531V272.641H398.703L402.68 267.625H404.547L400.203 273.141L404.867 279H403.031L398.914 273.891Z" fill="black"/>
<path d="M258.281 73.7812H253.477V72.6719H258.281V73.7812ZM253.195 68.1953C253.195 67.388 253.438 66.737 253.922 66.2422C254.406 65.7474 255.055 65.5 255.867 65.5C256.68 65.5 257.328 65.7448 257.812 66.2344C258.302 66.7188 258.547 67.3854 258.547 68.2344V68.9609C258.547 69.7786 258.305 70.4297 257.82 70.9141C257.341 71.3984 256.695 71.6406 255.883 71.6406C255.06 71.6406 254.406 71.3984 253.922 70.9141C253.438 70.4245 253.195 69.7604 253.195 68.9219V68.1953ZM254.469 68.9609C254.469 69.4714 254.591 69.8672 254.836 70.1484C255.086 70.4245 255.435 70.5625 255.883 70.5625C256.32 70.5625 256.659 70.4245 256.898 70.1484C257.143 69.8724 257.268 69.4844 257.273 68.9844V68.1953C257.273 67.6901 257.148 67.2995 256.898 67.0234C256.654 66.7422 256.31 66.6016 255.867 66.6016C255.43 66.6016 255.086 66.7422 254.836 67.0234C254.591 67.2995 254.469 67.6953 254.469 68.2109V68.9609ZM251.938 77H250.344L245.711 68.1406V77H244.266V65.625H245.852L250.508 74.5078V65.625H251.938V77ZM269.383 75.0859L272.258 68.5469H274.062V77H272.617V70.8516L269.883 77H268.883L266.094 70.7188V77H264.648V68.5469H266.523L269.383 75.0859ZM279.156 74.8828L281.125 68.5469H282.672L279.273 78.3047C278.747 79.7109 277.911 80.4141 276.766 80.4141L276.492 80.3906L275.953 80.2891V79.1172L276.344 79.1484C276.833 79.1484 277.214 79.0495 277.484 78.8516C277.76 78.6536 277.987 78.2917 278.164 77.7656L278.484 76.9062L275.469 68.5469H277.047L279.156 74.8828ZM285.547 68.5469V75.8203H288.641V68.5469H290.086V75.8203H293.172V68.5469H294.625V77H284.094V68.5469H285.547ZM303.188 69.7188H300.352V77H298.906V69.7188H296.125V68.5469H303.188V69.7188ZM309.688 77C309.604 76.8333 309.536 76.5365 309.484 76.1094C308.812 76.8073 308.01 77.1562 307.078 77.1562C306.245 77.1562 305.56 76.9219 305.023 76.4531C304.492 75.9792 304.227 75.3802 304.227 74.6562C304.227 73.776 304.56 73.0938 305.227 72.6094C305.898 72.1198 306.841 71.875 308.055 71.875H309.461V71.2109C309.461 70.7057 309.31 70.3047 309.008 70.0078C308.706 69.7057 308.26 69.5547 307.672 69.5547C307.156 69.5547 306.724 69.6849 306.375 69.9453C306.026 70.2057 305.852 70.5208 305.852 70.8906H304.398C304.398 70.4688 304.547 70.0625 304.844 69.6719C305.146 69.276 305.552 68.9635 306.062 68.7344C306.578 68.5052 307.143 68.3906 307.758 68.3906C308.732 68.3906 309.495 68.6354 310.047 69.125C310.599 69.6094 310.885 70.2786 310.906 71.1328V75.0234C310.906 75.7995 311.005 76.4167 311.203 76.875V77H309.688ZM307.289 75.8984C307.742 75.8984 308.172 75.7812 308.578 75.5469C308.984 75.3125 309.279 75.0078 309.461 74.6328V72.8984H308.328C306.557 72.8984 305.672 73.4167 305.672 74.4531C305.672 74.9062 305.823 75.2604 306.125 75.5156C306.427 75.7708 306.815 75.8984 307.289 75.8984ZM320.312 72.8672C320.312 74.1536 320.018 75.1901 319.43 75.9766C318.841 76.763 318.044 77.1562 317.039 77.1562C316.013 77.1562 315.206 76.8307 314.617 76.1797V80.25H313.172V68.5469H314.492L314.562 69.4844C315.151 68.7552 315.969 68.3906 317.016 68.3906C318.031 68.3906 318.833 68.7734 319.422 69.5391C320.016 70.3047 320.312 71.3698 320.312 72.7344V72.8672ZM318.867 72.7031C318.867 71.75 318.664 70.9974 318.258 70.4453C317.852 69.8932 317.294 69.6172 316.586 69.6172C315.711 69.6172 315.055 70.0052 314.617 70.7812V74.8203C315.049 75.5911 315.711 75.9766 316.602 75.9766C317.294 75.9766 317.844 75.7031 318.25 75.1562C318.661 74.6042 318.867 73.7865 318.867 72.7031ZM327.625 68.5469H329.07V77H327.625V70.8359L323.727 77H322.281V68.5469H323.727V74.7188L327.625 68.5469Z" fill="black"/>
<path d="M348.023 69.728L351.288 64.509L353.401 64.509L349.099 71.2619L353.504 78.127L351.372 78.127L348.023 72.8145L344.656 78.127L342.533 78.127L346.948 71.2619L342.636 64.509L344.74 64.509L348.023 69.728ZM360.033 69.728L363.297 64.509L365.411 64.509L361.108 71.2619L365.513 78.127L363.381 78.127L360.033 72.8145L356.665 78.127L354.542 78.127L358.957 71.2619L354.645 64.509L356.75 64.509L360.033 69.728ZM372.042 69.728L375.306 64.509L377.42 64.509L373.117 71.2619L377.523 78.127L375.39 78.127L372.042 72.8145L368.675 78.127L366.552 78.127L370.966 71.2619L366.654 64.509L368.759 64.509L372.042 69.728ZM384.051 69.728L387.315 64.509L389.429 64.509L385.127 71.2619L389.532 78.127L387.399 78.127L384.051 72.8145L380.684 78.127L378.561 78.127L382.975 71.2619L378.664 64.509L380.768 64.509L384.051 69.728ZM396.06 69.728L399.324 64.509L401.438 64.509L397.136 71.2619L401.541 78.127L399.409 78.127L396.06 72.8145L392.693 78.127L390.57 78.127L394.985 71.2619L390.673 64.509L392.777 64.509L396.06 69.728ZM408.07 69.728L411.334 64.509L413.448 64.509L409.145 71.2619L413.55 78.127L411.418 78.127L408.07 72.8145L404.702 78.127L402.579 78.127L406.994 71.2619L402.682 64.509L404.787 64.509L408.07 69.728ZM420.079 69.728L423.343 64.509L425.457 64.509L421.154 71.2619L425.56 78.127L423.427 78.127L420.079 72.8145L416.712 78.127L414.589 78.127L419.003 71.2619L414.691 64.509L416.796 64.509L420.079 69.728Z" fill="black"/>
<g filter="url(#filter0_d_2013_740)">
<circle cx="385.342" cy="69.6565" r="53.2257" transform="rotate(5.92815 385.342 69.6565)" stroke="#F88B61" stroke-width="10"/>
</g>
<g filter="url(#filter1_d_2013_740)">
<path d="M416.699 118.676L423.396 113.239L486.181 190.573C487.683 192.423 487.401 195.139 485.551 196.64V196.64C483.702 198.142 480.986 197.86 479.484 196.01L416.699 118.676Z" fill="#F88B61"/>
</g>
<g clip-path="url(#clip1_2013_740)">
<circle cx="385.303" cy="69.7024" r="49.9902" transform="rotate(-75 385.303 69.7024)" fill="#75E6FF" fill-opacity="0.15"/>
<g style="mix-blend-mode:overlay" opacity="0.25">
<rect x="398.008" y="122.789" width="86.7256" height="10" transform="rotate(-45 398.008 122.789)" fill="white"/>
</g>
<g style="mix-blend-mode:overlay" opacity="0.25">
<rect x="282.449" y="82.6738" width="188.015" height="21.6793" transform="rotate(-45 282.449 82.6738)" fill="white"/>
</g>
<g style="mix-blend-mode:overlay" opacity="0.25">
<rect x="316.293" y="91.6094" width="188.015" height="9.93916" transform="rotate(-45 316.293 91.6094)" fill="white"/>
</g>
<g style="mix-blend-mode:overlay" opacity="0.25">
<rect x="323.812" y="106.047" width="188.015" height="9.93916" transform="rotate(-45 323.812 106.047)" fill="white"/>
</g>
</g>
</g>
<defs>
<filter id="filter0_d_2013_740" x="318.113" y="10.4258" width="126.461" height="126.461" filterUnits="userSpaceOnUse" color-interpolation-filters="sRGB">
<feFlood flood-opacity="0" result="BackgroundImageFix"/>
<feColorMatrix in="SourceAlpha" type="matrix" values="0 0 0 0 0 0 0 0 0 0 0 0 0 0 0 0 0 0 127 0" result="hardAlpha"/>
<feOffset dx="-4" dy="4"/>
<feGaussianBlur stdDeviation="2.5"/>
<feColorMatrix type="matrix" values="0 0 0 0 0 0 0 0 0 0 0 0 0 0 0 0 0 0 0.4 0"/>
<feBlend mode="normal" in2="BackgroundImageFix" result="effect1_dropShadow_2013_740"/>
<feBlend mode="normal" in="SourceGraphic" in2="effect1_dropShadow_2013_740" result="shape"/>
</filter>
<filter id="filter1_d_2013_740" x="407.699" y="112.238" width="80.4453" height="94.3672" filterUnits="userSpaceOnUse" color-interpolation-filters="sRGB">
<feFlood flood-opacity="0" result="BackgroundImageFix"/>
<feColorMatrix in="SourceAlpha" type="matrix" values="0 0 0 0 0 0 0 0 0 0 0 0 0 0 0 0 0 0 127 0" result="hardAlpha"/>
<feOffset dx="-4" dy="4"/>
<feGaussianBlur stdDeviation="2.5"/>
<feColorMatrix type="matrix" values="0 0 0 0 0 0 0 0 0 0 0 0 0 0 0 0 0 0 0.4 0"/>
<feBlend mode="normal" in2="BackgroundImageFix" result="effect1_dropShadow_2013_740"/>
<feBlend mode="normal" in="SourceGraphic" in2="effect1_dropShadow_2013_740" result="shape"/>
</filter>
<clipPath id="clip0_2013_740">
<rect width="523" height="658" rx="20" fill="white"/>
</clipPath>
<clipPath id="clip1_2013_740">
<rect x="324.078" y="105.051" width="99.9803" height="99.9803" rx="49.9902" transform="rotate(-75 324.078 105.051)" fill="white"/>
</clipPath>
</defs>
</svg>
