<svg width="4552" height="434" viewBox="0 0 4552 434" fill="none" xmlns="http://www.w3.org/2000/svg">
<path fill-rule="evenodd" clip-rule="evenodd" d="M67.2233 5.01545H288.777C293.535 4.87607 298.273 5.68101 302.721 7.3842C307.169 9.08739 311.238 11.6554 314.696 14.9409C318.154 18.2265 320.932 22.165 322.872 26.5309C324.811 30.8968 325.875 35.6043 326 40.3836V393.616C325.875 398.396 324.811 403.103 322.872 407.469C320.932 411.835 318.154 415.774 314.696 419.059C311.238 422.345 307.169 424.913 302.721 426.616C298.273 428.319 293.535 429.124 288.777 428.985H67.2233C62.4654 429.124 57.7268 428.319 53.2791 426.616C48.8314 424.913 44.7621 422.345 41.3042 419.059C37.8463 415.774 35.0678 411.835 33.128 407.469C31.1882 403.103 30.1253 398.396 30 393.616V40.3836C30.1253 35.6043 31.1882 30.8968 33.128 26.5309C35.0678 22.165 37.8463 18.2265 41.3042 14.9409C44.7621 11.6554 48.8314 9.08739 53.2791 7.3842C57.7268 5.68101 62.4654 4.87607 67.2233 5.01545V5.01545Z" stroke="#AC8734" stroke-width="8" stroke-miterlimit="22.9256"/>
<path fill-rule="evenodd" clip-rule="evenodd" d="M90.6044 317.702V318.541V319.761C90.778 320.13 91.0742 320.427 91.4424 320.6H92.0521L93.0426 321.287C93.1738 321.604 93.1738 321.961 93.0426 322.278C93.0463 322.543 92.9774 322.804 92.8431 323.033C92.7088 323.262 92.5143 323.449 92.2809 323.575C91.698 323.894 91.0404 324.052 90.3761 324.032H80.3952C79.7153 324.047 79.04 323.917 78.4142 323.651C78.1763 323.516 77.9839 323.314 77.8617 323.069C77.7395 322.825 77.6929 322.549 77.7282 322.278C77.7132 322.047 77.754 321.815 77.8468 321.603C77.9396 321.391 78.0817 321.204 78.2616 321.058L79.0233 320.6H79.633C79.9604 320.397 80.2246 320.107 80.3952 319.761V318.541V291.774C80.4418 291.368 80.4418 290.959 80.3952 290.553C80.3178 290.374 80.203 290.213 80.0585 290.082C79.914 289.95 79.7426 289.851 79.5567 289.791H78.9475L78.0333 289.105C77.8992 288.979 77.7951 288.824 77.7292 288.653C77.6632 288.481 77.6367 288.297 77.652 288.113C77.6115 287.833 77.6641 287.546 77.8017 287.298C77.9393 287.05 78.1546 286.854 78.4142 286.74C79.003 286.437 79.6565 286.28 80.3189 286.283H90.757C91.4114 286.277 92.0601 286.407 92.6617 286.664C93.1951 286.664 93.4235 287.351 93.4235 288.113C93.4325 288.333 93.3888 288.551 93.296 288.75C93.2032 288.949 93.0639 289.123 92.8901 289.257L92.1283 289.791H91.5187C91.2379 289.927 91.0007 290.138 90.8332 290.401C90.6929 290.848 90.6929 291.327 90.8332 291.774V304.662L99.8237 297.798L102.414 295.358L104.395 293.223C105.177 292.511 105.778 291.622 106.148 290.63C106.148 290.172 105.766 289.715 105.005 289.257C104.661 289.125 104.363 288.897 104.147 288.599C103.931 288.301 103.805 287.947 103.785 287.579C103.787 287.325 103.86 287.077 103.994 286.861C104.129 286.646 104.32 286.472 104.547 286.359C105.098 286.109 105.695 285.979 106.3 285.978H114.3H115.29C115.672 286.081 116.008 286.311 116.243 286.629C116.479 286.947 116.599 287.336 116.586 287.732C116.568 287.944 116.505 288.149 116.4 288.334C116.294 288.518 116.15 288.677 115.976 288.8C115.65 289.164 115.227 289.428 114.757 289.562C113.516 290.153 112.403 290.983 111.481 292.002L109.652 293.985L102.566 301.078C105.034 303.585 107.325 306.261 109.424 309.085C111.328 311.678 113.233 314.652 115.214 317.931L116.204 319.456C116.611 319.975 117.133 320.393 117.728 320.677L118.871 321.363C119.154 321.703 119.291 322.142 119.252 322.583C119.252 323.193 118.795 323.651 117.957 323.956H116.586H106.148C105.415 324.063 104.67 324.063 103.938 323.956C103.581 323.899 103.258 323.712 103.033 323.43C102.807 323.148 102.696 322.791 102.719 322.431C102.758 322.127 102.859 321.834 103.016 321.572C103.173 321.309 103.384 321.082 103.633 320.905C104.319 320.448 104.624 320.066 104.624 319.838C103.914 317.241 102.58 314.859 100.738 312.898C99.0261 310.525 97.1416 308.282 95.0999 306.187L90.8332 309.39L90.6044 317.702Z" fill="#AC8734"/>
<path fill-rule="evenodd" clip-rule="evenodd" d="M151.034 305.273C151.176 301.628 150.389 298.006 148.748 294.749C147.972 293.048 146.712 291.613 145.127 290.624C143.542 289.634 141.702 289.132 139.834 289.182C137.935 289.162 136.075 289.721 134.501 290.783C133.026 291.915 131.807 293.344 130.92 294.978C130.191 296.462 129.629 298.022 129.243 299.63C129.243 300.468 129.243 301.307 129.243 302.07C129.243 302.833 129.243 303.824 129.243 304.892C129.118 308.535 129.903 312.153 131.529 315.416C132.323 317.078 133.57 318.482 135.127 319.465C136.685 320.448 138.488 320.97 140.329 320.97C142.17 320.97 143.973 320.448 145.531 319.465C147.088 318.482 148.335 317.078 149.129 315.416C150.807 312.196 151.62 308.596 151.491 304.968L151.034 305.273ZM124.291 319.457C122.334 317.604 120.776 315.369 119.715 312.89C118.654 310.411 118.11 307.741 118.119 305.044C118.05 302.365 118.574 299.703 119.654 297.251C120.735 294.798 122.344 292.615 124.367 290.86C128.546 287.11 133.994 285.092 139.605 285.216C145.174 285.103 150.593 287.028 154.843 290.631C156.93 292.396 158.595 294.608 159.716 297.102C160.837 299.596 161.385 302.31 161.32 305.044C161.39 307.768 160.843 310.472 159.722 312.955C158.6 315.438 156.933 317.634 154.843 319.381C150.539 323.183 144.964 325.225 139.224 325.101C136.417 325.116 133.629 324.625 130.996 323.652C128.378 322.74 125.969 321.314 123.91 319.457H124.291Z" fill="#AC8734"/>
<path fill-rule="evenodd" clip-rule="evenodd" d="M176.776 305.882C179.611 305.6 182.359 304.743 184.852 303.366C186.072 302.734 187.098 301.783 187.823 300.615C188.547 299.447 188.942 298.105 188.967 296.731C189.028 295.761 188.867 294.79 188.497 293.892C188.128 292.994 187.559 292.191 186.834 291.545C185.204 290.218 183.142 289.539 181.043 289.639H178.91C178.408 289.802 177.943 290.061 177.538 290.401C177.311 290.604 177.127 290.85 176.996 291.125C176.865 291.4 176.79 291.698 176.776 292.003V305.73V305.882ZM176.776 317.779V318.847V319.685L177.233 320.296L178.605 320.906C179.291 320.906 179.748 321.363 179.9 321.668C179.972 321.837 180.008 322.019 180.008 322.202C180.008 322.386 179.972 322.567 179.9 322.736C179.908 323.073 179.798 323.402 179.589 323.666C179.381 323.93 179.086 324.114 178.757 324.185C178.073 324.256 177.384 324.256 176.7 324.185H165.881C165.201 324.2 164.526 324.07 163.9 323.804C163.662 323.669 163.47 323.467 163.348 323.222C163.225 322.977 163.179 322.702 163.215 322.431C163.2 322.2 163.24 321.968 163.333 321.756C163.426 321.543 163.568 321.357 163.748 321.211L164.51 320.753L165.119 320.372C165.119 320.372 165.653 319.99 165.881 319.609V318.389V291.545C165.933 291.14 165.933 290.73 165.881 290.325C165.805 290.136 165.691 289.965 165.547 289.821C165.403 289.677 165.232 289.563 165.043 289.486H164.433L163.519 288.876C163.45 288.72 163.414 288.551 163.414 288.38C163.414 288.21 163.45 288.041 163.519 287.885C163.496 287.616 163.557 287.347 163.693 287.114C163.83 286.882 164.035 286.698 164.281 286.588C164.87 286.284 165.523 286.128 166.186 286.131H183.177C185.063 286.123 186.947 286.25 188.815 286.512C190.564 286.737 192.263 287.252 193.843 288.037C195.425 288.839 196.785 290.017 197.805 291.469C198.817 292.979 199.348 294.76 199.329 296.578C199.319 298.916 198.451 301.169 196.891 302.908C195.299 304.67 193.351 306.074 191.176 307.026C188.911 308.044 186.532 308.786 184.091 309.238C181.582 309.739 179.03 309.995 176.472 310L176.776 317.779Z" fill="#AC8734"/>
<path fill-rule="evenodd" clip-rule="evenodd" d="M214.491 292.689V292.002C214.606 291.449 214.606 290.878 214.491 290.325C214.491 290.325 213.576 289.867 212.586 289.867C210.421 289.833 208.323 290.623 206.719 292.079C205.886 293.004 204.84 293.711 203.672 294.138C202.3 294.138 201.614 293.528 201.614 292.155V291.24V290.477C201.614 289.715 201.614 289.181 201.614 288.952C201.571 288.725 201.571 288.492 201.614 288.266C201.707 287.577 201.968 286.922 202.376 286.359C202.636 286.143 202.955 286.01 203.291 285.978H234.681C235.117 285.978 235.542 286.111 235.9 286.359C236.309 286.929 236.595 287.579 236.738 288.266L237.195 290.477V291.621V292.155C237.195 293.528 236.51 294.138 235.138 294.138C233.767 294.138 233.614 293.451 232.091 292.002C231.301 291.278 230.376 290.717 229.37 290.351C228.363 289.984 227.294 289.82 226.224 289.867C225.579 289.792 224.929 289.954 224.395 290.325C224.128 290.843 223.997 291.42 224.014 292.002V318.541V319.761C224.188 320.13 224.484 320.427 224.852 320.6H225.462L226.453 321.287C226.584 321.604 226.584 321.961 226.453 322.278C226.456 322.543 226.387 322.804 226.253 323.033C226.118 323.262 225.924 323.449 225.69 323.575C225.108 323.894 224.45 324.052 223.786 324.032H213.348C212.668 324.047 211.993 323.917 211.367 323.651C211.129 323.516 210.937 323.314 210.815 323.069C210.692 322.825 210.646 322.549 210.681 322.278C210.666 322.047 210.706 321.815 210.799 321.603C210.892 321.391 211.035 321.204 211.215 321.058L211.976 320.6H212.586C212.929 320.418 213.199 320.121 213.348 319.761V318.541L214.491 292.689Z" fill="#AC8734"/>
<path fill-rule="evenodd" clip-rule="evenodd" d="M252.663 317.701V318.54V319.761C252.837 320.129 253.133 320.426 253.501 320.599H254.111L255.101 321.286C255.233 321.603 255.233 321.96 255.101 322.277C255.105 322.542 255.036 322.803 254.901 323.032C254.767 323.261 254.573 323.448 254.339 323.574C253.756 323.893 253.099 324.051 252.434 324.031H241.996C241.317 324.046 240.641 323.916 240.015 323.65C239.777 323.515 239.585 323.313 239.463 323.068C239.341 322.824 239.295 322.548 239.33 322.277C239.315 322.046 239.355 321.814 239.448 321.602C239.541 321.39 239.683 321.203 239.863 321.057L240.625 320.599H241.235C241.578 320.417 241.847 320.12 241.996 319.761V318.54V291.773C242.043 291.367 242.043 290.958 241.996 290.553C241.919 290.373 241.804 290.212 241.66 290.081C241.515 289.949 241.344 289.85 241.158 289.79H240.549L239.634 289.104C239.565 288.948 239.529 288.779 239.529 288.608C239.529 288.437 239.565 288.268 239.634 288.112C239.594 287.832 239.647 287.545 239.784 287.297C239.922 287.049 240.137 286.853 240.397 286.74C240.986 286.436 241.639 286.279 242.301 286.282H252.739C253.395 286.266 254.045 286.396 254.644 286.663C255.178 286.663 255.406 287.35 255.406 288.112C255.415 288.332 255.371 288.55 255.279 288.749C255.186 288.948 255.046 289.122 254.873 289.256L254.111 289.79H253.501C253.22 289.926 252.983 290.137 252.816 290.4C252.675 290.847 252.675 291.326 252.816 291.773V309.694L269.196 293.984V291.544C269.243 291.139 269.243 290.729 269.196 290.324C269.119 290.144 269.004 289.983 268.86 289.852C268.715 289.72 268.544 289.621 268.358 289.561H267.749L266.835 288.875C266.7 288.749 266.597 288.595 266.531 288.423C266.465 288.251 266.438 288.067 266.454 287.884C266.419 287.594 266.482 287.3 266.634 287.051C266.786 286.802 267.018 286.612 267.292 286.511C267.851 286.201 268.481 286.043 269.12 286.053H279.254C279.933 286.047 280.606 286.177 281.235 286.435C281.493 286.571 281.704 286.782 281.84 287.041C281.976 287.299 282.03 287.593 281.996 287.884C281.99 288.109 281.932 288.329 281.827 288.528C281.721 288.726 281.571 288.897 281.387 289.027L280.625 289.561H280.015C279.735 289.697 279.497 289.908 279.33 290.171C279.226 290.623 279.226 291.092 279.33 291.544V318.312V319.532C279.473 319.895 279.744 320.193 280.092 320.371H280.701C281.074 320.531 281.411 320.764 281.692 321.057C281.822 321.186 281.923 321.341 281.988 321.512C282.054 321.683 282.083 321.865 282.073 322.048C282.061 322.319 281.977 322.583 281.829 322.81C281.682 323.038 281.477 323.223 281.235 323.345C280.652 323.664 279.994 323.822 279.33 323.802H268.892C268.237 323.818 267.586 323.688 266.987 323.421C266.728 323.307 266.512 323.111 266.375 322.863C266.237 322.615 266.184 322.329 266.225 322.048C266.21 321.817 266.251 321.586 266.343 321.373C266.436 321.161 266.578 320.974 266.758 320.828L267.52 320.371H268.13C268.473 320.188 268.743 319.891 268.892 319.532V318.312V299.475L252.511 315.185L252.663 317.701Z" fill="#AC8734"/>
<path fill-rule="evenodd" clip-rule="evenodd" d="M101.351 350.342C101.651 349.541 102.118 348.813 102.722 348.207C103.395 347.759 104.206 347.57 105.008 347.673H115.217C115.463 347.663 115.71 347.703 115.94 347.79C116.171 347.877 116.381 348.01 116.559 348.181C116.737 348.352 116.879 348.558 116.976 348.785C117.072 349.012 117.122 349.256 117.122 349.503C117.119 349.769 117.056 350.031 116.937 350.269C116.818 350.507 116.647 350.714 116.436 350.876L114.988 351.486C114.721 351.512 114.464 351.602 114.239 351.748C114.013 351.894 113.826 352.092 113.693 352.325C113.548 352.901 113.548 353.503 113.693 354.079V380.16V381.457C113.693 381.457 113.693 381.99 114.531 382.219H115.141C115.509 382.42 115.843 382.678 116.132 382.982C116.243 383.277 116.243 383.602 116.132 383.897C116.133 384.181 116.056 384.46 115.908 384.703C115.76 384.945 115.547 385.142 115.293 385.27C114.734 385.579 114.104 385.737 113.465 385.727H102.95C102.295 385.743 101.644 385.613 101.045 385.346C100.787 385.21 100.576 384.998 100.44 384.739C100.304 384.481 100.25 384.187 100.284 383.897C100.316 383.441 100.504 383.01 100.817 382.677L101.579 382.219H102.189C102.363 382.154 102.521 382.052 102.652 381.921C102.784 381.789 102.885 381.631 102.95 381.457V380.16V356.596L94.1123 377.644L93.1218 379.626C92.7837 380.108 92.322 380.489 91.7858 380.731C91.2496 380.972 90.6583 381.065 90.074 380.999C89.215 381.123 88.3428 381.123 87.4838 380.999C86.7982 380.529 86.2677 379.865 85.9599 379.093L76.2836 357.511V380.389V381.228V381.914L77.6549 382.524C78.4168 382.524 78.8739 382.982 79.0263 383.287C79.0956 383.443 79.1319 383.612 79.1319 383.783C79.1319 383.953 79.0956 384.122 79.0263 384.278C79.0263 385.041 78.5692 385.498 77.6549 385.804H75.2931H69.3504H68.1311C67.2168 385.804 66.7598 385.117 66.7598 384.278C66.7583 383.905 66.8758 383.541 67.095 383.24C67.3143 382.938 67.624 382.714 67.9791 382.6L69.655 381.914C69.9351 381.638 70.1444 381.298 70.2647 380.923C70.3001 380.67 70.3001 380.413 70.2647 380.16C70.2647 380.16 70.2647 379.626 70.2647 379.398V354.231V353.011C70.1472 352.635 69.9376 352.294 69.655 352.02C69.162 351.607 68.5926 351.296 67.9791 351.105L66.6835 350.647C66.4658 350.515 66.292 350.322 66.1836 350.091C66.0752 349.86 66.0374 349.603 66.0743 349.351C66.0589 349.014 66.1553 348.682 66.3482 348.406C66.5412 348.131 66.8195 347.926 67.1406 347.826H69.1979H81.1599C81.6392 347.774 82.1242 347.837 82.5745 348.009C83.0248 348.182 83.4279 348.458 83.7505 348.817C83.7505 348.817 84.2837 349.961 84.9694 351.486L92.5884 370.323L101.351 350.342Z" fill="#AC8734"/>
<path fill-rule="evenodd" clip-rule="evenodd" d="M132.287 379.321V380.16V381.456C132.287 381.456 132.287 381.99 133.049 382.219H133.659C134.023 382.425 134.357 382.682 134.649 382.982C134.782 383.092 134.886 383.233 134.952 383.392C135.018 383.552 135.045 383.725 135.03 383.897C135.032 384.181 134.955 384.46 134.806 384.703C134.658 384.945 134.446 385.142 134.192 385.269C133.609 385.589 132.952 385.747 132.287 385.727H121.849C121.194 385.743 120.543 385.613 119.945 385.346C119.686 385.209 119.475 384.998 119.339 384.739C119.203 384.481 119.149 384.187 119.182 383.897C119.179 383.667 119.224 383.439 119.316 383.228C119.408 383.018 119.545 382.83 119.716 382.677L120.477 382.219H121.087C121.261 382.154 121.42 382.052 121.551 381.921C121.683 381.789 121.784 381.631 121.849 381.456V380.16V353.469C121.934 353.041 121.934 352.6 121.849 352.172C121.849 352.172 121.849 351.638 121.011 351.41H120.402L119.487 350.8C119.334 350.618 119.223 350.405 119.162 350.175C119.102 349.945 119.093 349.704 119.137 349.471C119.181 349.237 119.276 349.016 119.415 348.824C119.555 348.632 119.736 348.473 119.945 348.359C120.548 348.236 121.17 348.236 121.773 348.359H132.211C132.865 348.232 133.538 348.232 134.192 348.359C134.45 348.496 134.661 348.707 134.797 348.966C134.933 349.224 134.988 349.518 134.954 349.808C134.935 350.268 134.745 350.703 134.42 351.028L133.582 351.486H132.973C132.708 351.644 132.475 351.851 132.287 352.096C132.193 352.574 132.193 353.067 132.287 353.545V371.695L148.668 355.985V353.545C148.752 353.117 148.752 352.676 148.668 352.248C148.668 352.248 148.287 351.715 147.83 351.486H147.297L146.306 350.876C146.209 350.527 146.209 350.157 146.306 349.808C146.304 349.524 146.382 349.245 146.53 349.002C146.678 348.76 146.891 348.563 147.144 348.435C147.772 348.306 148.421 348.306 149.049 348.435H159.487C160.116 348.306 160.764 348.306 161.392 348.435C161.926 348.435 162.154 349.122 162.154 349.884C162.163 350.115 162.12 350.344 162.027 350.556C161.935 350.767 161.796 350.955 161.621 351.105L160.859 351.562H160.249C159.957 351.681 159.715 351.896 159.563 352.172C159.434 352.647 159.434 353.147 159.563 353.621V380.313V381.609C159.563 381.609 159.564 382.143 160.402 382.372H161.011C161.379 382.573 161.713 382.83 162.001 383.134C162.001 383.134 162.001 383.592 162.001 384.049C162.003 384.334 161.926 384.613 161.778 384.855C161.63 385.098 161.417 385.294 161.163 385.422C160.609 385.742 159.975 385.901 159.335 385.879H148.897C148.216 385.902 147.54 385.771 146.916 385.498C146.658 385.362 146.447 385.15 146.311 384.892C146.175 384.633 146.12 384.34 146.154 384.049C146.186 383.593 146.374 383.162 146.687 382.829L147.525 382.372H148.059C148.422 382.228 148.72 381.957 148.897 381.609V380.313V361.552L132.516 377.262L132.287 379.321Z" fill="#AC8734"/>
<path fill-rule="evenodd" clip-rule="evenodd" d="M175.792 353.165C175.792 352.631 175.792 352.173 174.497 351.639C174.122 351.405 173.814 351.079 173.6 350.692C173.387 350.305 173.276 349.87 173.278 349.428C173.278 348.284 174.268 347.674 176.325 347.674H199.182C199.837 347.546 200.509 347.546 201.163 347.674C201.422 347.81 201.632 348.021 201.768 348.28C201.904 348.539 201.959 348.832 201.925 349.123C201.92 349.359 201.862 349.59 201.757 349.801C201.651 350.012 201.501 350.197 201.316 350.343L200.554 350.8H199.945C199.68 350.959 199.447 351.166 199.259 351.41C199.164 351.889 199.164 352.381 199.259 352.859V379.551V380.847C199.259 380.847 199.639 381.381 200.02 381.61H200.63C201.012 381.789 201.35 382.049 201.621 382.372C201.688 382.515 201.723 382.672 201.723 382.83C201.723 382.988 201.688 383.144 201.621 383.287C201.623 383.572 201.545 383.851 201.397 384.093C201.249 384.336 201.036 384.532 200.783 384.66C200.2 384.98 199.542 385.138 198.878 385.118H188.44C187.784 385.134 187.134 385.003 186.535 384.736C186.277 384.6 186.066 384.388 185.93 384.13C185.794 383.871 185.739 383.578 185.773 383.287C185.769 383.058 185.815 382.83 185.907 382.619C185.999 382.409 186.135 382.22 186.306 382.067L187.068 381.61H187.678C187.852 381.545 188.01 381.443 188.142 381.312C188.273 381.18 188.375 381.021 188.44 380.847V379.551V354.69C188.547 353.77 188.302 352.843 187.754 352.097L186.992 351.716C186.182 351.617 185.364 351.617 184.554 351.716H183.487C182.799 351.782 182.134 352.001 181.541 352.357C180.947 352.713 180.441 353.198 180.059 353.775C179.065 355.142 178.198 356.597 177.468 358.121C175.542 362.055 173.862 366.104 172.439 370.247C171.126 373.377 170.329 376.699 170.078 380.085C170.114 380.656 170.323 381.202 170.677 381.652C171.03 382.101 171.512 382.432 172.059 382.601C173.354 383.287 174.04 383.974 174.04 384.66C174.047 384.997 173.937 385.326 173.729 385.59C173.52 385.855 173.226 386.038 172.897 386.109H170.84H164.592C163.962 386.22 163.317 386.22 162.687 386.109C162.365 386.026 162.079 385.839 161.872 385.577C161.666 385.316 161.55 384.993 161.544 384.66C161.433 384.365 161.433 384.04 161.544 383.745C161.761 383.363 162.077 383.047 162.459 382.83C162.967 382.482 163.407 382.043 163.754 381.534L164.516 379.551C165.582 375.814 166.801 371.925 168.173 368.645C168.706 367.197 169.392 365.595 170.078 363.917L172.821 357.969L173.963 355.452C174.705 354.805 175.324 354.03 175.792 353.165Z" fill="#AC8734"/>
<path fill-rule="evenodd" clip-rule="evenodd" d="M216.474 353.162C216.474 352.629 216.017 352.171 215.179 351.637C214.804 351.403 214.495 351.077 214.282 350.69C214.068 350.303 213.957 349.868 213.959 349.426C213.959 348.282 214.95 347.672 217.007 347.672H239.864C240.492 347.538 241.141 347.538 241.769 347.672C242.302 347.672 242.531 348.358 242.531 349.121C242.54 349.351 242.497 349.581 242.404 349.792C242.312 350.003 242.173 350.191 241.997 350.341L241.236 350.798H240.626C240.361 350.957 240.129 351.163 239.941 351.408C239.846 351.887 239.846 352.379 239.941 352.857V379.549V380.845C240.123 381.189 240.419 381.458 240.779 381.608H241.388C241.77 381.787 242.108 382.047 242.378 382.37C242.378 382.37 242.378 382.828 242.378 383.285C242.396 383.563 242.334 383.841 242.199 384.084C242.064 384.328 241.862 384.527 241.617 384.658C241.034 384.977 240.376 385.136 239.712 385.116H229.274C228.595 385.122 227.921 384.992 227.293 384.734C227.055 384.58 226.866 384.363 226.744 384.107C226.623 383.851 226.576 383.567 226.607 383.285C226.603 383.056 226.649 382.828 226.741 382.617C226.833 382.407 226.969 382.218 227.14 382.065L227.902 381.608H228.512C228.855 381.461 229.127 381.188 229.274 380.845V379.549V354.688C229.381 353.768 229.136 352.841 228.588 352.095L227.826 351.713C227.016 351.615 226.198 351.615 225.388 351.713H224.245C223.572 351.795 222.923 352.022 222.345 352.377C221.766 352.732 221.271 353.208 220.893 353.772C219.899 355.139 219.032 356.594 218.302 358.119C216.382 362.065 214.678 366.113 213.198 370.245C211.936 373.387 211.165 376.705 210.912 380.083C210.948 380.654 211.157 381.2 211.511 381.649C211.865 382.099 212.346 382.43 212.893 382.599C214.188 383.285 214.797 383.972 214.797 384.658C214.809 384.984 214.71 385.305 214.516 385.568C214.322 385.831 214.046 386.021 213.731 386.107H211.674H205.426C204.797 386.227 204.151 386.227 203.521 386.107C203.199 386.024 202.913 385.837 202.706 385.575C202.5 385.313 202.384 384.991 202.378 384.658C202.267 384.363 202.267 384.038 202.378 383.743C202.595 383.361 202.911 383.045 203.293 382.828C203.802 382.48 204.241 382.04 204.588 381.531L205.274 379.549C206.312 375.846 207.558 372.205 209.007 368.643C209.541 367.194 210.15 365.593 210.912 363.915L213.655 357.967L214.797 355.45C215.484 354.79 216.051 354.016 216.474 353.162Z" fill="#AC8734"/>
<path fill-rule="evenodd" clip-rule="evenodd" d="M256.404 343.172C255.671 343.28 254.927 343.28 254.195 343.172C253.737 343.172 253.509 342.333 253.509 341.494C253.509 340.655 253.509 340.045 254.042 339.817C254.575 339.588 255.032 339.435 256.175 339.435H277.28C278.038 339.326 278.808 339.326 279.566 339.435C280.023 339.435 280.252 340.122 280.252 340.96C280.252 341.799 280.251 342.562 279.642 342.791C278.998 343.166 278.25 343.327 277.509 343.248L256.404 343.172ZM258.918 379.32V380.158V381.455C258.918 381.455 258.918 381.989 259.68 382.218H260.29C260.654 382.424 260.988 382.68 261.28 382.98C261.413 383.09 261.517 383.231 261.583 383.391C261.649 383.55 261.676 383.723 261.661 383.895C261.663 384.18 261.585 384.459 261.437 384.701C261.289 384.944 261.077 385.14 260.823 385.268C260.24 385.587 259.583 385.745 258.918 385.726H248.785C248.13 385.741 247.479 385.611 246.88 385.344C246.622 385.208 246.411 384.996 246.275 384.738C246.139 384.479 246.085 384.186 246.118 383.895C246.115 383.666 246.16 383.437 246.252 383.227C246.344 383.016 246.48 382.828 246.651 382.675L247.413 382.218H248.023C248.197 382.153 248.355 382.051 248.487 381.919C248.618 381.788 248.72 381.629 248.785 381.455V380.158V353.467C248.831 353.036 248.831 352.602 248.785 352.171C248.785 352.171 248.404 351.637 247.947 351.408H247.337L246.423 350.798C246.27 350.617 246.159 350.403 246.098 350.173C246.037 349.943 246.029 349.703 246.072 349.469C246.116 349.236 246.211 349.015 246.351 348.822C246.491 348.63 246.671 348.471 246.88 348.358C247.483 348.235 248.105 348.235 248.709 348.358H259.147C259.801 348.23 260.474 348.23 261.128 348.358C261.386 348.494 261.597 348.705 261.733 348.964C261.869 349.223 261.923 349.516 261.889 349.807C261.871 350.266 261.681 350.702 261.356 351.027L260.518 351.484H259.909C259.644 351.643 259.411 351.85 259.223 352.094C259.128 352.573 259.128 353.065 259.223 353.543V371.694L275.604 355.984V353.543C275.688 353.115 275.688 352.675 275.604 352.247C275.604 352.247 275.604 351.713 274.766 351.484H274.233L273.242 350.874C273.145 350.525 273.145 350.156 273.242 349.807C273.24 349.523 273.317 349.243 273.465 349.001C273.613 348.758 273.827 348.562 274.08 348.434C274.708 348.304 275.357 348.304 275.985 348.434H286.423C287.051 348.304 287.699 348.304 288.328 348.434C288.861 348.434 289.089 349.12 289.089 349.883C289.099 350.113 289.055 350.343 288.963 350.554C288.871 350.766 288.731 350.953 288.556 351.103L287.794 351.561H287.185C286.893 351.679 286.651 351.895 286.499 352.171C286.37 352.645 286.37 353.146 286.499 353.62V380.311V381.607C286.499 381.607 286.88 382.141 287.337 382.37H287.947C288.315 382.571 288.649 382.829 288.937 383.133C288.937 383.133 288.937 383.59 288.937 384.048C288.939 384.332 288.862 384.611 288.714 384.854C288.566 385.096 288.353 385.293 288.099 385.42C287.544 385.741 286.911 385.899 286.27 385.878H275.832C275.152 385.9 274.475 385.77 273.851 385.497C273.593 385.36 273.382 385.149 273.246 384.89C273.11 384.632 273.056 384.338 273.09 384.048C273.122 383.592 273.31 383.161 273.623 382.828L274.461 382.37H274.994C275.357 382.227 275.655 381.955 275.832 381.607V380.311V361.551L259.452 377.26L258.918 379.32Z" fill="#AC8734"/>
<path fill-rule="evenodd" clip-rule="evenodd" d="M257.926 168.916C263.885 166.59 269.004 162.517 272.613 157.231C276.222 151.945 278.153 145.691 278.153 139.289C278.153 132.886 276.222 126.633 272.613 121.347C269.004 116.061 263.885 111.988 257.926 109.661L255.64 108.67C258.751 102.279 259.61 95.0219 258.078 88.0797C256.887 83.3601 254.707 78.948 251.682 75.1364C248.657 71.3249 244.857 68.201 240.534 65.9723C236.21 63.7436 231.462 62.4609 226.605 62.2097C221.748 61.9585 216.894 62.7444 212.363 64.5151L210.002 65.354C207.332 58.6279 202.579 52.935 196.44 49.1104C192.312 46.5403 187.692 44.862 182.878 44.1831C178.064 43.5042 173.162 43.8396 168.485 45.1679C163.808 46.4962 159.459 48.788 155.719 51.8964C151.978 55.0049 148.928 58.8614 146.764 63.2186L145.773 65.354C138.964 62.3927 131.412 61.5941 124.135 63.0662C119.429 63.8655 114.958 65.7013 111.047 68.4409C107.136 71.1806 103.882 74.7556 101.52 78.9077C99.1578 83.0598 97.7467 87.6855 97.3886 92.4501C97.0305 97.2147 97.7347 101.999 99.4496 106.459L100.288 108.67C93.3992 111.089 87.4521 115.627 83.2972 121.634C80.6403 125.575 78.9019 130.064 78.2112 134.767C77.5206 139.471 77.8951 144.27 79.3068 148.809C80.7186 153.349 83.1319 157.512 86.3678 160.993C89.6037 164.473 93.5797 167.181 98.0019 168.916L100.288 169.908C97.205 176.334 96.3472 183.605 97.8494 190.574C99.0597 195.28 101.253 199.676 104.284 203.473C107.315 207.269 111.115 210.379 115.435 212.598C119.754 214.818 124.494 216.096 129.342 216.348C134.191 216.6 139.038 215.821 143.564 214.062L145.926 213.224C148.572 219.964 153.331 225.663 159.488 229.467C163.611 232.04 168.226 233.722 173.037 234.407C177.848 235.091 182.748 234.762 187.424 233.441C192.101 232.12 196.45 229.836 200.194 226.736C203.937 223.635 206.992 219.786 209.164 215.435L210.154 213.224C216.963 216.185 224.516 216.983 231.792 215.511C236.455 214.692 240.88 212.855 244.752 210.131C248.625 207.407 251.851 203.862 254.2 199.749C256.549 195.636 257.965 191.055 258.345 186.332C258.726 181.61 258.062 176.861 256.402 172.424L255.488 170.212L257.773 169.221L257.926 168.916ZM125.354 48.8053L131.297 31.5704L148.287 39.7304C156.936 33.4088 167.368 30.002 178.078 30.002C188.787 30.002 199.22 33.4088 207.868 39.7304L224.935 31.5704L230.878 48.8053C241.357 49.8855 251.181 54.4186 258.807 61.6928C266.433 68.967 271.429 78.5703 273.011 88.9948L291.068 94.638L282.535 110.882C289.117 118.882 292.716 128.924 292.716 139.289C292.716 149.653 289.117 159.695 282.535 167.696L291.068 183.94L273.011 189.583C271.429 200.007 266.433 209.61 258.807 216.885C251.181 224.159 241.357 228.692 230.878 229.772L224.935 247.007L207.868 238.847C199.22 245.169 188.787 248.576 178.078 248.576C167.368 248.576 156.936 245.169 148.287 238.847L131.297 247.007L125.354 229.772C114.875 228.692 105.051 224.159 97.4253 216.885C89.7993 209.61 84.8031 200.007 83.221 189.583L65.0876 183.94L73.6972 167.696C67.0875 159.708 63.4707 149.661 63.4707 139.289C63.4707 128.917 67.0875 118.87 73.6972 110.882L65.0876 94.638L83.221 88.9948C84.8031 78.5703 89.7993 68.967 97.4253 61.6928C105.051 54.4186 114.875 49.8855 125.354 48.8053Z" fill="#AC8734"/>
<path fill-rule="evenodd" clip-rule="evenodd" d="M270.424 90.9799L287.186 96.2419L279.567 111.494C276.78 108.402 273.604 105.685 270.119 103.41C270.891 99.4174 271.096 95.3352 270.729 91.2848L270.424 90.9799ZM279.262 167.241L286.881 182.493L270.119 187.755C270.487 183.704 270.281 179.622 269.509 175.629C273.012 173.378 276.191 170.658 278.957 167.546L279.262 167.241ZM228.824 227.182L223.262 243.12L207.567 235.494C210.806 232.896 213.677 229.869 216.1 226.495C220.274 227.23 224.523 227.435 228.748 227.105L228.824 227.182ZM148.672 235.57L132.9 243.196L127.415 227.258C131.664 227.628 135.944 227.422 140.138 226.648C142.537 230.041 145.411 233.072 148.672 235.647V235.57ZM85.7381 187.678L68.9766 182.416L76.9765 167.164C79.7433 170.277 82.9218 172.996 86.424 175.248C85.5889 179.232 85.3575 183.32 85.7381 187.373V187.678ZM76.9765 111.418L68.9766 96.1656L85.7381 90.9036C85.3575 94.9569 85.5889 99.0445 86.424 103.029C82.9391 105.304 79.7636 108.021 76.9765 111.113V111.418ZM127.415 51.4005L132.9 35.462L148.672 43.088C145.411 45.663 142.537 48.6936 140.138 52.0869C135.939 51.3502 131.665 51.1452 127.415 51.4768V51.4005ZM207.567 43.0118L223.262 35.3857L228.824 51.3242C224.574 50.9926 220.299 51.1976 216.1 51.9343C213.66 48.5754 210.791 45.5502 207.567 42.9356V43.0118Z" fill="#AC8734"/>
<path fill-rule="evenodd" clip-rule="evenodd" d="M124.749 173.646L130.692 186C160.439 176.569 192.372 176.569 222.12 186L228.52 175.324C215.873 175.782 212.292 171.74 208.787 163.122C206.588 165.24 203.923 166.813 201.006 167.712C198.089 168.612 195.003 168.814 191.994 168.302C188.985 167.79 186.138 166.579 183.682 164.765C181.226 162.952 179.23 160.587 177.854 157.86C167.263 170.977 156.749 171.511 146.311 160.301C145.814 162.606 144.867 164.79 143.525 166.729C142.184 168.667 140.472 170.321 138.491 171.596C136.509 172.872 134.295 173.743 131.976 174.16C129.657 174.577 127.279 174.532 124.977 174.027L124.749 173.646ZM166.882 119.577C165.739 108.062 187.53 107.071 187.911 119.577C184.558 119.577 177.854 118.433 178.463 123.619H176.253C176.253 118.586 172.292 119.654 166.882 119.73V119.577ZM192.254 125.831C191.439 125.033 190.464 124.417 189.394 124.023C188.324 123.63 187.183 123.467 186.046 123.546C184.909 123.626 183.802 123.945 182.797 124.483C181.792 125.022 180.912 125.767 180.215 126.67V148.404C186.006 160.834 200.406 163.656 211.149 148.404C212.901 168.537 225.625 172.731 244.063 162.055L224.787 193.321C185.93 183.56 166.501 182.95 127.263 193.321L109.13 161.292C127.644 169.376 136.939 167.774 143.949 147.26C151.568 160.529 166.806 164.419 173.434 147.26V126.67C170.92 123.238 167.339 122.704 162.463 125.907C157.891 97.2329 197.282 99.0631 192.025 125.907L192.254 125.831ZM147.53 167.85C148.239 168.138 148.881 168.569 149.416 169.117C149.95 169.664 150.366 170.316 150.638 171.032C150.91 171.747 151.032 172.512 150.995 173.276C150.958 174.041 150.764 174.79 150.425 175.476C152.025 172.273 153.625 171.816 157.587 171.968C156.444 181.654 142.349 182.035 139.835 175.248C140.996 174.47 142.391 174.121 143.781 174.26C145.171 174.399 146.469 175.018 147.454 176.01C144.177 173.646 146.311 169.452 147.454 168.384L147.53 167.85ZM177.168 165.486C177.769 165.886 178.286 166.401 178.688 167.001C179.09 167.601 179.369 168.274 179.511 168.983C179.652 169.691 179.653 170.421 179.512 171.129C179.372 171.838 179.093 172.512 178.691 173.112C180.825 170.291 182.501 170.062 186.311 170.901C183.415 180.281 169.092 178.069 168.253 170.901C169.539 170.209 171.039 170.029 172.451 170.397C173.864 170.765 175.086 171.653 175.872 172.884C173.13 169.986 175.873 166.249 177.396 165.257L177.168 165.486ZM206.653 168.384C207.658 169.398 208.222 170.769 208.222 172.197C208.222 173.626 207.658 174.996 206.653 176.01C209.32 173.722 210.996 173.799 214.272 175.4C209.472 184.018 195.911 178.984 196.597 171.968C197.949 171.651 199.37 171.831 200.6 172.475C201.831 173.119 202.79 174.184 203.301 175.476C201.244 172.045 204.825 168.918 206.349 168.232L206.653 168.384ZM237.129 157.25L244.749 151.378L252.749 157.021L249.854 147.718L257.473 141.693H247.339L244.368 133.075L241.397 141.693H231.491L239.11 147.718L236.063 157.25H237.129ZM227.911 122.628L235.53 116.756L243.606 122.475L240.711 113.171L248.33 107.07H238.882L235.911 98.453L233.015 107.07H223.111L230.73 113.171L227.606 122.628H227.911ZM203.073 98.3006L210.692 92.4286L218.691 98.0718L216.025 88.5392L223.644 82.4384H213.511L210.539 73.8971L207.568 82.4384H197.663L205.282 88.5392L202.158 98.0718L203.073 98.3006ZM170.387 87.8529L173.511 78.3203L165.511 72.2194H175.415L178.387 63.6782L181.358 72.2194H191.491L183.872 78.3203L186.691 87.6241L179.072 81.9809L171.453 87.8529H170.387ZM138.234 96.7752L141.358 87.2427L133.739 81.2182H143.644L146.616 72.6007L149.587 81.2182H159.72L152.101 87.2427L154.996 96.5465L146.996 90.9033L139.377 96.7752H138.234ZM113.168 122.17L121.168 116.298L129.244 121.941L126.349 112.638L133.968 106.613H123.834L120.863 97.9954L117.968 106.613H108.063L115.682 112.638L112.558 122.17H113.168ZM102.958 155.496L110.577 149.624L118.653 155.267L115.758 145.964L123.377 139.939H113.244L110.273 131.321L107.377 139.939H97.4727L105.092 145.964L102.958 155.496Z" fill="#AC8734"/>
<g clip-path="url(#clip0_611_655)">
<path fill-rule="evenodd" clip-rule="evenodd" d="M2727.59 12.5942L2720.74 53.7125C2707.03 46.8594 2697.44 44.1182 2686.47 44.1182C2657.69 44.1182 2638.51 72.901 2638.51 114.019C2638.51 142.802 2652.21 159.249 2674.14 159.249C2683.73 159.249 2693.33 156.508 2707.03 149.655L2700.18 192.144C2686.47 196.256 2676.88 197.626 2665.92 197.626C2624.8 197.626 2598.76 166.102 2598.76 116.76C2598.76 49.6006 2634.39 3 2685.1 3C2691.96 3 2697.44 3 2702.92 4.37061L2718 8.48243C2723.48 11.2236 2724.85 11.2236 2727.59 12.5942Z" fill="#E30016"/>
<path fill-rule="evenodd" clip-rule="evenodd" d="M2601.5 40.0088C2600.13 40.0088 2598.76 40.0088 2597.39 40.0088C2585.05 40.0088 2578.2 46.8618 2565.86 64.6797L2568.6 41.3794H2534.34L2511.04 193.517H2549.42C2563.12 100.315 2567.23 85.2388 2585.05 85.2388C2586.42 85.2388 2586.42 85.2388 2587.79 85.2388C2591.9 66.0503 2596.01 52.3443 2601.5 40.0088Z" fill="#E30016"/>
<path fill-rule="evenodd" clip-rule="evenodd" d="M2372.61 190.776C2361.64 193.517 2353.42 196.258 2345.19 196.258C2326.01 196.258 2315.04 183.923 2315.04 163.363C2315.04 159.252 2315.04 155.14 2316.41 149.657L2319.15 134.581L2320.53 122.245L2336.97 19.4497H2375.35L2371.24 41.3794H2390.42L2384.94 78.3858H2365.75L2356.16 141.434C2356.16 144.175 2356.16 146.916 2356.16 148.287C2356.16 156.51 2360.27 159.252 2368.49 159.252C2372.61 159.252 2376.72 159.252 2379.46 157.881L2372.61 190.776Z" fill="#E30016"/>
<path fill-rule="evenodd" clip-rule="evenodd" d="M2221.87 89.3482C2221.87 108.537 2230.09 122.243 2250.65 131.837C2265.72 140.061 2268.46 141.431 2268.46 148.284C2268.46 157.879 2261.61 161.99 2246.53 161.99C2235.57 161.99 2224.61 160.62 2212.27 156.508L2206.79 190.773L2215.01 192.144C2217.75 192.144 2220.49 193.514 2224.61 193.514C2234.2 194.885 2241.05 194.885 2245.16 194.885C2284.91 194.885 2304.1 178.438 2304.1 144.172C2304.1 123.613 2295.87 111.278 2276.69 101.684C2260.24 93.46 2258.87 92.0894 2258.87 85.2364C2258.87 77.0127 2265.72 72.9009 2278.06 72.9009C2286.28 72.9009 2295.87 74.2715 2305.47 75.6421L2310.95 40.0064C2301.36 38.6357 2286.28 37.2651 2276.69 37.2651C2236.94 38.6357 2221.87 61.9361 2221.87 89.3482Z" fill="#E30016"/>
<path fill-rule="evenodd" clip-rule="evenodd" d="M3031.84 193.517H2996.21L2997.58 178.44C2987.99 189.405 2977.02 194.887 2963.32 194.887C2935.9 194.887 2916.72 170.216 2916.72 131.839C2916.72 81.127 2945.5 38.6382 2978.39 38.6382C2993.47 38.6382 3004.43 45.4913 3015.4 59.1973L3023.62 5.74365H3060.62L3031.84 193.517ZM2975.65 157.881C2993.47 157.881 3005.8 137.322 3005.8 107.169C3005.8 87.9801 2998.95 77.0152 2985.24 77.0152C2967.43 77.0152 2955.09 97.5743 2955.09 127.728C2956.46 146.916 2963.32 157.881 2975.65 157.881Z" fill="#E30016"/>
<path fill-rule="evenodd" clip-rule="evenodd" d="M2493.22 189.403C2479.51 193.514 2467.18 196.256 2453.47 194.885C2410.99 194.885 2389.06 171.585 2389.06 127.725C2389.06 75.6421 2417.84 37.2651 2456.21 37.2651C2487.74 37.2651 2508.29 59.1948 2508.29 92.0894C2508.29 103.054 2506.92 114.019 2504.18 129.096H2428.8C2428.8 131.837 2428.8 131.837 2428.8 133.208C2428.8 151.026 2439.77 159.249 2461.7 159.249C2475.4 159.249 2487.74 156.508 2501.44 149.655L2493.22 189.403ZM2472.66 100.313C2472.66 97.5718 2472.66 94.8306 2472.66 92.0894C2472.66 79.754 2465.81 72.9009 2454.84 72.9009C2442.51 72.9009 2434.28 82.4952 2430.17 100.313H2472.66Z" fill="#E30016"/>
<path fill-rule="evenodd" clip-rule="evenodd" d="M2068.35 193.512H2029.98L2051.91 50.9688L2003.94 193.512H1977.9L1973.79 50.9688L1951.86 193.512H1914.85L1945.01 7.10938H1999.83L2001.2 122.24L2038.2 7.10938H2097.14L2068.35 193.512Z" fill="#E30016"/>
<path fill-rule="evenodd" clip-rule="evenodd" d="M2167.04 126.356C2162.93 126.356 2161.56 126.356 2158.82 126.356C2136.89 126.356 2125.93 134.58 2125.93 149.656C2125.93 159.251 2131.41 164.733 2139.63 164.733C2154.71 163.362 2165.67 148.286 2167.04 126.356ZM2194.45 193.516H2162.93L2164.3 178.439C2154.71 190.775 2142.37 196.257 2124.56 196.257C2104 196.257 2090.29 179.81 2090.29 155.139C2090.29 118.132 2114.96 96.2027 2157.45 96.2027C2161.56 96.2027 2167.04 96.2027 2172.53 97.5733C2173.9 92.0909 2173.9 90.7203 2173.9 87.9791C2173.9 78.3848 2167.04 74.273 2149.23 74.273C2138.26 74.273 2125.93 75.6436 2117.7 78.3848L2112.22 79.7554L2108.11 81.126L2113.59 46.8609C2132.78 41.3784 2145.11 38.6372 2158.82 38.6372C2191.71 38.6372 2209.53 53.7139 2209.53 82.4966C2209.53 89.3497 2209.53 96.2027 2206.79 112.65L2198.57 166.104L2197.2 175.698L2195.83 183.922V189.404L2194.45 193.516Z" fill="#E30016"/>
<path fill-rule="evenodd" clip-rule="evenodd" d="M2793.37 126.356C2789.26 126.356 2787.89 126.356 2785.15 126.356C2763.22 126.356 2752.26 134.58 2752.26 149.656C2752.26 159.251 2757.74 164.733 2765.96 164.733C2782.41 163.362 2793.37 148.286 2793.37 126.356ZM2822.16 193.516H2790.63L2792 178.439C2782.41 190.775 2770.07 196.257 2752.26 196.257C2731.7 196.257 2716.62 179.81 2716.62 155.139C2716.62 118.132 2741.29 96.2027 2783.78 96.2027C2787.89 96.2027 2793.37 96.2027 2798.86 97.5733C2800.23 92.0909 2800.23 90.7203 2800.23 87.9791C2800.23 78.3848 2793.37 74.273 2775.56 74.273C2764.59 74.273 2752.26 75.6436 2744.03 78.3848L2738.55 79.7554L2734.44 81.126L2739.92 46.8609C2759.11 41.3784 2771.44 38.6372 2785.15 38.6372C2818.04 38.6372 2835.86 53.7139 2835.86 82.4966C2835.86 89.3497 2835.86 96.2027 2833.12 112.65L2824.9 166.104L2823.53 175.698L2822.16 183.922V189.404V193.516Z" fill="#E30016"/>
<path fill-rule="evenodd" clip-rule="evenodd" d="M2929.06 40.0088C2927.69 40.0088 2926.32 40.0088 2924.94 40.0088C2912.61 40.0088 2905.76 46.8618 2893.42 64.6797L2897.53 41.3794H2863.27L2839.97 193.517H2878.35C2892.05 100.315 2896.16 85.2388 2913.98 85.2388C2915.35 85.2388 2915.35 85.2388 2916.72 85.2388C2918.09 66.0503 2923.57 52.3443 2929.06 40.0088Z" fill="#E30016"/>
<path fill-rule="evenodd" clip-rule="evenodd" d="M2768.7 340.172C2768.7 374.437 2757.73 394.996 2741.29 394.996C2728.95 394.996 2722.1 381.29 2722.1 360.731C2722.1 336.06 2733.06 308.648 2750.88 308.648C2763.22 310.019 2768.7 325.095 2768.7 340.172ZM2805.7 340.172C2805.7 301.795 2786.52 273.012 2750.88 273.012C2709.77 273.012 2683.72 308.648 2683.72 362.102C2683.72 400.479 2698.8 432.003 2738.55 432.003C2776.92 432.003 2805.7 404.59 2805.7 340.172Z" fill="#F49200"/>
<path fill-rule="evenodd" clip-rule="evenodd" d="M2696.07 245.597L2690.59 286.715C2678.25 279.862 2668.66 277.121 2659.07 277.121C2633.02 277.121 2613.84 305.904 2613.84 347.022C2613.84 375.805 2626.17 392.252 2646.73 392.252C2656.32 392.252 2665.92 389.511 2676.88 382.658L2671.4 425.147C2657.69 429.259 2649.47 430.629 2639.88 430.629C2601.5 430.629 2578.2 399.105 2578.2 349.763C2578.2 282.604 2611.1 236.003 2659.07 236.003C2664.55 236.003 2670.03 237.374 2675.51 237.374L2690.59 241.485C2691.96 244.227 2691.96 244.227 2696.07 245.597Z" fill="#F49200"/>
<path fill-rule="evenodd" clip-rule="evenodd" d="M2458.96 274.378C2457.59 274.378 2456.22 274.378 2454.85 274.378C2443.88 274.378 2437.03 281.231 2426.07 299.049L2428.81 275.749H2395.92L2373.99 427.886H2409.62C2421.96 334.685 2426.07 319.608 2442.51 319.608C2443.88 319.608 2443.88 319.608 2445.25 319.608C2450.74 300.419 2454.85 286.713 2458.96 274.378Z" fill="#F49200"/>
<path fill-rule="evenodd" clip-rule="evenodd" d="M2924.95 425.148H2890.69L2892.06 410.071C2882.47 422.407 2872.87 426.519 2859.17 426.519C2833.13 426.519 2816.68 401.848 2816.68 363.471C2816.68 312.758 2842.72 270.27 2874.24 270.27C2887.95 270.27 2898.91 277.123 2908.51 290.829L2916.73 237.375H2952.37L2924.95 425.148ZM2872.87 389.512C2889.32 389.512 2901.66 368.953 2901.66 338.8C2901.66 319.611 2894.8 308.647 2882.47 308.647C2866.02 308.647 2855.06 329.206 2855.06 359.359C2853.69 379.918 2860.54 389.512 2872.87 389.512Z" fill="#F49200"/>
<path fill-rule="evenodd" clip-rule="evenodd" d="M2124.54 425.15C2112.2 429.261 2101.24 430.632 2087.53 430.632C2047.79 430.632 2027.23 407.332 2027.23 363.472C2027.23 311.389 2053.27 273.012 2088.9 273.012C2117.68 273.012 2136.87 294.942 2136.87 327.836C2136.87 338.801 2135.5 349.766 2132.76 364.843H2061.49C2061.49 367.584 2061.49 367.584 2061.49 368.955C2061.49 386.773 2072.46 394.996 2093.01 394.996C2105.35 394.996 2117.68 392.255 2130.02 385.402L2124.54 425.15ZM2105.35 334.69C2105.35 331.948 2105.35 329.207 2105.35 326.466C2105.35 314.13 2098.5 307.277 2088.9 307.277C2077.94 307.277 2069.72 316.872 2065.6 334.69H2105.35Z" fill="#F49200"/>
<path fill-rule="evenodd" clip-rule="evenodd" d="M2549.41 425.15C2537.07 429.261 2524.74 430.632 2512.4 430.632C2472.66 430.632 2452.1 407.332 2452.1 363.472C2452.1 311.389 2478.14 273.012 2513.77 273.012C2542.55 273.012 2561.74 294.942 2561.74 327.836C2561.74 338.801 2560.37 349.766 2557.63 364.843H2486.36C2486.36 367.584 2486.36 367.584 2486.36 368.955C2486.36 386.773 2497.33 394.996 2517.88 394.996C2530.22 394.996 2542.55 392.255 2554.89 385.402L2549.41 425.15ZM2528.85 334.69C2528.85 331.948 2528.85 329.207 2528.85 326.466C2528.85 314.13 2522 307.277 2512.4 307.277C2501.44 307.277 2493.21 316.872 2489.1 334.69H2528.85Z" fill="#F49200"/>
<path fill-rule="evenodd" clip-rule="evenodd" d="M3046.92 425.15C3034.59 429.261 3022.25 430.632 3009.92 430.632C2970.17 430.632 2949.62 407.332 2949.62 363.472C2949.62 311.389 2975.66 273.012 3011.29 273.012C3040.07 273.012 3059.26 294.942 3059.26 327.836C3059.26 338.801 3057.89 349.766 3055.15 364.843H2983.88C2983.88 367.584 2983.88 367.584 2983.88 368.955C2983.88 386.773 2994.84 394.996 3015.4 394.996C3027.74 394.996 3040.07 392.255 3052.41 385.402L3046.92 425.15ZM3026.37 334.69C3026.37 331.948 3026.37 329.207 3026.37 326.466C3026.37 314.13 3019.51 307.277 3009.92 307.277C2998.95 307.277 2990.73 316.872 2986.62 334.69H3026.37Z" fill="#F49200"/>
<path fill-rule="evenodd" clip-rule="evenodd" d="M2019.02 281.233C2012.17 277.121 2002.57 273.009 1988.87 273.009C1973.79 273.009 1962.83 275.751 1962.83 290.827C1962.83 318.239 2014.91 307.274 2014.91 364.84C2014.91 416.923 1980.64 430.629 1949.12 430.629C1935.42 430.629 1918.97 426.517 1906.63 421.035L1914.86 382.658C1921.71 389.511 1936.79 393.623 1947.75 393.623C1958.72 393.623 1976.53 390.882 1976.53 371.693C1976.53 341.54 1924.45 352.505 1924.45 299.051C1924.45 249.709 1954.6 236.003 1984.76 236.003C2001.2 236.003 2017.65 238.744 2025.87 244.227L2019.02 281.233Z" fill="#F49200"/>
<path fill-rule="evenodd" clip-rule="evenodd" d="M2228.71 425.15C2221.86 427.891 2210.9 430.632 2197.19 430.632C2165.67 430.632 2146.48 399.108 2146.48 362.102C2146.48 312.76 2173.89 273.012 2215.01 273.012C2224.6 273.012 2238.31 277.124 2249.27 282.606L2241.05 318.242C2232.82 312.76 2225.97 310.019 2217.75 310.019C2198.56 310.019 2184.86 327.836 2184.86 357.99C2184.86 375.808 2194.45 390.884 2210.9 390.884C2220.49 390.884 2227.34 388.143 2234.2 384.031L2228.71 425.15Z" fill="#F49200"/>
<path fill-rule="evenodd" clip-rule="evenodd" d="M2363.01 386.769C2361.64 399.104 2358.9 412.81 2358.9 426.516H2324.64L2327.38 401.845C2316.41 418.293 2305.45 429.258 2286.26 429.258C2264.33 429.258 2253.37 407.328 2253.37 377.174C2253.37 367.58 2253.37 362.098 2256.11 345.65L2265.7 275.75H2304.08L2291.74 345.65C2290.37 353.874 2289 360.727 2289 368.951C2289 377.174 2293.11 386.769 2302.71 386.769C2317.78 386.769 2327.38 367.58 2330.12 345.65L2341.08 277.12H2378.09L2363.01 386.769Z" fill="#F49200"/>
</g>
<g clip-path="url(#clip1_611_655)">
<path d="M3812.82 231.725L3762.52 367.635L3757.13 339.983C3744.56 306.109 3717.33 270.576 3685.69 256.059L3731.84 430.682H3786.43L3867.54 231.448H3812.82V231.725ZM3856.07 431.097L3888.27 231.448H3939.82L3907.62 431.097H3856.07ZM4094.45 236.426C4084.22 232.416 4068.19 227.992 4048.29 227.992C3997.3 227.992 3961.51 255.091 3961.23 293.804C3960.96 322.562 3986.8 338.462 4006.28 348.002C4026.46 357.818 4033.09 364.04 4033.09 372.751C4032.95 386.162 4017.06 392.245 4002.28 392.245C3981.69 392.245 3970.77 389.204 3953.77 381.876L3947.14 378.696L3939.95 423.354C3951.98 428.884 3974.22 433.724 3997.44 434C4051.47 434 4086.71 407.177 4087.12 365.838C4087.4 343.025 4073.58 325.88 4043.87 311.639C4025.91 302.376 4014.85 296.292 4014.99 286.891C4014.99 278.595 4024.25 269.746 4044.56 269.746C4061.42 269.47 4073.58 273.341 4083.11 277.489L4087.67 279.839L4094.45 236.426ZM4226.55 231.725H4186.75C4174.46 231.725 4165.2 235.181 4159.67 248.316L4083.25 431.235H4137.28C4137.28 431.235 4146.13 406.624 4148.2 401.232C4154.14 401.232 4206.65 401.37 4214.12 401.37C4215.77 408.284 4220.33 431.235 4220.33 431.235H4268.29L4226.55 231.725ZM4162.99 360.307C4167.27 348.831 4183.44 304.45 4183.44 304.45C4183.16 305.003 4187.72 292.974 4190.35 285.37L4193.8 302.514C4193.8 302.514 4203.75 350.214 4205.82 360.169C4197.81 360.307 4173.07 360.307 4162.99 360.307Z" fill="#11559C"/>
<path d="M3715.68 231.586H3632.63L3632.07 235.043C3696.61 251.634 3739.31 292.145 3757 340.121L3739.03 248.316C3735.99 235.734 3726.87 232.001 3715.68 231.586Z" fill="#F2A724"/>
<path d="M3476.75 183.334H3444L3406 12.4435L3442.34 6.36L3468.32 140.058L3534.38 8.15737H3569.2L3476.75 183.334ZM3647.69 127.476H3569.34C3567.13 151.257 3578.18 161.627 3596.97 161.627C3612.59 161.627 3626.41 155.82 3641.19 146.418L3641.06 170.199C3626.55 179.324 3609.69 185.131 3589.93 185.131C3555.79 185.131 3533.27 165.636 3540.04 121.669C3546.12 81.9885 3573.62 57.9312 3605.4 57.9312C3642.02 57.9312 3654.18 85.445 3648.93 120.148C3648.66 122.637 3647.83 125.679 3647.69 127.476ZM3601.53 78.9468C3589.37 78.9468 3578.04 88.4868 3572.79 108.535H3621.3C3622.12 89.5929 3616.18 78.9468 3601.53 78.9468ZM3698.68 112.544L3687.9 182.504H3657.64L3676.43 60.4199H3702.27V84.892C3712.5 70.7894 3726.46 58.899 3745.66 57.7929L3745.8 87.9337C3726.46 89.3164 3709.32 99.4094 3698.68 112.544ZM3745.25 182.504L3764.04 60.4199H3794.3L3775.65 182.504H3745.25ZM3782.56 39.9573C3772.47 39.9573 3765.42 32.906 3767.08 22.813C3768.74 12.4435 3777.86 5.11564 3787.95 5.11564C3797.76 5.11564 3804.81 12.4435 3803.15 22.813C3801.63 32.906 3792.51 39.9573 3782.56 39.9573ZM3878.32 27.0991C3867.96 27.0991 3861.74 31.6617 3860.08 42.5842L3857.32 60.5581H3880.53V85.3068H3853.45L3838.52 182.504H3808.4L3823.32 85.1685H3805.64L3809.51 60.4199H3827.19L3830.37 39.4043C3834.52 12.3052 3853.31 2.21218 3878.32 2.21218C3883.57 2.21218 3887.58 2.76522 3890.62 3.18L3890.9 27.9287C3887.86 27.6521 3883.44 27.0991 3878.32 27.0991ZM3878.6 182.504L3897.39 60.4199H3927.66L3909 182.504H3878.6ZM3916.05 39.9573C3905.96 39.9573 3898.91 32.906 3900.43 22.813C3902.09 12.4435 3911.21 5.11564 3921.3 5.11564C3931.11 5.11564 3938.16 12.4435 3936.5 22.813C3934.98 32.906 3925.86 39.9573 3916.05 39.9573ZM4045.39 127.476H3967.04C3964.97 151.257 3975.88 161.627 3994.68 161.627C4010.29 161.627 4024.11 155.82 4038.9 146.418L4038.76 170.199C4024.25 179.324 4007.39 185.131 3987.63 185.131C3953.5 185.131 3930.97 165.636 3937.74 121.669C3943.82 81.9885 3971.32 57.9312 4003.11 57.9312C4039.72 57.9312 4051.89 85.445 4046.63 120.148C4046.36 122.637 4045.53 125.679 4045.39 127.476ZM3999.24 78.9468C3987.08 78.9468 3975.74 88.4868 3970.49 108.535H4019C4019.83 89.5929 4013.88 78.9468 3999.24 78.9468ZM4135.07 182.504L4135.21 165.498C4124.99 175.867 4111.72 184.993 4094.86 184.993C4069.3 184.993 4051.75 166.051 4058.1 124.849C4065.15 79.3616 4093.2 59.1755 4121.53 59.1755C4133.14 59.1755 4142.26 61.2495 4149.17 63.7381L4158.29 4.83912L4189.38 0L4161.33 182.504H4135.07ZM4145.3 88.7633C4138.25 85.1685 4132.72 83.5094 4122.36 83.5094C4106.47 83.5094 4092.79 96.3676 4088.78 123.19C4085.19 146.971 4093.48 158.032 4106.88 158.032C4117.94 158.032 4127.61 151.395 4137.28 141.302L4145.3 88.7633ZM4254.05 183.748C4239.68 183.748 4227.94 181.398 4217.16 177.665L4237.06 47.9764L4260.55 44.3817L4251.98 100.515C4258.89 94.432 4268.42 88.2102 4280.03 88.2102C4299.52 88.2102 4312.64 102.728 4307.81 133.836C4302.56 167.848 4281.55 183.748 4254.05 183.748ZM4271.05 108.396C4263.45 108.396 4255.71 113.512 4248.94 120.425L4242.44 162.318C4247 163.977 4250.05 164.807 4256.54 164.807C4271.05 164.807 4281.28 155.958 4284.45 134.942C4287.22 117.245 4281.28 108.396 4271.05 108.396ZM4361.98 187.62C4350.23 210.433 4338.62 217.484 4320.8 217.484C4316.79 217.484 4314.58 217.069 4312.51 216.516L4312.37 197.574C4315.27 198.404 4318.45 198.957 4322.87 198.957C4329.5 198.957 4335.44 195.915 4339.31 189.14L4342.35 183.057L4322.87 91.9433L4347.33 88.9015L4358.66 154.714L4389.2 90.1459H4412L4361.98 187.62Z" fill="#11559C"/>
</g>
<path d="M920.421 304.165C923.699 304.165 926.43 304.165 929.434 304.165C1138.35 304.165 1347.54 304.165 1556.46 304.165C1578.58 304.165 1593.87 317.82 1596.06 339.94C1596.6 345.402 1596.88 350.591 1595.51 356.599C1378.13 356.599 1160.47 356.599 943.088 356.599C904.582 400.567 856.791 426.784 798.622 432.792C753.561 437.435 710.959 428.696 671.633 406.575C580.42 355.234 542.46 253.097 567.584 160.245C591.343 72.5824 667.537 6.76701 762.846 0.485875C857.61 -5.79526 936.534 49.6426 970.398 119.281C951.554 119.281 932.984 119.281 913.594 119.281C875.907 70.9439 826.204 45.8193 763.666 50.1888C719.151 53.1928 681.464 72.3093 651.97 105.627C588.339 177.723 597.078 285.595 670.541 346.495C743.184 406.302 861.16 397.017 920.421 304.165Z" fill="#03A9E3"/>
<path d="M787.969 283.41C787.969 254.736 787.969 226.061 787.969 197.386C786.877 197.113 786.058 197.113 784.965 196.84C775.953 225.788 766.941 254.736 757.929 283.683C746.459 283.683 735.808 283.683 723.792 283.683C714.78 255.009 705.768 225.788 696.756 196.84C695.937 196.84 695.117 197.113 694.571 197.113C694.571 225.788 694.571 254.189 694.571 283.137C678.185 283.137 662.892 283.137 647.053 283.137C647.053 233.98 647.053 185.097 647.053 136.213C648.964 134.302 651.422 135.121 653.607 135.121C666.442 135.121 679.278 135.121 692.113 135.121C706.314 135.121 715.872 141.675 719.969 155.33C725.977 175.265 731.712 195.474 737.447 215.683C737.993 217.868 737.993 220.599 740.451 222.237C744.274 221.418 743.728 217.595 744.547 215.137C750.282 195.474 755.744 175.812 761.752 156.149C765.849 142.221 775.407 135.394 789.608 135.394C804.355 135.394 819.375 135.394 834.668 135.394C834.668 184.824 834.668 233.981 834.668 283.41C819.648 283.41 804.355 283.41 787.969 283.41Z" fill="#2BB354"/>
<path d="M991.972 236.711C984.598 236.711 978.044 236.711 970.397 236.711C970.397 252.004 970.397 267.297 970.397 283.137C954.285 283.137 938.718 283.137 922.879 283.137C922.879 256.374 922.879 229.61 922.879 202.574C971.217 202.574 1018.73 202.574 1066.53 202.574C1066.25 212.132 1060.52 218.687 1038.4 234.253C1049.05 250.365 1059.7 266.205 1070.9 283.137C1052.05 283.137 1034.57 283.137 1016.55 283.137C1008.63 268.117 1000.44 252.823 991.972 236.711Z" fill="#2BB354"/>
<path d="M916.6 135.94C918.238 134.575 920.15 135.121 921.789 135.121C954.833 135.121 988.151 134.848 1021.19 135.121C1049.32 135.121 1071.99 159.153 1071.17 187.282C1071.17 190.286 1070.9 193.017 1069.26 196.294C1062.71 196.294 1056.15 196.294 1049.6 196.294C1026.66 196.021 1003.72 197.386 980.777 195.474C950.464 193.017 922.881 168.438 916.6 138.944C916.327 138.125 916.6 137.033 916.6 135.94Z" fill="#03A9E3"/>
<path d="M855.697 135.667C871.81 135.667 887.103 135.667 902.669 135.667C902.669 185.096 902.669 233.98 902.669 283.41C886.83 283.41 871.537 283.41 855.697 283.41C855.697 233.98 855.697 185.096 855.697 135.667Z" fill="#2BB354"/>
<path d="M1113.77 262.382C1111.86 268.117 1109.95 274.125 1107.76 280.133C1100.39 280.133 1093.29 280.133 1084.82 280.133C1095.2 249.547 1105.31 219.779 1115.41 189.739C1123.33 189.739 1130.98 189.739 1139.17 189.739C1149.27 219.233 1159.38 249.274 1169.76 279.86C1161.56 281.225 1154.46 280.406 1147.64 280.406C1143.81 274.944 1143.81 268.663 1141.08 262.655C1132.62 262.382 1123.6 262.382 1113.77 262.382ZM1135.89 242.992C1133.16 232.615 1130.7 223.057 1127.7 212.406C1124.7 223.33 1121.96 232.888 1119.23 242.992C1125.24 242.992 1129.88 242.992 1135.89 242.992Z" fill="#03A9E3"/>
<path d="M1412.53 189.739C1412.53 196.294 1412.53 202.029 1412.53 208.583C1401.34 208.583 1390.69 208.583 1379.76 208.583C1377.85 214.045 1378.67 218.96 1378.94 224.695C1387.68 224.695 1396.42 224.695 1405.43 224.695C1406.53 231.523 1406.25 237.531 1405.71 244.358C1396.97 244.358 1388.23 244.358 1379.49 244.358C1378.4 250.366 1378.4 255.282 1379.49 261.017C1390.96 261.017 1402.43 261.017 1414.17 261.017C1414.17 267.571 1414.17 273.306 1414.17 279.587C1395.06 279.587 1375.67 279.587 1356 279.587C1356 249.547 1356 219.78 1356 189.466C1374.85 189.739 1393.42 189.739 1412.53 189.739Z" fill="#03A9E3"/>
<path d="M1341.8 200.664C1341.26 202.029 1340.99 203.121 1340.44 203.941C1337.71 208.31 1334.98 212.68 1331.7 217.868C1322.42 210.222 1312.04 206.945 1300.29 209.949C1295.38 211.314 1291.28 214.318 1288.55 218.415C1281.18 229.338 1282.82 245.997 1292.1 254.463C1302.75 264.294 1316.41 262.929 1333.07 250.366C1337.98 254.463 1340.44 260.471 1344.26 265.113C1335.52 280.953 1301.93 288.599 1279.54 273.579C1257.97 258.832 1253.87 225.515 1271.07 203.941C1287.19 184.005 1322.14 182.093 1341.8 200.664Z" fill="#03A9E3"/>
<path d="M1245.41 250.639C1249.23 255.827 1252.78 260.743 1256.06 265.659C1244.31 284.229 1209.36 287.506 1189.42 272.486C1168.94 256.92 1165.94 223.329 1183.41 203.394C1200.62 184.004 1235.03 182.639 1253.87 201.209C1250.59 206.398 1247.59 211.586 1244.04 217.321C1228.75 208.309 1213.18 201.755 1199.8 219.506C1192.7 229.064 1194.61 244.904 1202.8 253.37C1212.91 264.02 1223.01 263.474 1245.41 250.639Z" fill="#03A9E3"/>
<path d="M1615.72 187.008C1615.72 194.109 1615.72 200.663 1615.72 207.763C1605.62 207.763 1595.78 207.763 1585.41 207.763C1585.41 234.526 1585.41 260.47 1585.41 286.96C1576.94 286.96 1569.02 286.96 1560.56 286.96C1560.56 260.743 1560.56 234.8 1560.56 208.036C1550.18 208.036 1540.62 208.036 1530.51 208.036C1529.7 200.663 1529.97 194.109 1530.24 187.008C1558.92 187.008 1587.05 187.008 1615.72 187.008Z" fill="#03A9E3"/>
<path d="M1420.73 189.193C1445.58 189.193 1469.89 188.374 1494.19 189.466C1512.49 190.285 1526.42 211.313 1521.23 229.338C1513.58 229.338 1505.39 229.611 1497.47 229.338C1485.18 229.064 1472.62 230.157 1460.33 228.245C1440.4 224.968 1424.01 209.402 1420.73 189.193Z" fill="#2BB354"/>
<path d="M1521.78 233.161C1518.23 245.45 1508.4 252.551 1495.83 252.824C1483.82 253.097 1471.8 252.824 1460.06 252.824C1457.6 252.824 1455.14 252.278 1452.14 254.189C1452.14 262.382 1452.14 271.121 1452.14 280.406C1444.49 280.406 1437.39 280.406 1430.02 280.406C1430.02 264.567 1430.02 249.001 1430.02 233.161C1460.6 233.161 1490.92 233.161 1521.78 233.161Z" fill="#03A9E3"/>
<path d="M1135.89 242.992C1129.88 242.992 1124.97 242.992 1119.23 242.992C1121.97 232.888 1124.7 223.056 1127.7 212.406C1130.7 223.056 1133.16 232.615 1135.89 242.992Z" fill="#FDFEFE"/>
<defs>
<clipPath id="clip0_611_655">
<rect width="1154" height="429" fill="white" transform="translate(1908 3)"/>
</clipPath>
<clipPath id="clip1_611_655">
<rect width="1006" height="434" fill="white" transform="translate(3406)"/>
</clipPath>
</defs>
</svg>
