<svg width="79" height="79" viewBox="0 0 79 79" fill="none" xmlns="http://www.w3.org/2000/svg">
<g clip-path="url(#clip0)">
<path d="M15.5212 53.7115H55.3355C55.6926 53.7115 56.0377 53.5866 56.3114 53.3589C56.6938 53.0386 65.4171 45.5344 65.949 29.3354H23.1893C22.6594 44.0397 14.6257 50.9511 14.5422 51.0201C14.0527 51.4337 13.8726 52.1092 14.0928 52.7103C14.3115 53.3098 14.8814 53.7115 15.5212 53.7115Z" fill="#616161"/>
<path d="M64.4765 20.1944H56.8589V18.6709C56.8589 17.8177 56.1886 17.1474 55.3354 17.1474C54.4823 17.1474 53.8119 17.8177 53.8119 18.6709V20.1944H46.0928V18.6709C46.0928 17.8177 45.4225 17.1474 44.5693 17.1474C43.7162 17.1474 43.0458 17.8177 43.0458 18.6709V20.1944H35.4283V18.6709C35.4283 17.8177 34.7579 17.1474 33.9048 17.1474C33.0516 17.1474 32.3813 17.8177 32.3813 18.6709V20.1944H24.7637C23.9106 20.1944 23.2402 20.8647 23.2402 21.7179V26.2884H66V21.7179C66 20.8647 65.3296 20.1944 64.4765 20.1944Z" fill="#616161"/>
<path d="M58.2679 55.6949C57.4406 56.3837 56.4022 56.7587 55.3354 56.7587H23.2402V61.3292C23.2402 62.1713 23.9216 62.8527 24.7637 62.8527H64.4765C65.3186 62.8527 66 62.1713 66 61.3292V44.2511C63.0626 51.4574 58.9638 55.1124 58.2679 55.6949Z" fill="#616161"/>
</g>
<defs>
<clipPath id="clip0">
<rect width="52" height="52" fill="white" transform="translate(14 14)"/>
</clipPath>
</defs>
</svg>
