<svg width="40" height="40" viewBox="0 0 40 40" fill="none" xmlns="http://www.w3.org/2000/svg">
<rect width="40" height="40" rx="20" fill="#424242"/>
<path d="M29.919 18.6057C29.2657 13.6062 25.1883 9.96307 20.1227 10.0003C19.6471 10.0582 19.1054 10.0292 18.5637 10.1243C12.1913 11.2657 8.61429 17.8945 11.2774 23.7789C11.7074 24.73 11.4138 25.3048 10.868 25.9416C10.6778 26.1649 10.4627 26.3634 10.256 26.5743C9.8838 26.9548 9.93343 27.3228 10.3015 27.6619C10.5827 27.9183 10.9093 28.1044 11.2857 28.1871C12.1458 28.3814 13.0059 28.3442 13.8247 28.0506C14.3829 27.848 14.7965 27.9514 15.2803 28.245C17.2321 29.4276 19.3742 29.8122 21.6113 29.4855C26.9913 28.704 30.5931 23.7624 29.919 18.6057ZM21.2433 28.0341C19.1343 28.2698 17.2156 27.8397 15.4829 26.6157C15.0859 26.3345 14.7468 26.26 14.2796 26.4916C13.6055 26.8224 12.8653 26.9424 12.0052 26.8307C12.2368 26.5082 12.4104 26.2725 12.5717 26.0326C13.1424 25.1725 13.2871 24.4075 12.7826 23.3364C10.4007 18.2832 13.6138 12.5765 18.9276 11.7619C23.5756 11.0506 27.8556 14.3381 28.3931 18.9407C28.9142 23.4439 25.6101 27.542 21.2433 28.0341Z" fill="white"/>
<path d="M16.4342 20.1523C16.4342 19.7347 16.426 19.317 16.4342 18.8952C16.4508 18.155 16.7485 17.9607 17.4267 18.2336C17.5218 18.2708 17.6045 18.3659 17.712 18.3122C18.3075 18.0227 18.8699 18.0227 19.424 18.4279C19.5853 18.5479 19.73 18.3577 19.8789 18.2915C21.0616 17.7456 21.9217 18.2832 21.9465 19.5858C21.9589 20.2557 21.9465 20.9256 21.9465 21.5955C21.9465 21.9925 21.7852 22.2324 21.3552 22.2365C20.8961 22.2406 20.8052 21.9594 20.8093 21.5749C20.8176 20.9463 20.8052 20.3178 20.8134 19.6933C20.8176 19.346 20.7266 19.0317 20.3296 19.0193C19.9244 19.0069 19.7466 19.3005 19.7383 19.6851C19.73 20.3343 19.73 20.9835 19.7341 21.6328C19.7341 21.9594 19.6638 22.2117 19.2669 22.2365C18.8409 22.2655 18.6259 22.0504 18.6094 21.6576C18.5845 20.967 18.5928 20.2764 18.597 19.5858C18.597 19.2963 18.5887 19.0027 18.2 19.0193C17.8692 19.0317 17.6624 19.2219 17.6541 19.5817C17.6376 20.2516 17.6169 20.9174 17.6004 21.5873C17.5921 21.9594 17.497 22.2448 17.0338 22.2365C16.5459 22.2324 16.4425 21.914 16.4342 21.5294C16.4218 21.0704 16.4342 20.6114 16.4342 20.1523Z" fill="white"/>
<path d="M24.4398 18.1013C23.3936 18.1178 22.5955 19.0441 22.5996 20.2268C22.6079 21.4178 23.4763 22.373 24.5266 22.3441C25.5481 22.3192 26.3875 21.3475 26.3792 20.202C26.371 19.0028 25.5232 18.0848 24.4398 18.1013ZM24.4481 21.2399C23.9849 21.2193 23.6169 20.7065 23.621 20.0862C23.6252 19.4452 23.9849 18.9573 24.4646 18.9449C24.965 18.9325 25.3537 19.4411 25.3496 20.1069C25.3413 20.7975 24.9733 21.2606 24.4481 21.2399Z" fill="white"/>
<path d="M14.2755 20.1522C14.2755 19.6725 14.2755 19.1887 14.2755 18.709C14.2755 18.3658 14.4161 18.1342 14.7759 18.1136C15.148 18.0929 15.3879 18.2872 15.392 18.6677C15.4044 19.6725 15.4085 20.6774 15.3879 21.6823C15.3796 22.042 15.1728 22.2571 14.7759 22.2405C14.3995 22.2198 14.2714 22.0048 14.2755 21.6616C14.2796 21.1571 14.2755 20.6526 14.2755 20.1522Z" fill="white"/>
<path d="M14.8713 16.5713C15.2518 16.654 15.5247 16.8566 15.5164 17.2412C15.5082 17.5968 15.2601 17.8077 14.8962 17.8201C14.524 17.8325 14.2965 17.6423 14.28 17.2619C14.2635 16.8566 14.5405 16.6788 14.8713 16.5713Z" fill="white"/>
</svg>
