<svg width="40" height="40" viewBox="0 0 40 40" fill="none" xmlns="http://www.w3.org/2000/svg">
<g clip-path="url(#clip0)">
<path d="M2.49952 2.72215C-0.643815 5.98715 -0.000481725 9.45549 -0.000481725 19.9922C-0.000481725 28.7422 -1.52715 37.5138 6.46285 39.5788C8.95785 40.2205 31.0645 40.2205 33.5562 39.5755C36.8829 38.7172 39.5895 36.0188 39.9595 31.3138C40.0112 30.6572 40.0112 9.33882 39.9579 8.66882C39.5645 3.65715 36.4795 0.768818 32.4145 0.183818C31.4828 0.0488176 31.2962 0.00881757 26.5162 0.000484236C9.56118 0.00881757 5.84452 -0.746183 2.49952 2.72215Z" fill="#424242"/>
<path d="M20.0002 12.0077C16.7234 12.0077 13.6118 11.7162 12.4232 14.7665C11.9323 16.0263 12.0036 17.6625 12.0036 20.0052C12.0036 22.061 11.9377 23.9931 12.4232 25.243C13.6091 28.2951 16.746 28.0027 19.9984 28.0027C23.1362 28.0027 26.3715 28.3294 27.5744 25.243C28.0663 23.9706 27.9941 22.3588 27.9941 20.0052C27.9941 16.8809 28.1664 14.864 26.6512 13.3497C25.1171 11.8155 23.0423 12.0077 19.9966 12.0077H20.0002ZM19.2837 13.4489C26.1188 13.4381 26.9888 12.6782 26.5086 23.2342C26.3381 26.9676 23.4954 26.5579 20.0011 26.5579C13.6298 26.5579 13.4466 26.3756 13.4466 20.0016C13.4466 13.5536 13.952 13.4525 19.2837 13.4471V13.4489ZM24.2688 14.7764C23.739 14.7764 23.3095 15.206 23.3095 15.7357C23.3095 16.2655 23.739 16.695 24.2688 16.695C24.7985 16.695 25.2281 16.2655 25.2281 15.7357C25.2281 15.206 24.7985 14.7764 24.2688 14.7764ZM20.0002 15.8982C17.7323 15.8982 15.8941 17.7374 15.8941 20.0052C15.8941 22.2731 17.7323 24.1113 20.0002 24.1113C22.268 24.1113 24.1054 22.2731 24.1054 20.0052C24.1054 17.7374 22.268 15.8982 20.0002 15.8982ZM20.0002 17.3394C23.5243 17.3394 23.5288 22.671 20.0002 22.671C16.477 22.671 16.4716 17.3394 20.0002 17.3394Z" fill="white"/>
</g>
<defs>
<clipPath id="clip0">
<rect width="40" height="40" rx="20" fill="white"/>
</clipPath>
</defs>
</svg>
