<svg width="79" height="79" viewBox="0 0 79 79" fill="none" xmlns="http://www.w3.org/2000/svg">
<g clip-path="url(#clip0)">
<path d="M35.2725 28.2997C35.2725 32.1855 43.0016 34.2191 50.6361 34.2191C58.2707 34.2191 65.9998 32.1855 65.9998 28.2997C65.9997 20.5282 35.2725 20.5282 35.2725 28.2997Z" fill="#616161"/>
<path d="M65.4297 34.033C65.0777 33.8203 64.6356 33.8052 64.2698 33.9972C61.0867 35.6667 56.2452 36.5869 50.6361 36.5869C45.0271 36.5869 40.1856 35.6667 37.0025 33.9972C36.6367 33.8053 36.1946 33.8203 35.8426 34.033C35.4883 34.2468 35.2725 34.6318 35.2725 35.0458V35.403C35.2725 39.2887 43.0016 41.3223 50.6361 41.3223C58.2707 41.3223 65.9998 39.2887 65.9998 35.403V35.0458C65.9997 34.6318 65.7839 34.2468 65.4297 34.033Z" fill="#616161"/>
<path d="M21.0908 51.9773C21.0908 55.8631 28.8199 57.8967 36.4545 57.8967C44.0891 57.8967 51.8182 55.863 51.8182 51.9773C51.8181 44.2058 21.0908 44.2058 21.0908 51.9773Z" fill="#616161"/>
<path d="M51.248 57.7106C50.8948 57.499 50.454 57.4829 50.0881 57.6749C46.9051 59.3443 42.0635 60.2646 36.4545 60.2646C30.8455 60.2646 26.0039 59.3443 22.8209 57.6749C22.455 57.483 22.013 57.4991 21.661 57.7106C21.3067 57.9245 21.0908 58.3095 21.0908 58.7234V59.0806C21.0908 62.9665 28.8199 65 36.4545 65C44.0891 65 51.8182 62.9664 51.8182 59.0806V58.7234C51.8181 58.3095 51.6022 57.9245 51.248 57.7106Z" fill="#616161"/>
<path d="M29.3637 24.748C30.9598 24.748 32.556 24.6578 34.1083 24.4786C34.361 24.4497 34.5977 24.3399 34.7835 24.1653C36.5735 22.4773 39.6319 21.2322 43.6275 20.5651C44.05 20.4945 44.402 20.2009 44.5462 19.7963C44.6685 19.4553 44.7274 19.1385 44.7274 18.8286C44.7273 11.057 14 11.057 14 18.8285C14 22.7143 21.7291 24.748 29.3637 24.748Z" fill="#616161"/>
<path d="M29.3637 31.8513C30.3423 31.8513 31.2968 31.8177 32.2213 31.7565C32.5941 31.731 32.9323 31.5322 33.1354 31.2177C33.3374 30.9043 33.38 30.5124 33.2508 30.1621C33.0212 29.5435 32.9093 28.9343 32.915 28.236C32.915 27.9123 32.7823 27.6025 32.5479 27.3794C32.3148 27.1562 31.9859 27.021 31.6765 27.0533C30.9044 27.0903 30.1323 27.1157 29.3637 27.1157C23.7547 27.1157 18.9131 26.1954 15.7301 24.5259C15.3642 24.334 14.9222 24.3491 14.5702 24.5617C14.2158 24.7758 14 25.1608 14 25.5747V25.9319C14 29.8178 21.7291 31.8513 29.3637 31.8513Z" fill="#616161"/>
<path d="M29.3637 38.9546C30.3423 38.9546 31.2968 38.921 32.2213 38.8598C32.5941 38.8343 32.9323 38.6355 33.1354 38.321C33.3374 38.0077 33.38 37.6158 33.2508 37.2654C33.0212 36.6469 32.9093 36.0376 32.9093 35.3394C32.9093 35.0156 32.7765 34.7058 32.5422 34.4827C32.3091 34.2596 31.9859 34.1324 31.6708 34.1566C30.901 34.1936 30.1312 34.219 29.3637 34.219C23.7547 34.219 18.9131 33.2987 15.7301 31.6293C15.3642 31.4374 14.9222 31.4524 14.5702 31.6651C14.2158 31.8791 14 32.2641 14 32.6779V33.0352C14 36.921 21.7291 38.9546 29.3637 38.9546Z" fill="#616161"/>
<path d="M65.4303 48.2395C65.076 48.0233 64.6362 48.0117 64.2704 48.2037C62.0464 49.3703 58.9175 50.1853 55.2232 50.5588C54.6 50.6224 54.1557 51.3508 54.1822 51.9774C54.1822 52.5775 54.0853 53.1509 53.8867 53.7278C53.7551 54.1105 53.8279 54.5348 54.0795 54.8516C54.3057 55.1349 54.6462 55.2979 55.004 55.2979C55.0455 55.2979 55.0882 55.2955 55.1309 55.2909C61.9368 54.5555 66.0004 52.4318 66.0004 49.6096V49.2523C66.0003 48.8385 65.7845 48.4535 65.4303 48.2395Z" fill="#616161"/>
<path d="M36.4542 43.6901L37.2379 43.704C37.2448 43.704 37.2517 43.704 37.2587 43.704C37.8103 43.704 38.2893 43.3213 38.4116 42.7814C38.5352 42.2334 38.2582 41.675 37.748 41.4425L37.4952 41.3292C37.3267 41.2552 37.1571 41.1812 37.0001 41.0991C36.6319 40.906 36.1957 40.9234 35.8414 41.1372C35.4882 41.351 35.2725 41.7349 35.2725 42.1488V42.506C35.2724 43.1606 35.801 43.6901 36.4542 43.6901Z" fill="#616161"/>
<path d="M65.4297 41.1363C65.0777 40.9236 64.6356 40.9085 64.2698 41.1005C61.0867 42.77 56.2452 43.6903 50.6361 43.6903L49.8559 43.6752C49.3793 43.6348 48.8091 44.0544 48.6879 44.6012C48.5656 45.1481 48.8426 45.7053 49.3516 45.9365C50.6315 46.5192 51.6772 47.2118 52.4585 47.9944C52.6812 48.2165 52.9814 48.3401 53.2941 48.3401C53.3184 48.3401 53.3438 48.339 53.3691 48.3378C59.1951 47.9679 65.9998 46.2186 65.9998 42.5063V42.1491C65.9997 41.7352 65.7839 41.3502 65.4297 41.1363Z" fill="#616161"/>
<path d="M23.8838 45.6903C24.0315 45.6903 24.1793 45.6626 24.3189 45.6071C26.401 44.7828 28.94 44.2151 31.8669 43.9204C32.4901 43.858 32.9356 43.0695 32.909 42.4428C32.909 42.1191 32.7763 41.8093 32.542 41.5861C32.3089 41.363 31.9857 41.2439 31.6706 41.2601C30.9008 41.2971 30.1309 41.3225 29.3635 41.3225C23.7544 41.3225 18.9129 40.4022 15.7299 38.7327C15.364 38.5408 14.9219 38.5559 14.5699 38.7685C14.2158 38.9824 14 39.3674 14 39.7813V40.1385C14 42.7548 17.6332 44.8266 23.72 45.6787C23.7743 45.6868 23.8297 45.6903 23.8838 45.6903Z" fill="#616161"/>
</g>
<defs>
<clipPath id="clip0">
<rect width="52" height="52" fill="white" transform="translate(14 13)"/>
</clipPath>
</defs>
</svg>
