<svg width="79" height="79" viewBox="0 0 79 79" fill="none" xmlns="http://www.w3.org/2000/svg">
<g clip-path="url(#clip0)">
<path fill-rule="evenodd" clip-rule="evenodd" d="M8.24952 7.45981C8.2568 5.80297 9.60583 4.46574 11.2627 4.47302L53.2623 4.6575C54.9191 4.66478 56.2563 6.01381 56.2491 7.67065L56.0224 59.2701C56.0151 60.927 54.6661 62.2642 53.0093 62.2569L11.0097 62.0725C9.35282 62.0652 8.01559 60.7162 8.02287 59.0593L8.24952 7.45981ZM32.0094 35.9603C30.7596 35.9793 29.5128 36.0869 28.2791 36.2822C26.9646 36.4852 25.5443 36.779 23.9222 37.1647C23.8545 37.1802 23.7835 37.1745 23.7192 37.1485C23.6549 37.1225 23.6006 37.0775 23.564 37.0198L20.284 31.8296C20.2437 31.7647 20.2283 31.6882 20.2404 31.6133C20.2526 31.5383 20.2915 31.4698 20.3504 31.4202C20.4093 31.3706 20.4843 31.3427 20.5622 31.3419C20.64 31.341 20.7156 31.3674 20.7757 31.4157C21.8093 32.1937 22.7214 32.6219 23.4774 32.6852C23.7781 32.7151 24.0817 32.6736 24.3624 32.5645C24.6365 32.4428 24.8744 32.2555 25.0542 32.02C25.4872 31.4753 25.7717 30.608 25.8806 29.4089C25.8839 29.3667 25.8959 29.3255 25.9157 29.2879C25.9355 29.2502 25.9629 29.2165 25.9962 29.1893C26.0294 29.1621 26.0679 29.1417 26.1094 29.1292C26.1509 29.1167 26.1944 29.1128 26.2375 29.117C26.288 29.1201 26.3369 29.1347 26.3803 29.1599C26.4238 29.1852 26.4604 29.22 26.4872 29.2618C27.3301 30.4341 28.0692 30.9415 28.7962 30.9048C29.3714 30.8788 29.9759 30.5207 30.6475 29.8882C31.0101 29.5467 31.1911 29.0596 31.1932 28.5615L31.2026 26.4242C31.2038 26.1546 31.1058 25.8721 30.8544 25.7745C30.7715 25.7423 30.6847 25.721 30.5965 25.7111C30.492 25.6994 30.3863 25.7143 30.2852 25.7434C30.069 25.8058 29.8652 25.9044 29.683 26.0353C29.6464 26.0581 29.6055 26.0738 29.5628 26.081C29.52 26.0883 29.4762 26.087 29.4339 26.0775C29.3916 26.0681 29.3517 26.0505 29.3164 26.0258C29.2811 26.0011 29.2512 25.9699 29.2285 25.9338C29.205 25.8969 29.1894 25.8559 29.1825 25.813C29.1295 25.5506 29.1023 25.2838 29.1012 25.0164C29.0776 24.2879 29.3298 23.5764 29.8097 23.0178C30.2446 22.536 30.8327 22.2106 31.4799 22.094C31.6734 22.0563 31.8705 22.0384 32.0679 22.0404L32.0731 22.0405C32.2702 22.0403 32.4668 22.0599 32.6598 22.0992C33.3059 22.2216 33.8912 22.5521 34.3219 23.0376C34.7983 23.6013 35.0449 24.3165 35.0143 25.0463C35.0102 25.3156 34.9798 25.5839 34.9235 25.8475C34.9152 25.889 34.8985 25.9284 34.8745 25.9635C34.8505 25.9986 34.8195 26.029 34.7835 26.0523C34.7474 26.0756 34.707 26.0916 34.6645 26.0995C34.622 26.1074 34.5782 26.1067 34.5359 26.098C34.495 26.091 34.4561 26.0754 34.4221 26.0522C34.2409 25.9219 34.0385 25.8229 33.8239 25.7589C33.7221 25.7286 33.6156 25.7126 33.51 25.7235C33.4225 25.7326 33.3363 25.7528 33.2538 25.7841C33.0019 25.8796 32.9018 26.1614 32.9006 26.4308L32.8912 28.5688C32.8891 29.0667 33.0656 29.5552 33.425 29.8998C34.0906 30.538 34.6917 30.9012 35.2669 30.9323C35.9956 30.9753 36.7404 30.4719 37.6004 29.2988C37.6393 29.2448 37.6945 29.204 37.7583 29.1818C37.8221 29.1597 37.8913 29.1574 37.9564 29.1753C38.0216 29.1932 38.0795 29.2306 38.1221 29.2819C38.1646 29.3333 38.1898 29.3961 38.1941 29.462C38.2922 30.662 38.571 31.531 38.9992 32.0802C39.1774 32.3176 39.4143 32.507 39.6879 32.6308C39.9676 32.7425 40.2709 32.7866 40.5718 32.7593C41.3297 32.7026 42.2505 32.2796 43.2935 31.5077C43.3547 31.4623 43.4302 31.4389 43.5071 31.4422C43.5839 31.4454 43.6571 31.4753 43.7139 31.5258C43.7708 31.5763 43.8078 31.6445 43.8184 31.7188C43.8289 31.7931 43.8125 31.8686 43.7719 31.9323L40.4455 37.0935C40.4073 37.1531 40.3501 37.1987 40.2826 37.2233C40.2151 37.2478 40.1411 37.2499 40.0722 37.2292C38.4608 36.8321 37.047 36.5262 35.7387 36.3145C34.506 36.1085 33.2596 35.99 32.0094 35.9603ZM32.0021 24.7223C32.0311 24.7575 32.0861 24.7569 32.1164 24.7228C32.2854 24.5299 32.5237 24.4074 32.7824 24.3806C32.7981 24.3781 32.8139 24.3773 32.8298 24.3778L32.9047 24.3791C33.1831 24.384 33.3722 24.1035 33.1566 23.9272C32.8494 23.6782 32.4631 23.5411 32.0637 23.5393C31.6643 23.5376 31.2768 23.6713 30.9674 23.9176C30.751 24.092 30.9363 24.374 31.2142 24.3716L31.2775 24.371C31.2972 24.3706 31.3169 24.3717 31.3365 24.3742C31.5955 24.4037 31.8336 24.5282 32.0021 24.7223ZM18.6003 30.5144C18.8766 29.7079 18.6002 28.8154 17.9165 28.3062L17.896 28.291C17.8411 28.2502 17.8007 28.1938 17.7806 28.1294C17.7605 28.0651 17.7616 27.9962 17.7839 27.9325C17.8061 27.8688 17.8483 27.8135 17.9045 27.7745C17.9606 27.7354 18.0281 27.7144 18.0971 27.7147L18.2828 27.7156C19.0473 27.7189 19.7306 27.2395 19.9876 26.5196C20.002 26.4798 20.0242 26.4434 20.053 26.412C20.0818 26.3807 20.1167 26.3553 20.1557 26.3371C20.1946 26.319 20.2369 26.3084 20.28 26.3062C20.3231 26.304 20.3662 26.3099 20.4069 26.324C20.4568 26.3398 20.5021 26.3674 20.5384 26.4043C20.5748 26.4412 20.6012 26.4863 20.6153 26.5356C20.87 27.2512 21.5459 27.7304 22.3055 27.7337L22.5415 27.7348C22.6124 27.7346 22.6813 27.7569 22.7382 27.7982C22.7951 27.8394 22.8368 27.8974 22.8571 27.9636C22.8774 28.0299 22.8752 28.1006 22.8508 28.1655C22.8264 28.2304 22.7812 28.2862 22.7219 28.324L22.6782 28.3559C22.0086 28.8448 21.726 29.7067 21.9762 30.4972C21.989 30.5376 21.9936 30.5797 21.9896 30.6218C21.9856 30.6639 21.9732 30.7049 21.953 30.7423C21.9328 30.7797 21.9051 30.813 21.8718 30.8399C21.8384 30.8669 21.8 30.8871 21.7586 30.8995C21.7106 30.9151 21.6595 30.9189 21.6096 30.9112C21.5597 30.9034 21.5125 30.8843 21.4719 30.8549L21.4337 30.8288C20.7447 30.3578 19.8356 30.3642 19.1533 30.8449L19.107 30.8775C19.0503 30.917 18.9823 30.9377 18.9127 30.9372C18.8431 30.9368 18.7755 30.9151 18.7194 30.8748C18.6633 30.8346 18.6217 30.778 18.6005 30.7133C18.5792 30.6486 18.5786 30.5789 18.6003 30.5144ZM20.5463 25.0108C20.8223 24.2041 20.5452 23.3116 19.8609 22.803L19.8406 22.7879C19.8061 22.7624 19.7772 22.7304 19.7554 22.694C19.7336 22.6575 19.7194 22.6174 19.7135 22.5756C19.7077 22.5338 19.7103 22.4914 19.7213 22.4506C19.7323 22.4097 19.7515 22.3711 19.7777 22.3375C19.8083 22.2977 19.8481 22.2656 19.8938 22.2435C19.9396 22.2215 19.9901 22.2102 20.0412 22.2107L20.2275 22.2115C20.9914 22.2148 21.6745 21.7365 21.9325 21.0175C21.9557 20.9535 21.9992 20.8984 22.0565 20.86C22.1138 20.8215 22.1822 20.8015 22.2517 20.8032C22.3213 20.8049 22.3886 20.8279 22.4439 20.8691C22.4992 20.9102 22.5398 20.9675 22.5598 21.0326C22.8145 21.7473 23.4898 22.2258 24.2486 22.2292L24.4853 22.2302C24.5288 22.2303 24.5719 22.239 24.6121 22.2554C24.6522 22.2718 24.6887 22.2956 24.7193 22.3258C24.7499 22.356 24.774 22.3921 24.7904 22.4315C24.8067 22.4708 24.815 22.5127 24.8146 22.5552C24.8145 22.6078 24.8009 22.6595 24.7749 22.7057C24.749 22.7519 24.7115 22.7911 24.666 22.8194L24.6216 22.852C23.9525 23.3419 23.6702 24.2038 23.9199 24.9946C23.9328 25.035 23.9373 25.0776 23.9333 25.1197C23.9294 25.1619 23.917 25.2023 23.8967 25.2397C23.8765 25.2771 23.8488 25.3104 23.8154 25.3374C23.782 25.3643 23.7435 25.3846 23.702 25.3969C23.6543 25.4119 23.6035 25.4156 23.5539 25.4081C23.5044 25.4006 23.4572 25.3821 23.4162 25.3538L23.3797 25.3287C22.6906 24.8558 21.78 24.8612 21.0966 25.3423L21.0503 25.3749C20.9788 25.4236 20.8904 25.4426 20.8045 25.428C20.7185 25.4135 20.642 25.3664 20.5914 25.2971C20.5608 25.2564 20.5407 25.2093 20.5328 25.1595C20.5249 25.1096 20.5297 25.0586 20.5463 25.0108ZM25.0224 20.8356C25.2982 20.0291 25.0215 19.1368 24.3377 18.628L24.3164 18.6122C24.2618 18.5712 24.2217 18.5145 24.2018 18.4501C24.1819 18.3858 24.1833 18.3168 24.2056 18.2532C24.2279 18.1896 24.27 18.1347 24.3262 18.0957C24.3823 18.0567 24.4496 18.0357 24.5185 18.0359L24.7028 18.0367C25.4674 18.0401 26.1511 17.5608 26.4086 16.8408C26.4314 16.7762 26.4748 16.7207 26.5323 16.6818C26.5899 16.6428 26.6587 16.6227 26.7287 16.6245C26.7988 16.6263 26.8664 16.6495 26.9218 16.6914C26.9772 16.7332 27.0176 16.7912 27.0369 16.8568C27.2913 17.5724 27.967 18.0516 28.7264 18.0549L28.9622 18.056C29.0054 18.056 29.0483 18.0639 29.0881 18.0801C29.128 18.0963 29.1641 18.1202 29.1946 18.15C29.2251 18.1799 29.2492 18.2153 29.2656 18.2543C29.282 18.2933 29.2904 18.3353 29.2902 18.3775C29.2899 18.4304 29.2762 18.4823 29.2505 18.529C29.2248 18.5756 29.1879 18.6157 29.1428 18.6452L29.0993 18.677C28.4298 19.166 28.1472 20.0279 28.3972 20.8184C28.4101 20.8588 28.4147 20.9009 28.4107 20.943C28.4067 20.9851 28.3942 21.0261 28.3739 21.0635C28.3537 21.1009 28.3261 21.1342 28.2927 21.1611C28.2593 21.1881 28.2208 21.2083 28.1794 21.2207C28.1313 21.2351 28.0805 21.2385 28.0309 21.2304C27.9813 21.2223 27.9343 21.203 27.8936 21.1742L27.852 21.1459C27.1638 20.6777 26.2575 20.6847 25.5767 21.1635L25.5259 21.1992C25.4693 21.2387 25.4013 21.2599 25.3318 21.2594C25.2622 21.2589 25.1947 21.2368 25.1387 21.1965C25.0827 21.1563 25.0412 21.0996 25.0201 21.035C24.9991 20.9703 25.0005 20.9 25.0224 20.8356ZM30.5456 18.3825C30.8221 17.5751 30.5444 16.6817 29.8591 16.1732L29.8401 16.1591C29.7855 16.1181 29.7454 16.0614 29.7254 15.9971C29.7055 15.9327 29.7068 15.8642 29.7291 15.8006C29.7513 15.737 29.7934 15.6816 29.8494 15.6426C29.9055 15.6035 29.9728 15.5827 30.0417 15.5829L30.2263 15.5837C30.9906 15.587 31.6739 15.1076 31.9307 14.3877C31.9534 14.3233 31.9965 14.2677 32.0537 14.2287C32.111 14.1896 32.1794 14.1692 32.2492 14.1705C32.3191 14.1717 32.3867 14.1947 32.4424 14.2358C32.4981 14.2769 32.539 14.3341 32.5592 14.3993C32.8141 15.1172 33.4919 15.598 34.2537 15.6014L34.4846 15.6024C34.5278 15.6022 34.5707 15.6105 34.6107 15.6266C34.6507 15.6426 34.687 15.6662 34.7176 15.696C34.7482 15.7258 34.7725 15.7612 34.789 15.8002C34.8055 15.8392 34.8139 15.8807 34.8137 15.9229C34.8134 15.9758 34.7999 16.0283 34.7742 16.0749C34.7485 16.1215 34.7114 16.1612 34.6662 16.1906L34.6267 16.2194C33.9548 16.7087 33.6704 17.5725 33.9203 18.3653C33.9406 18.4293 33.9398 18.4978 33.918 18.5613C33.8962 18.6248 33.8546 18.6801 33.7989 18.7193C33.7433 18.7585 33.6764 18.7794 33.6077 18.7795C33.5391 18.7797 33.4721 18.759 33.4163 18.7201L33.3757 18.6924C32.6881 18.2233 31.7818 18.2291 31.1002 18.707L31.0501 18.7422C30.9938 18.7815 30.9262 18.8022 30.857 18.8019C30.7878 18.8016 30.7203 18.7803 30.6644 18.7405C30.6084 18.7007 30.5668 18.6446 30.5453 18.5804C30.5238 18.5162 30.5245 18.4468 30.5456 18.3825ZM36.135 20.8844C36.4113 20.078 36.1347 19.1855 35.4509 18.6766L35.4298 18.661C35.375 18.6201 35.3348 18.5634 35.3148 18.499C35.2948 18.4346 35.296 18.3657 35.3183 18.302C35.3406 18.2383 35.3828 18.183 35.439 18.144C35.4953 18.105 35.5627 18.0844 35.6316 18.0848L35.8174 18.0856C36.5819 18.0889 37.2652 17.6095 37.5222 16.8896C37.5363 16.8496 37.5582 16.8127 37.5869 16.7811C37.6157 16.7494 37.6505 16.7236 37.6895 16.7052C37.7285 16.6867 37.7708 16.6762 37.8141 16.6737C37.8574 16.6713 37.9007 16.677 37.9416 16.691C37.9914 16.708 38.0363 16.7365 38.0726 16.7738C38.109 16.8112 38.1357 16.8562 38.1506 16.9056C38.4057 17.6213 39.0819 18.1004 39.8417 18.1037L40.0761 18.1048C40.1193 18.1048 40.1621 18.1128 40.202 18.129C40.2419 18.1451 40.2782 18.169 40.3086 18.1989C40.3391 18.2287 40.3632 18.2641 40.3796 18.3031C40.396 18.3421 40.4042 18.3841 40.4039 18.4263C40.4036 18.4791 40.3901 18.5312 40.3645 18.5778C40.339 18.6244 40.3021 18.6643 40.2572 18.694L40.2135 18.7259C39.544 19.2149 39.2613 20.0767 39.5111 20.8672C39.5369 20.9488 39.5284 21.0369 39.4876 21.1123C39.4467 21.1878 39.3767 21.2443 39.2932 21.2695C39.2451 21.2839 39.1942 21.2873 39.1446 21.2792C39.0949 21.2711 39.0479 21.2518 39.0072 21.223L38.9669 21.1955C38.2787 20.7269 37.3722 20.7336 36.6911 21.2124L36.6403 21.248C36.5691 21.2973 36.4807 21.3171 36.3946 21.3031C36.3085 21.2891 36.2315 21.2423 36.1805 21.1731C36.1496 21.1321 36.1292 21.0848 36.1213 21.0345C36.1133 20.9842 36.1183 20.9326 36.135 20.8844ZM40.575 25.0988C40.8512 24.2921 40.5743 23.3994 39.8902 22.8905L39.8706 22.8759C39.8011 22.8242 39.7554 22.748 39.7437 22.6636C39.7319 22.5791 39.7551 22.4933 39.8079 22.4255C39.8385 22.3857 39.8782 22.3535 39.924 22.3315C39.9697 22.3094 40.0201 22.2981 40.0711 22.2987L40.2581 22.2995C41.0217 22.3028 41.7044 21.8244 41.9617 21.1055C41.9849 21.0414 42.0282 20.986 42.0856 20.9475C42.143 20.9089 42.2114 20.889 42.2811 20.8907C42.3507 20.8924 42.418 20.9158 42.4734 20.957C42.5288 20.9983 42.5692 21.0554 42.5892 21.1205C42.8439 21.8353 43.5192 22.3138 44.2779 22.3171L44.5156 22.3182C44.5591 22.3184 44.6021 22.3269 44.6422 22.3434C44.6823 22.3598 44.7187 22.3841 44.7493 22.4142C44.7798 22.4444 44.804 22.4801 44.8204 22.5194C44.8368 22.5587 44.8451 22.6007 44.8448 22.6431C44.8447 22.6958 44.8309 22.7475 44.805 22.7936C44.7791 22.8398 44.7418 22.8789 44.6965 22.9074L44.6519 22.94C43.9827 23.4298 43.7007 24.292 43.9511 25.0826C43.9766 25.1643 43.9677 25.2528 43.9266 25.3282C43.8855 25.4036 43.8154 25.4598 43.7316 25.4849C43.6841 25.4996 43.6337 25.5036 43.5844 25.4961C43.5351 25.4886 43.4882 25.4699 43.4475 25.4418L43.4106 25.4165C42.7214 24.9437 41.8109 24.9493 41.1275 25.4306L41.0816 25.4629C41.01 25.5116 40.9217 25.5306 40.8357 25.516C40.7498 25.5015 40.6732 25.4544 40.6226 25.3851C40.5919 25.3445 40.5715 25.2972 40.5632 25.2474C40.5548 25.1976 40.5591 25.1468 40.575 25.0988ZM42.296 30.6184C42.5727 29.8121 42.2963 28.9195 41.6124 28.4106L41.5916 28.395C41.5572 28.3696 41.5282 28.338 41.5064 28.3016C41.4846 28.2652 41.4704 28.225 41.4645 28.1832C41.4587 28.1415 41.4615 28.0989 41.4725 28.0582C41.4836 28.0175 41.5027 27.9792 41.5289 27.9457C41.5599 27.9062 41.5999 27.8742 41.6456 27.8522C41.6913 27.8301 41.7416 27.8188 41.7926 27.8188L41.9781 27.8196C42.7426 27.823 43.426 27.3436 43.6832 26.6237C43.6976 26.5839 43.7198 26.5475 43.7487 26.5161C43.7776 26.4847 43.8126 26.4589 43.8516 26.4407C43.8907 26.4226 43.933 26.4124 43.9762 26.4103C44.0194 26.4081 44.0626 26.4139 44.1034 26.428C44.1531 26.4442 44.198 26.472 44.2343 26.5089C44.2705 26.5458 44.2971 26.5906 44.3116 26.6397C44.566 27.3553 45.2418 27.8345 46.0012 27.8378L46.2371 27.8388C46.2805 27.8389 46.3236 27.8471 46.3637 27.8635C46.4038 27.8799 46.4401 27.9038 46.4706 27.9339C46.5012 27.9641 46.5254 27.9998 46.5417 28.0391C46.5581 28.0784 46.5662 28.1204 46.5658 28.1628C46.5655 28.2155 46.5518 28.2676 46.5259 28.3138C46.5 28.36 46.4627 28.3994 46.4175 28.4281L46.3739 28.4599C45.7044 28.9488 45.4219 29.8108 45.6721 30.6013C45.6849 30.6417 45.6892 30.6843 45.6851 30.7264C45.6809 30.7685 45.6683 30.8095 45.648 30.8469C45.6276 30.8843 45.5999 30.9171 45.5664 30.944C45.5329 30.9709 45.4942 30.9913 45.4526 31.0036C45.4051 31.0189 45.3545 31.023 45.3051 31.0153C45.2556 31.0075 45.2087 30.9881 45.1685 30.959L45.1301 30.9328C44.4415 30.4618 43.5329 30.4678 42.8505 30.9477L42.8023 30.9816C42.7457 31.0206 42.6778 31.041 42.6085 31.0403C42.5391 31.0397 42.4717 31.0181 42.4159 30.9779C42.36 30.9378 42.3186 30.8813 42.2973 30.8169C42.2761 30.7525 42.2746 30.6828 42.296 30.6184ZM18.6728 47.706C18.1206 47.7036 17.6709 48.1493 17.6685 48.7016C17.666 49.2539 18.1118 49.7035 18.6641 49.706L45.4638 49.8237C46.0161 49.8261 46.4658 49.3804 46.4682 48.8281C46.4706 48.2758 46.0249 47.8261 45.4726 47.8237L18.6728 47.706Z" fill="#616161"/>
</g>
<g clip-path="url(#clip1)">
<rect x="32.9414" y="39.9227" width="40" height="31" rx="4" transform="rotate(9.65433 32.9414 39.9227)" fill="#EBEBEB"/>
<path d="M37.5894 42.7422L67.7122 47.8664C69.2937 48.1355 70.4811 49.8097 70.2121 51.3911L66.6251 72.4771C66.3561 74.0586 64.6818 75.246 63.1004 74.977L32.9776 69.8527C31.3961 69.5837 30.2087 67.9094 30.4777 66.328L34.0647 45.242C34.3337 43.6606 36.008 42.4731 37.5894 42.7422ZM54.8945 50.3352L54.6383 51.8413L66.6874 53.891L66.9436 52.3849L54.8945 50.3352ZM54.382 53.3474L54.1258 54.8536L66.175 56.9033L66.4312 55.3971L54.382 53.3474ZM53.8696 56.3597L53.6134 57.8659L64.1564 59.6593L64.4126 58.1532L53.8696 56.3597ZM43.831 60.7114C40.8187 60.199 34.5149 60.8159 34.0024 63.8281L33.7462 65.3343L51.8199 68.4088L52.0761 66.9027C52.5885 63.8904 46.8433 61.2239 43.831 60.7114ZM45.8576 48.7979C44.6593 48.594 43.429 48.8746 42.4375 49.5778C41.446 50.281 40.7744 51.3493 40.5706 52.5476C40.3667 53.746 40.6473 54.9763 41.3505 55.9678C42.0537 56.9593 43.122 57.6309 44.3203 57.8347C45.5187 58.0386 46.749 57.758 47.7405 57.0548C48.732 56.3516 49.4036 55.2833 49.6074 54.0849C49.8113 52.8866 49.5307 51.6563 48.8275 50.6648C48.1243 49.6733 47.056 49.0017 45.8576 48.7979Z" fill="#616161"/>
</g>
<defs>
<clipPath id="clip0">
<rect x="6.26855" y="3" width="51.2674" height="61.2234" rx="4" transform="rotate(0.251669 6.26855 3)" fill="white"/>
</clipPath>
<clipPath id="clip1">
<rect x="32.9414" y="39.9227" width="40" height="31" rx="4" transform="rotate(9.65433 32.9414 39.9227)" fill="white"/>
</clipPath>
</defs>
</svg>
