<svg width="40" height="40" viewBox="0 0 40 40" fill="none" xmlns="http://www.w3.org/2000/svg">
<rect width="40" height="40" rx="20" fill="#424242"/>
<path d="M12.2806 19.9119L15.959 21.3271L17.393 26.0871C17.4554 26.4088 17.8294 26.4731 18.0788 26.2801L20.1363 24.5433C20.3233 24.3504 20.635 24.3504 20.8844 24.5433L24.5629 27.3093C24.8123 27.5023 25.1864 27.3737 25.2487 27.052L27.992 13.5436C28.0543 13.222 27.7426 12.9004 27.4309 13.029L12.2806 19.0757C11.9065 19.2043 11.9065 19.7832 12.2806 19.9119ZM17.206 20.6195L24.4382 16.0523C24.5629 15.988 24.6876 16.181 24.5629 16.2453L18.6399 21.9703C18.4529 22.1633 18.2659 22.4206 18.2659 22.7422L18.0788 24.286C18.0788 24.479 17.7671 24.5433 17.7047 24.286L16.9566 21.4557C16.7695 21.1341 16.8942 20.7481 17.206 20.6195Z" fill="white"/>
</svg>
