<svg width="79" height="79" viewBox="0 0 79 79" fill="none" xmlns="http://www.w3.org/2000/svg">
<path d="M43.3791 22.4265V18.3885H45.2223C46.434 18.3885 47.4165 17.406 47.4165 16.1943C47.4165 14.9825 46.4342 14 45.2223 14H34.7776C33.5659 14 32.5834 14.9825 32.5834 16.1943C32.5834 17.406 33.5659 18.3885 34.7776 18.3885H36.6208V22.4265C26.1343 24.0564 18.083 33.1469 18.083 44.0829C18.083 56.168 27.915 66 39.9999 66C52.085 66 61.9169 56.168 61.9169 44.0829C61.9169 33.1469 53.8655 24.0562 43.3791 22.4265ZM47.4425 51.494C47.0138 51.9245 46.4507 52.14 45.8877 52.14C45.3278 52.14 44.7676 51.9269 44.3395 51.5005L38.4518 45.6378C38.0385 45.226 37.8059 44.6666 37.8059 44.0831V32.8341C37.8059 31.6223 38.7884 30.6398 40.0001 30.6398C41.2119 30.6398 42.1944 31.6223 42.1944 32.8341V43.1715L47.436 48.391C48.2946 49.2459 48.2976 50.6353 47.4425 51.494Z" fill="#616161"/>
</svg>
