<svg width="40" height="40" viewBox="0 0 40 40" fill="none" xmlns="http://www.w3.org/2000/svg">
<rect width="40" height="40" rx="20" fill="#424242"/>
<g clip-path="url(#clip0)">
<path d="M29.2964 21.5775C29.8931 16.555 29.0097 13.3842 27.4164 11.95L27.4172 11.9492C24.8456 9.50002 16.1606 9.13752 13.0839 12.0592C11.7022 13.4884 11.2156 15.5859 11.1622 18.1825C11.1089 20.78 11.0456 25.6459 15.5797 26.9659H15.5839L15.5797 28.9817C15.5797 28.9817 15.5489 29.7984 16.0706 29.9625C16.6672 30.1559 16.9372 29.7767 18.7931 27.56C21.8964 27.8292 24.2797 27.2125 24.5506 27.1225C25.1772 26.9125 28.7231 26.4434 29.2964 21.5775ZM19.0989 26.1417C19.0989 26.1417 17.1347 28.5909 16.5239 29.2267C16.3239 29.4334 16.1047 29.4142 16.1081 29.0042C16.1081 28.735 16.1231 25.6575 16.1231 25.6575C12.2789 24.5559 12.5056 20.4125 12.5472 18.245C12.5889 16.0767 12.9856 14.3009 14.1556 13.105C16.8547 10.5742 24.4689 11.14 26.4089 12.9634C28.7806 15.0659 27.9364 21.0059 27.9414 21.2084C27.4539 25.27 24.5806 25.5275 24.0522 25.7034C23.8264 25.7784 21.7306 26.3175 19.0989 26.1417Z" fill="white"/>
<path d="M20.185 13.5808C19.8641 13.5808 19.8641 14.0808 20.185 14.085C22.6741 14.1041 24.7241 15.8391 24.7466 19.0216C24.7466 19.3575 25.2383 19.3533 25.2341 19.0175H25.2333C25.2066 15.5883 22.9683 13.6 20.185 13.5808Z" fill="white"/>
<path d="M23.4594 18.4942C23.4519 18.8259 23.9428 18.8417 23.9469 18.5059C23.9878 16.615 22.8219 15.0575 20.6311 14.8934C20.3103 14.87 20.2769 15.3742 20.5969 15.3975C22.4969 15.5417 23.4978 16.8384 23.4594 18.4942Z" fill="white"/>
<path d="M22.9335 20.645C22.5219 20.4067 22.1027 20.555 21.9294 20.7892L21.5669 21.2583C21.3827 21.4967 21.0385 21.465 21.0385 21.465C18.5269 20.8008 17.8552 18.1725 17.8552 18.1725C17.8552 18.1725 17.8244 17.8167 18.0544 17.6258L18.5077 17.2508C18.7344 17.0708 18.8777 16.6375 18.6469 16.2117C18.0302 15.0975 17.616 14.7133 17.4052 14.4183C17.1835 14.1408 16.8502 14.0783 16.5035 14.2658H16.496C15.7752 14.6875 14.986 15.4767 15.2385 16.2892C15.6694 17.1458 16.461 19.8767 18.9844 21.94C20.1702 22.9158 22.0469 23.9158 22.8435 24.1467L22.851 24.1583C23.636 24.42 24.3994 23.6 24.8069 22.8575V22.8517C24.9877 22.4925 24.9277 22.1525 24.6635 21.93C24.1952 21.4733 23.4885 20.9692 22.9335 20.645Z" fill="white"/>
<path d="M20.9741 16.7532C21.775 16.7999 22.1633 17.2182 22.205 18.0774C22.22 18.4132 22.7075 18.3899 22.6925 18.0541C22.6391 16.9324 22.0541 16.3074 21.0008 16.2491C20.68 16.2299 20.65 16.7341 20.9741 16.7532Z" fill="white"/>
</g>
<defs>
<clipPath id="clip0">
<rect width="20" height="20" fill="white" transform="translate(10 10)"/>
</clipPath>
</defs>
</svg>
