<svg width="40" height="40" viewBox="0 0 40 40" fill="none" xmlns="http://www.w3.org/2000/svg">
<rect width="40" height="40" rx="20" fill="#424242"/>
<path fill-rule="evenodd" clip-rule="evenodd" d="M26.6319 13.3401C24.8778 11.5839 22.5449 10.6163 20.0596 10.6152C14.9384 10.6152 10.7704 14.7831 10.7684 19.9057C10.7677 21.5432 11.1955 23.1417 12.0086 24.5507L10.6904 29.3652L15.6159 28.0732C16.973 28.8135 18.5009 29.2036 20.0558 29.2041H20.0597C25.1804 29.2041 29.3488 25.0359 29.3507 19.9131C29.3517 17.4304 28.3862 15.0962 26.6319 13.3401ZM20.0596 27.635H20.0564C18.6707 27.6344 17.3118 27.262 16.1259 26.5586L15.844 26.3911L12.9212 27.1579L13.7014 24.3082L13.5177 24.016C12.7446 22.7865 12.3364 21.3654 12.3371 19.9062C12.3387 15.6485 15.8031 12.1844 20.0627 12.1844C22.1254 12.1851 24.0643 12.9894 25.5223 14.4491C26.9803 15.9088 27.7828 17.849 27.7821 19.9125C27.7802 24.1706 24.3161 27.635 20.0596 27.635ZM24.2955 21.8513C24.0634 21.735 22.922 21.1736 22.7091 21.096C22.4965 21.0185 22.3415 20.9799 22.1869 21.2122C22.0321 21.4445 21.5873 21.9675 21.4518 22.1224C21.3163 22.2773 21.181 22.2968 20.9488 22.1805C20.7166 22.0644 19.9686 21.8191 19.0818 21.0282C18.3917 20.4126 17.9258 19.6524 17.7903 19.4201C17.6551 19.1875 17.7892 19.074 17.8922 18.9463C18.1435 18.6342 18.3952 18.307 18.4725 18.1522C18.55 17.9972 18.5112 17.8616 18.4531 17.7455C18.3952 17.6293 17.9309 16.4866 17.7375 16.0217C17.5489 15.5692 17.3576 15.6303 17.215 15.6232C17.0798 15.6164 16.9249 15.615 16.7701 15.615C16.6154 15.615 16.3638 15.6731 16.151 15.9056C15.9382 16.138 15.3386 16.6996 15.3386 17.8423C15.3386 18.985 16.1704 20.0889 16.2865 20.2438C16.4025 20.3988 17.9236 22.7437 20.2523 23.7492C20.8062 23.9886 21.2386 24.1313 21.5758 24.2383C22.132 24.415 22.6379 24.39 23.038 24.3303C23.4841 24.2636 24.4114 23.7686 24.6051 23.2264C24.7985 22.6841 24.7985 22.2193 24.7403 22.1224C24.6824 22.0256 24.5276 21.9675 24.2955 21.8513Z" fill="white"/>
</svg>
