<?xml version="1.0" standalone="no"?>
<!DOCTYPE svg PUBLIC "-//W3C//DTD SVG 20010904//EN"
 "http://www.w3.org/TR/2001/REC-SVG-20010904/DTD/svg10.dtd">
<svg version="1.0" xmlns="http://www.w3.org/2000/svg"
 width="512.000000pt" height="512.000000pt" viewBox="0 0 512.000000 512.000000"
 preserveAspectRatio="xMidYMid meet">
<metadata>
Created by potrace 1.14, written by Peter Selinger 2001-2017
</metadata>
<g transform="translate(0.000000,512.000000) scale(0.100000,-0.100000)"
fill="#000000" stroke="none">
<path d="M0 2560 l0 -2560 1725 0 c1087 0 1725 4 1725 10 0 5 9 14 20 20 16 9
18 8 14 -5 -3 -8 -11 -12 -17 -8 -6 3 -7 1 -3 -5 9 -15 36 -16 36 -2 0 7 8 6
23 -1 20 -11 21 -11 8 4 -12 15 -11 17 5 17 16 0 16 2 4 9 -8 6 -17 8 -20 6
-3 -2 -6 7 -6 20 0 15 5 21 13 18 7 -3 13 1 13 9 0 16 37 22 45 7 3 -5 0 -6
-8 -3 -20 7 -26 -6 -16 -31 7 -18 8 -18 8 -2 1 10 6 15 12 12 6 -4 13 3 16 15
4 14 11 19 22 15 8 -3 12 -3 8 1 -4 4 2 14 13 21 11 8 18 18 15 22 -2 5 4 16
15 26 11 10 20 14 20 10 0 -5 13 4 30 20 16 15 27 32 24 37 -3 4 0 8 5 8 6 0
11 4 11 9 0 5 -9 7 -20 4 -17 -5 -18 -8 -8 -21 11 -13 11 -14 -1 -7 -10 6 -12
4 -6 -6 7 -12 6 -12 -7 -1 -14 11 -17 10 -23 -7 -3 -11 -12 -20 -18 -18 -7 1
-11 -3 -10 -9 1 -8 -6 -10 -19 -6 -21 5 -21 6 -2 13 10 4 13 8 6 8 -7 1 -10 6
-6 12 5 8 9 8 14 -1 5 -9 11 -8 21 5 8 9 19 21 25 28 8 9 7 15 -4 23 -12 9
-12 13 -2 19 8 5 11 4 6 -3 -7 -12 29 -27 43 -17 6 3 14 -2 19 -11 7 -12 11
-13 17 -4 4 7 2 16 -6 21 -12 7 -11 9 1 10 8 1 18 1 23 0 14 -2 7 32 -10 53
-15 17 -13 17 8 -2 l26 -23 0 25 c0 18 -3 23 -16 18 -14 -5 -14 -4 -1 10 21
21 60 33 60 18 0 -6 -4 -9 -8 -6 -4 2 -14 1 -22 -5 -8 -5 -10 -9 -5 -10 6 0
22 -2 37 -4 23 -3 29 1 40 30 9 26 15 32 24 24 9 -8 11 -5 7 9 -6 24 -31 22
-49 -3 -8 -10 -14 -15 -14 -10 0 17 42 54 56 48 9 -3 12 2 9 16 -3 14 0 18 12
14 11 -4 11 -8 3 -13 -9 -5 -9 -9 -1 -14 6 -4 11 -2 11 4 0 6 5 8 13 3 6 -4 4
5 -5 19 -13 19 -15 29 -6 34 6 4 8 3 5 -3 -10 -17 21 -39 35 -25 9 9 7 16 -6
31 -13 14 -14 21 -5 27 7 4 10 3 6 -3 -4 -6 3 -19 15 -29 12 -11 18 -13 13 -5
-6 11 -4 13 8 8 9 -3 18 0 21 9 3 8 2 13 -3 10 -5 -3 -11 1 -15 9 -5 14 6 19
42 18 6 -1 12 8 12 20 0 11 3 17 6 14 10 -10 44 12 44 28 0 8 -5 15 -11 15 -6
0 -8 -7 -5 -16 3 -8 2 -12 -4 -9 -6 3 -10 1 -10 -4 0 -6 -3 -10 -7 -10 -20 3
-34 -2 -29 -10 3 -5 -1 -11 -9 -15 -8 -3 -17 -1 -20 3 -5 9 37 41 55 41 5 0
10 3 11 8 2 24 8 45 15 50 4 4 4 -1 1 -10 -4 -10 -2 -18 3 -18 6 0 10 7 10 16
0 8 4 13 10 9 5 -3 8 -11 6 -18 -1 -7 -1 -8 2 -4 2 4 11 2 20 -5 11 -9 14 -10
8 -1 -7 12 4 24 49 57 20 15 20 15 -2 9 -14 -3 -23 -1 -23 6 0 7 4 10 9 6 5
-3 13 0 16 6 4 5 14 8 22 5 8 -3 11 -1 8 4 -3 6 -1 10 5 10 6 0 8 5 4 12 -5 8
-2 9 11 4 15 -5 16 -4 5 9 -10 12 -16 13 -26 4 -8 -6 -11 -15 -8 -20 3 -5 0
-9 -5 -9 -6 0 -11 6 -11 13 0 7 -7 4 -15 -7 -8 -11 -15 -14 -15 -7 0 7 -4 9
-10 6 -6 -3 -7 1 -3 10 4 12 8 13 13 5 6 -9 11 -7 19 6 7 13 10 14 11 5 0 -15
14 -6 16 10 1 5 2 11 3 14 0 3 10 1 21 -5 16 -9 19 -8 14 7 -5 16 -4 16 10 -1
15 -18 16 -18 16 -2 0 9 5 14 10 11 6 -3 10 1 10 9 0 18 34 39 46 28 5 -4 3 0
-4 9 -6 9 -9 19 -5 23 4 4 -1 4 -11 0 -14 -5 -15 -9 -4 -16 10 -7 8 -8 -5 -4
-12 4 -16 2 -11 -6 5 -7 3 -8 -6 -3 -8 5 -11 4 -7 -2 4 -6 0 -16 -7 -22 -10
-8 -16 -9 -21 -1 -3 5 1 10 10 10 9 0 14 4 11 9 -3 5 1 14 9 21 8 7 12 17 8
23 -3 6 -1 7 5 3 7 -4 24 5 39 21 32 32 49 37 57 16 3 -8 1 -11 -5 -8 -16 10
-59 -23 -53 -40 9 -21 21 -19 27 6 3 12 10 18 16 15 6 -4 18 5 27 19 9 13 20
23 24 20 5 -3 6 4 3 15 -3 11 -9 17 -14 14 -5 -3 -7 -9 -4 -14 3 -4 -5 -6 -17
-2 -13 3 -17 7 -10 10 10 3 10 7 0 20 -10 14 -10 15 2 4 18 -15 34 -16 24 0
-5 7 -3 8 7 2 8 -4 23 -9 34 -11 11 -1 14 1 8 3 -18 8 -16 25 1 18 11 -4 14 0
10 19 -2 14 0 29 6 32 6 4 8 11 5 16 -4 5 5 9 19 9 20 0 24 4 19 17 -5 12 -2
15 10 10 12 -4 14 -2 10 11 -6 14 -5 15 9 2 15 -14 15 -16 -5 -32 -12 -10 -27
-18 -34 -18 -6 0 -14 -4 -18 -10 -11 -17 56 12 79 35 17 17 20 27 14 39 -5 9
-14 14 -20 10 -7 -4 -7 0 0 12 5 11 12 26 16 34 3 8 4 3 2 -12 -5 -41 17 -54
39 -24 11 14 22 23 27 20 4 -3 5 2 2 10 -4 11 0 13 15 9 17 -4 21 -1 18 16 -2
11 -11 27 -21 34 -16 12 -16 14 -2 14 9 0 16 -3 16 -7 0 -3 15 -7 33 -8 24 -2
28 0 17 8 -11 7 -11 10 -2 10 7 0 10 5 7 10 -5 8 -11 7 -21 -1 -8 -6 -14 -10
-15 -8 -8 38 -7 40 7 28 8 -6 14 -8 14 -4 0 4 12 -1 28 -10 l27 -18 -25 29
c-14 16 -17 22 -7 15 9 -7 17 -10 17 -5 0 5 5 2 10 -6 7 -12 11 -8 16 18 4 20
10 29 14 22 5 -8 10 -3 15 12 4 12 7 26 6 30 0 4 7 4 16 1 10 -4 14 -2 10 4
-4 7 7 13 27 17 40 8 49 24 30 51 -8 10 -15 16 -15 12 -2 -9 -6 -25 -9 -34 -1
-5 -2 -11 -1 -15 0 -4 -9 -5 -21 -3 -23 5 -61 -22 -52 -36 3 -5 -2 -6 -11 -3
-9 4 -15 8 -13 9 78 66 96 84 91 89 -4 3 1 6 10 6 8 0 17 5 19 12 3 7 7 5 11
-6 5 -11 3 -15 -5 -10 -7 4 -8 3 -4 -4 8 -13 36 -5 36 10 0 6 9 8 20 5 16 -4
24 3 37 31 9 21 19 40 21 44 2 3 -6 4 -17 1 -12 -3 -18 -10 -14 -17 4 -6 -1
-5 -10 3 -9 7 -17 19 -16 25 0 8 2 8 5 0 3 -7 14 -10 25 -7 16 5 17 8 7 21 -8
10 -9 13 -1 9 6 -4 14 -1 17 5 3 7 4 4 3 -7 -1 -12 4 -20 13 -20 8 0 18 -4 22
-10 4 -5 8 792 8 1773 l0 1782 -2560 0 -2560 0 0 -2560z m2634 1539 l26 -20 0
-156 c0 -191 -1 -193 -98 -193 -101 0 -102 1 -102 191 l0 158 26 20 c19 15 41
21 74 21 33 0 55 -6 74 -21z m-1027 -541 c146 -145 148 -152 73 -222 -27 -25
-57 -46 -67 -46 -9 0 -72 55 -140 123 -145 145 -147 151 -73 221 27 25 57 46
66 46 10 0 73 -55 141 -122z m2113 76 c74 -69 71 -76 -67 -216 -65 -65 -128
-121 -141 -125 -19 -4 -34 4 -73 43 -73 72 -71 78 74 222 68 67 131 122 141
122 9 0 39 -21 66 -46z m-925 -137 c171 -56 323 -176 417 -327 131 -211 155
-483 62 -712 -25 -61 -52 -106 -134 -223 -81 -116 -83 -124 -89 -368 l-6 -219
-33 -29 -33 -30 -424 3 -425 3 -27 28 -28 27 -5 218 c-5 212 -6 218 -33 274
-15 31 -52 89 -81 130 -65 89 -107 170 -138 268 -30 97 -33 307 -5 410 74 275
286 488 557 560 112 30 313 23 425 -13z m-1323 -754 c14 -12 18 -31 18 -81 0
-101 -1 -102 -191 -102 l-158 0 -20 26 c-15 19 -21 41 -21 74 0 33 6 55 21 74
l20 26 156 0 c132 0 159 -3 175 -17z m2528 -3 c16 -16 20 -33 20 -80 0 -97 -6
-100 -199 -100 l-160 0 -20 26 c-15 19 -21 41 -21 74 0 33 6 55 21 74 l20 26
160 0 c146 0 161 -2 179 -20z m1035 -1220 c-11 -5 -14 -9 -7 -9 6 -1 12 -6 12
-13 0 -9 -3 -9 -12 0 -9 9 -16 8 -30 -5 -15 -13 -18 -14 -18 -2 0 22 16 34 47
36 24 1 25 0 8 -7z m-2114 -129 c14 -17 19 -39 19 -83 0 -49 -4 -63 -25 -83
l-24 -25 -331 0 -331 0 -24 25 c-21 20 -25 34 -25 80 0 64 12 92 43 105 12 5
170 8 350 7 l329 -2 19 -24z m1929 -25 c0 -2 -8 -10 -17 -17 -16 -13 -17 -12
-4 4 13 16 21 21 21 13z m-116 -142 c5 -14 4 -15 -9 -4 -17 14 -19 20 -6 20 5
0 12 -7 15 -16z m-214 -183 c0 -14 -29 -21 -36 -9 -4 6 -3 8 4 4 6 -3 13 -2
17 4 8 12 15 13 15 1z m-318 -318 c-6 -2 -10 -9 -7 -14 4 -5 2 -16 -3 -26 -9
-14 -11 -14 -21 6 -7 12 -16 19 -21 16 -5 -3 -11 -1 -14 4 -7 11 13 9 32 -2 7
-5 12 -3 12 7 0 9 8 16 18 15 10 0 12 -3 4 -6z m-169 -163 c3 -11 1 -18 -4
-14 -5 3 -9 12 -9 20 0 20 7 17 13 -6z m-138 -169 c3 -5 2 -12 -3 -15 -5 -3
-9 1 -9 9 0 17 3 19 12 6z m-105 -65 c0 -3 -15 -14 -32 -26 l-33 -22 30 26
c31 27 35 29 35 22z m-145 -170 c-1 -14 -8 -20 -19 -18 -9 2 -16 -2 -16 -8 0
-5 -8 -10 -17 -9 -11 0 -13 3 -5 6 6 2 10 9 6 14 -3 5 -2 9 3 8 19 -3 33 2 33
12 0 5 -5 7 -12 3 -6 -4 -8 -3 -5 3 11 18 33 10 32 -11z m-78 -28 c-3 -8 -6
-5 -6 6 -1 11 2 17 5 13 3 -3 4 -12 1 -19z"/>
<path d="M4920 1440 c-8 -5 -12 -12 -9 -15 4 -3 12 1 19 10 14 17 11 19 -10 5z"/>
<path d="M4540 1049 c0 -9 31 -21 38 -14 3 3 -1 5 -9 5 -12 0 -11 2 1 10 12 7
10 9 -8 7 -12 0 -22 -4 -22 -8z"/>
<path d="M3955 440 c3 -5 8 -10 11 -10 2 0 4 5 4 10 0 6 -5 10 -11 10 -5 0 -7
-4 -4 -10z"/>
<path d="M3835 350 c-3 -5 -1 -10 4 -10 6 0 11 5 11 10 0 6 -2 10 -4 10 -3 0
-8 -4 -11 -10z"/>
<path d="M3532 73 c-6 -2 -10 -9 -6 -14 8 -14 21 -11 21 6 0 8 -1 15 -1 14 -1
0 -7 -3 -14 -6z"/>
</g>
</svg>
